<svg height="512pt" viewBox="0 -3 512.001 512" width="512pt" xmlns="http://www.w3.org/2000/svg"><g fill="#18191b"><path d="m111.972656 381.875h-64.949218c-4.164063 0-7.539063 3.375-7.539063 7.539062 0 4.160157 3.375 7.535157 7.539063 7.535157h64.949218c4.160156 0 7.535156-3.375 7.535156-7.535157 0-4.164062-3.375-7.539062-7.535156-7.539062zm0 0"/><path d="m111.972656 420.082031h-64.949218c-4.164063 0-7.539063 3.375-7.539063 7.535157 0 4.164062 3.375 7.535156 7.539063 7.535156h64.949218c4.160156 0 7.535156-3.371094 7.535156-7.535156 0-4.160157-3.375-7.535157-7.535156-7.535157zm0 0"/><path d="m111.972656 458.289062h-64.949218c-4.164063 0-7.539063 3.371094-7.539063 7.535157 0 4.160156 3.375 7.535156 7.539063 7.535156h64.949218c4.160156 0 7.535156-3.375 7.535156-7.535156 0-4.164063-3.375-7.535157-7.535156-7.535157zm0 0"/><path d="m254.394531 223.386719c-15.984375 0-28.992187 13.003906-28.992187 28.988281s13.007812 28.992188 28.992187 28.992188 28.988281-13.007813 28.988281-28.992188-13.003906-28.988281-28.988281-28.988281zm0 42.90625c-7.675781 0-13.917969-6.242188-13.917969-13.917969s6.242188-13.917969 13.917969-13.917969 13.917969 6.242188 13.917969 13.917969-6.242188 13.917969-13.917969 13.917969zm0 0"/><path d="m489.390625 300.203125h-50.332031v-30.125c0-12.46875-8.699219-22.609375-19.386719-22.609375h-100c-2.230469-29.929688-24.65625-54.308594-53.667969-59.523438v-21.296874h33.03125c12.464844 0 22.605469-10.140626 22.605469-22.605469v-22.367188c0-12.464843-10.140625-22.605469-22.605469-22.605469h-33.03125v-8.1875c0-4.15625 3.378906-7.539062 7.535156-7.539062h75.128907v50.941406c0 12.464844 10.144531 22.605469 22.609375 22.605469h113.777344c12.464843 0 22.609374-10.140625 22.609374-22.605469v-110.671875c0-12.464843-10.144531-22.609375-22.609374-22.609375h-113.777344c-12.464844 0-22.609375 10.144532-22.609375 22.609375v44.660157h-75.128907c-12.46875 0-22.609374 10.140624-22.609374 22.609374v8.183594h-38.125c-12.464844 0-22.605469 10.144532-22.605469 22.609375v22.367188c0 12.464843 10.140625 22.605469 22.605469 22.605469h38.125v20.339843c-34.5 1.808594-62.015626 30.441407-62.015626 65.386719 0 .574219.03125 1.144531.042969 1.714844h-72.851562c0-.148438.011719-.292969.011719-.4375 0-20.871094-16.980469-37.851563-37.847657-37.851563-.132812 0-.265625.011719-.398437.011719v-126.382812h80.730468c12.464844 0 22.609376-10.144532 22.609376-22.609376v-44.210937c0-12.464844-10.144532-22.609375-22.609376-22.609375h-65.402343c-4.164063 0-7.539063 3.375-7.539063 7.535156 0 4.164063 3.375 7.539063 7.539063 7.539063h65.402343c4.15625 0 7.535157 3.378906 7.535157 7.535156v44.210937c0 4.15625-3.378907 7.535157-7.535157 7.535157h-134.644531c-4.15625 0-7.535156-3.378907-7.535156-7.535157v-44.210937c0-4.15625 3.378906-7.535156 7.535156-7.535156h39.097657c4.160156 0 7.535156-3.375 7.535156-7.539063 0-4.160156-3.375-7.535156-7.535156-7.535156h-39.097657c-12.46875 0-22.609375 10.144531-22.609375 22.609375v44.210937c0 12.464844 10.140625 22.609376 22.609375 22.609376h38.84375v129.691406c-13.175781 5.929687-22.378906 19.171875-22.378906 34.53125 0 20.871094 16.976563 37.847656 37.847656 37.847656 15.339844 0 28.570313-9.183594 34.507813-22.335938h78.328125c6.304687 23.746094 25.640625 42.230469 49.859375 47.300782v72.570312c-15.972656 3.601563-28.140625 17.320313-29.402344 34.042969h-52.570312v-50.792969c0-12.46875-10.140626-22.609375-22.605469-22.609375h-113.777344c-12.46875 0-22.609375 10.140625-22.609375 22.609375v110.667969c0 12.46875 10.140625 22.609375 22.609375 22.609375h113.777344c12.464843 0 22.605469-10.140625 22.605469-22.609375v-44.800781h54.476562c5.089844 14.898437 19.21875 25.644531 35.820312 25.644531 20.871094 0 37.847657-16.976563 37.847657-37.847656 0-18.566407-13.441407-34.039063-31.101563-37.234375v-70.898438c31.910156-.792968 58.230469-24.507812 63.046875-55.273437h100.589844c1.71875 0 4.316406 3.003906 4.316406 7.535156v30.125h-69.242187c-12.464844 0-22.605469 10.144531-22.605469 22.609375v44.210938c0 12.46875 10.140625 22.609374 22.605469 22.609374h22.945312c4.160156 0 7.535156-3.375 7.535156-7.535156 0-4.164062-3.375-7.535156-7.535156-7.535156h-22.945312c-4.15625 0-7.535156-3.382812-7.535156-7.539062v-44.210938c0-4.15625 3.378906-7.535156 7.535156-7.535156h134.644531c4.15625 0 7.539063 3.378906 7.539063 7.535156v44.210938c0 4.15625-3.382813 7.539062-7.539063 7.539062h-81.554687c-4.164063 0-7.539063 3.371094-7.539063 7.535156 0 4.160156 3.375 7.535156 7.539063 7.535156h16.152343v40.125c-17.136719 3.609376-30.039062 18.839844-30.039062 37.03125 0 20.871094 16.976562 37.847657 37.847656 37.847657s37.847656-16.976563 37.847656-37.847657c0-18.382812-13.179687-33.742187-30.585937-37.140624v-40.015626h50.335937c12.464844 0 22.605469-10.144531 22.605469-22.609374v-44.210938c0-12.46875-10.140625-22.609375-22.609375-22.609375zm-125.648437-276.589844c0-4.15625 3.378906-7.535156 7.535156-7.535156h113.777344c4.15625 0 7.535156 3.378906 7.535156 7.535156v110.671875c0 4.152344-3.378906 7.535156-7.535156 7.535156h-113.777344c-4.15625 0-7.535156-3.382812-7.535156-7.535156zm-158.472657 120.429688v-22.367188c0-4.15625 3.378907-7.535156 7.535157-7.535156h86.230468c4.152344 0 7.535156 3.378906 7.535156 7.535156v22.367188c0 4.152343-3.382812 7.535156-7.535156 7.535156h-86.230468c-4.15625 0-7.535157-3.382813-7.535157-7.535156zm-127 132.386719c-12.558593 0-22.777343-10.21875-22.777343-22.777344s10.21875-22.777344 22.777343-22.777344c12.558594 0 22.773438 10.21875 22.773438 22.777344s-10.214844 22.777344-22.773438 22.777344zm65.652344 206.523437c0 4.15625-3.382813 7.535156-7.535156 7.535156h-113.777344c-4.15625 0-7.539063-3.378906-7.539063-7.535156v-110.671875c0-4.15625 3.382813-7.535156 7.539063-7.535156h113.777344c4.152343 0 7.535156 3.378906 7.535156 7.535156zm128.140625-57.003906c0 12.558593-10.214844 22.773437-22.773438 22.773437-12.558593 0-22.777343-10.214844-22.777343-22.773437 0-12.558594 10.21875-22.777344 22.777343-22.777344 12.558594 0 22.773438 10.21875 22.773438 22.777344zm-17.667969-123.164063c-27.796875 0-50.410156-22.613281-50.410156-50.410156s22.613281-50.40625 50.410156-50.40625 50.40625 22.613281 50.40625 50.40625c0 27.796875-22.613281 50.410156-50.40625 50.410156zm200.175781 164.003906c0 12.558594-10.214843 22.777344-22.773437 22.777344s-22.777344-10.21875-22.777344-22.777344c0-12.558593 10.21875-22.777343 22.777344-22.777343s22.773437 10.21875 22.773437 22.777343zm0 0"/><path d="m395.691406 48.28125h64.949219c4.160156 0 7.535156-3.375 7.535156-7.539062 0-4.160157-3.375-7.535157-7.535156-7.535157h-64.949219c-4.164062 0-7.535156 3.375-7.535156 7.535157 0 4.164062 3.371094 7.539062 7.535156 7.539062zm0 0"/><path d="m395.691406 86.484375h64.949219c4.160156 0 7.535156-3.375 7.535156-7.535156 0-4.164063-3.375-7.535157-7.535156-7.535157h-64.949219c-4.164062 0-7.535156 3.371094-7.535156 7.535157 0 4.160156 3.371094 7.535156 7.535156 7.535156zm0 0"/><path d="m395.691406 124.691406h64.949219c4.160156 0 7.535156-3.375 7.535156-7.535156 0-4.164062-3.375-7.539062-7.535156-7.539062h-64.949219c-4.164062 0-7.535156 3.375-7.535156 7.539062 0 4.160156 3.371094 7.535156 7.535156 7.535156zm0 0"/></g></svg>