<svg id="Icons" height="512" viewBox="0 0 60 60" width="512" xmlns="http://www.w3.org/2000/svg"><path d="m48 50a1 1 0 0 1 -1 1h-34a1 1 0 0 1 -1-1v-48a1 1 0 0 1 1-1h27.17a2.006 2.006 0 0 1 1.42.59l5.82 5.82a2.006 2.006 0 0 1 .59 1.42z" fill="#e1efff"/><path d="m16 31.5v10.45a2.964 2.964 0 0 1 -.66 1.87l-2.68 3.36a2.964 2.964 0 0 0 -.66 1.87v7.95h-10v-24.19a4.994 4.994 0 0 1 1.16-3.2l8.84-10.61v10.5a2.5 2.5 0 0 1 4 2z" fill="#a9725e"/><path d="m48 29.5a2.488 2.488 0 0 0 -1.5-.5 2.5 2.5 0 0 0 -2.5 2.5v10.448a3 3 0 0 0 .657 1.874l2.686 3.356a3 3 0 0 1 .657 1.874v7.948h10v-24.19a5 5 0 0 0 -1.159-3.2l-8.841-10.61z" fill="#a9725e"/><path d="m47.82 8h-5.82a1 1 0 0 1 -1-1v-5.82a2.017 2.017 0 0 1 .59.41l5.82 5.82a2.017 2.017 0 0 1 .41.59z" fill="#b0ccdd"/><rect fill="#4b95ff" height="4" rx="1" width="12" x="1" y="55"/><rect fill="#4b95ff" height="4" rx="1" transform="matrix(-1 0 0 -1 106 114)" width="12" x="47" y="55"/><g fill="#9ebbce"><path d="m42 13h-24a1 1 0 0 1 0-2h24a1 1 0 0 1 0 2z"/><path d="m42 18h-24a1 1 0 0 1 0-2h24a1 1 0 0 1 0 2z"/><path d="m42 23h-24a1 1 0 0 1 0-2h24a1 1 0 0 1 0 2z"/><path d="m42 28h-24a1 1 0 0 1 0-2h24a1 1 0 0 1 0 2z"/><path d="m40 33h-20a1 1 0 0 1 0-2h20a1 1 0 0 1 0 2z"/><path d="m40 38h-20a1 1 0 0 1 0-2h20a1 1 0 0 1 0 2z"/><path d="m30 43h-10a1 1 0 0 1 0-2h10a1 1 0 0 1 0 2z"/></g><path d="m12 27.34v2.16a1.492 1.492 0 0 0 -.6 1.2v5.5a1 1 0 0 1 -2 0v-5.5a3.5 3.5 0 0 1 1.4-2.8 5.043 5.043 0 0 1 1.2-.56z" fill="#925c4c"/><path d="m48 27.34v2.16a1.492 1.492 0 0 1 .6 1.2v5.5a1 1 0 0 0 2 0v-5.5a3.5 3.5 0 0 0 -1.4-2.8 5.043 5.043 0 0 0 -1.2-.56z" fill="#925c4c"/></svg>