<?xml version="1.0" encoding="iso-8859-1"?>
<!-- Generator: Adobe Illustrator 19.0.0, SVG Export Plug-In . SVG Version: 6.00 Build 0)  -->
<svg version="1.1" id="Capa_1" xmlns="http://www.w3.org/2000/svg" xmlns:xlink="http://www.w3.org/1999/xlink" x="0px" y="0px"
	 viewBox="0 0 512 512" style="enable-background:new 0 0 512 512;" xml:space="preserve">
<g>
	<g>
		<path d="M509.973,23.471C507.29,18.846,502.347,16,497,16H15c-5.347,0-10.29,2.846-12.974,7.471s-2.703,10.328-0.05,14.971
			L180,349.983V481c0,8.284,6.716,15,15,15h122c8.284,0,15-6.716,15-15V349.983L510.023,38.442
			C512.677,33.799,512.657,28.096,509.973,23.471z M302,466h-92V361h92V466z M308.296,331h-104.59l-42.857-75h190.305L308.296,331z
			 M368.296,226h-224.59l-42.857-75h310.305L368.296,226z M428.296,121H83.705L40.848,46h430.304L428.296,121z"/>
	</g>
</g>
<g>
</g>
<g>
</g>
<g>
</g>
<g>
</g>
<g>
</g>
<g>
</g>
<g>
</g>
<g>
</g>
<g>
</g>
<g>
</g>
<g>
</g>
<g>
</g>
<g>
</g>
<g>
</g>
<g>
</g>
</svg>
