<svg id="Capa_1" enable-background="new 0 0 512 512" height="512" viewBox="0 0 512 512" width="512" xmlns="http://www.w3.org/2000/svg"><g><g><path d="m511.999 404.468c-.011-.394-.05-.781-.116-1.17-.156-.912-.549-1.928-1.016-2.677-.072-.115-39.18-62.823-39.18-62.823v-248.633c0-15.135-12.313-27.448-27.448-27.448h-48.006c-4.135 0-7.486 3.352-7.486 7.486s3.351 7.486 7.486 7.486h48.006c6.88 0 12.476 5.597 12.476 12.476v243.291h-18.406v-224.478c0-7.246-5.895-13.14-13.14-13.14h-338.338c-7.245 0-13.14 5.895-13.14 13.14v224.478h-18.406v-243.291c0-6.88 5.597-12.476 12.476-12.476h292.874c4.135 0 7.486-3.352 7.486-7.486s-3.351-7.486-7.486-7.486h-292.874c-15.135 0-27.448 12.313-27.448 27.448v248.633s-39.155 62.784-39.18 62.823c-.735 1.18-1.133 2.566-1.133 3.961v22.148c0 12.987 10.566 23.553 23.553 23.553h464.894c12.987 0 23.553-10.566 23.553-23.553v-22.148c0-.038 0-.076-.001-.114zm-423.337-294.659h334.675v222.647h-334.675zm-36.71 237.618h408.095l30.975 49.669h-161.828l-7.298-22.411c-1.929-5.927-7.414-9.909-13.648-9.909h-56.906c-4.135 0-7.486 3.352-7.486 7.486s3.351 7.486 7.486 7.486h56.457l5.651 17.349h-114.899l5.651-17.349h12.54c4.135 0 7.486-3.352 7.486-7.486s-3.351-7.486-7.486-7.486h-12.989c-6.234 0-11.719 3.982-13.648 9.908l-7.298 22.412h-161.83zm445.076 79.303c0 4.732-3.849 8.581-8.582 8.581h-464.893c-4.732 0-8.581-3.85-8.581-8.581v-14.662h482.057v14.662z"/><path d="m123.607 144.692h90.328c4.135 0 7.486-3.352 7.486-7.486s-3.351-7.486-7.486-7.486h-90.328c-4.135 0-7.486 3.352-7.486 7.486s3.351 7.486 7.486 7.486z"/><path d="m123.607 169.488h118.667c4.135 0 7.486-3.352 7.486-7.486s-3.351-7.486-7.486-7.486h-118.667c-4.135 0-7.486 3.352-7.486 7.486s3.351 7.486 7.486 7.486z"/><path d="m388.393 297.573h-23.198v-74.794c0-5.796-4.715-10.51-10.51-10.51h-39.357c-5.796 0-10.51 4.715-10.51 10.51v74.794h-18.628v-98.407c0-5.796-4.715-10.51-10.51-10.51h-39.357c-5.795 0-10.51 4.715-10.51 10.51v98.407h-18.628v-63.652c0-5.796-4.715-10.51-10.51-10.51h-39.357c-5.796 0-10.51 4.715-10.51 10.51v63.652h-23.198c-4.135 0-7.486 3.352-7.486 7.486s3.351 7.486 7.486 7.486h264.786c4.135 0 7.486-3.352 7.486-7.486s-3.354-7.486-7.489-7.486zm-196.182 0h-30.435v-59.191h30.435zm79.006 0h-30.435v-93.946h30.435zm79.006 0h-30.435v-70.332h30.435z"/></g></g></svg>