<svg height="512" viewBox="0 0 64 64" width="512" xmlns="http://www.w3.org/2000/svg" xmlns:xlink="http://www.w3.org/1999/xlink"><linearGradient id="gradient_ice" gradientUnits="userSpaceOnUse" x1="-6.534" x2="60.217" y1="56.548" y2="-17.156"><stop offset="0" stop-color="#fff200"/><stop offset="1" stop-color="#cd118c"/></linearGradient><linearGradient id="gradient_ice-2" x1="15.358" x2="82.109" xlink:href="#gradient_ice" y1="76.375" y2="2.671"/><linearGradient id="gradient_ice-3" x1="-.709" x2="66.042" xlink:href="#gradient_ice" y1="61.824" y2="-11.88"/><linearGradient id="gradient_ice-4" x1="1.489" x2="68.24" xlink:href="#gradient_ice" y1="63.814" y2="-9.89"/><linearGradient id="gradient_ice-5" x1="3.686" x2="70.437" xlink:href="#gradient_ice" y1="65.805" y2="-7.899"/><linearGradient id="gradient_ice-6" x1="5.884" x2="72.635" xlink:href="#gradient_ice" y1="67.795" y2="-5.909"/><linearGradient id="gradient_ice-7" x1="8.081" x2="74.832" xlink:href="#gradient_ice" y1="69.785" y2="-3.919"/><linearGradient id="gradient_ice-8" x1="10.279" x2="77.03" xlink:href="#gradient_ice" y1="71.775" y2="-1.929"/><linearGradient id="gradient_ice-9" x1="12.477" x2="79.227" xlink:href="#gradient_ice" y1="73.765" y2=".062"/><linearGradient id="gradient_ice-10" x1="14.674" x2="81.425" xlink:href="#gradient_ice" y1="75.756" y2="2.052"/><linearGradient id="gradient_ice-11" x1="16.872" x2="83.622" xlink:href="#gradient_ice" y1="77.746" y2="4.042"/><linearGradient id="gradient_ice-12" x1="19.069" x2="85.82" xlink:href="#gradient_ice" y1="79.736" y2="6.032"/><linearGradient id="gradient_ice-13" x1="21.267" x2="88.017" xlink:href="#gradient_ice" y1="81.726" y2="8.022"/><linearGradient id="gradient_ice-14" x1="23.464" x2="90.215" xlink:href="#gradient_ice" y1="83.717" y2="10.013"/><linearGradient id="gradient_ice-15" x1="1.282" x2="68.032" xlink:href="#gradient_ice" y1="63.627" y2="-10.077"/><linearGradient id="gradient_ice-16" x1="3.479" x2="70.23" xlink:href="#gradient_ice" y1="65.617" y2="-8.087"/><linearGradient id="gradient_ice-17" x1="5.677" x2="72.427" xlink:href="#gradient_ice" y1="67.607" y2="-6.097"/><linearGradient id="gradient_ice-18" x1="7.874" x2="74.625" xlink:href="#gradient_ice" y1="69.597" y2="-4.107"/><linearGradient id="gradient_ice-19" x1="10.072" x2="76.822" xlink:href="#gradient_ice" y1="71.587" y2="-2.116"/><linearGradient id="gradient_ice-20" x1="12.269" x2="79.02" xlink:href="#gradient_ice" y1="73.578" y2="-.126"/><linearGradient id="gradient_ice-21" x1="14.467" x2="81.217" xlink:href="#gradient_ice" y1="75.568" y2="1.864"/><linearGradient id="gradient_ice-22" x1="16.664" x2="83.415" xlink:href="#gradient_ice" y1="77.558" y2="3.854"/><linearGradient id="gradient_ice-23" x1="18.862" x2="85.613" xlink:href="#gradient_ice" y1="79.548" y2="5.845"/><linearGradient id="gradient_ice-24" x1="21.059" x2="87.81" xlink:href="#gradient_ice" y1="81.539" y2="7.835"/><linearGradient id="gradient_ice-25" x1="23.257" x2="90.008" xlink:href="#gradient_ice" y1="83.529" y2="9.825"/><linearGradient id="gradient_ice-26" x1="25.454" x2="92.205" xlink:href="#gradient_ice" y1="85.519" y2="11.815"/><linearGradient id="gradient_ice-27" x1="4.371" x2="71.121" xlink:href="#gradient_ice" y1="66.424" y2="-7.28"/><linearGradient id="gradient_ice-28" x1="26.346" x2="93.097" xlink:href="#gradient_ice" y1="86.326" y2="12.623"/><linearGradient id="gradient_ice-29" x1="3.174" x2="69.925" xlink:href="#gradient_ice" y1="65.341" y2="-8.363"/><linearGradient id="gradient_ice-30" x1="-5.042" x2="61.709" xlink:href="#gradient_ice" y1="57.9" y2="-15.804"/><g id="home-monitor-keyboard-work_at_home" data-name="home-monitor-keyboard-work at home"><path d="m15 12v4a1 1 0 0 0 1.49.872l15.51-8.725 15.51 8.725a1 1 0 0 0 1.49-.872v-4a1 1 0 0 0 -.51-.872l-3.49-1.963v-6.165a1 1 0 0 0 -1-1h-5a1 1 0 0 0 -1 1v2.228l-5.51-3.1a1 1 0 0 0 -.98 0l-16 9a1 1 0 0 0 -.51.872zm25-8h3v4.04l-3-1.687zm-23 8.585 15-8.438 15 8.438v1.7l-14.51-8.157a1 1 0 0 0 -.98 0l-14.51 8.162z" fill="url(#gradient_ice)"/><path d="m17 57h30v2h-30z" fill="url(#gradient_ice-2)"/><path d="m9 49h2v2h-2z" fill="url(#gradient_ice-3)"/><path d="m13 49h2v2h-2z" fill="url(#gradient_ice-4)"/><path d="m17 49h2v2h-2z" fill="url(#gradient_ice-5)"/><path d="m21 49h2v2h-2z" fill="url(#gradient_ice-6)"/><path d="m25 49h2v2h-2z" fill="url(#gradient_ice-7)"/><path d="m29 49h2v2h-2z" fill="url(#gradient_ice-8)"/><path d="m33 49h2v2h-2z" fill="url(#gradient_ice-9)"/><path d="m37 49h2v2h-2z" fill="url(#gradient_ice-10)"/><path d="m41 49h2v2h-2z" fill="url(#gradient_ice-11)"/><path d="m45 49h2v2h-2z" fill="url(#gradient_ice-12)"/><path d="m49 49h2v2h-2z" fill="url(#gradient_ice-13)"/><path d="m53 49h2v2h-2z" fill="url(#gradient_ice-14)"/><path d="m9 53h2v2h-2z" fill="url(#gradient_ice-15)"/><path d="m13 53h2v2h-2z" fill="url(#gradient_ice-16)"/><path d="m17 53h2v2h-2z" fill="url(#gradient_ice-17)"/><path d="m21 53h2v2h-2z" fill="url(#gradient_ice-18)"/><path d="m25 53h2v2h-2z" fill="url(#gradient_ice-19)"/><path d="m29 53h2v2h-2z" fill="url(#gradient_ice-20)"/><path d="m33 53h2v2h-2z" fill="url(#gradient_ice-21)"/><path d="m37 53h2v2h-2z" fill="url(#gradient_ice-22)"/><path d="m41 53h2v2h-2z" fill="url(#gradient_ice-23)"/><path d="m45 53h2v2h-2z" fill="url(#gradient_ice-24)"/><path d="m49 53h2v2h-2z" fill="url(#gradient_ice-25)"/><path d="m53 53h2v2h-2z" fill="url(#gradient_ice-26)"/><path d="m9 57h6v2h-6z" fill="url(#gradient_ice-27)"/><path d="m49 57h6v2h-6z" fill="url(#gradient_ice-28)"/><path d="m59 6h-12v2h12a1 1 0 0 1 1 1v25h-12v-15a.99.99 0 0 0 -.49-.86l-15-9a.984.984 0 0 0 -1.02 0l-15 9a.99.99 0 0 0 -.49.86v15h-12v-25a1 1 0 0 1 1-1h14v-2h-14a3.009 3.009 0 0 0 -3 3v28a3.009 3.009 0 0 0 3 3h23v2h-6a1 1 0 0 0 -1 1v3h-16a1 1 0 0 0 -1 1v14a1 1 0 0 0 1 1h54a1 1 0 0 0 1-1v-14a1 1 0 0 0 -1-1h-16v-3a1 1 0 0 0 -1-1h-6v-2h23a3.009 3.009 0 0 0 3-3v-28a3.009 3.009 0 0 0 -3-3zm-41 13.57 14-8.4 14 8.4v14.43h-10v-8a1 1 0 0 0 -1-1h-6a1 1 0 0 0 -1 1v8h-10zm16 7.43v7h-4v-7zm24 21v12h-52v-12zm-17-4v2h-18v-2zm-11-2v-2h4v2zm30-5a1 1 0 0 1 -1 1h-54a1 1 0 0 1 -1-1v-1h56z" fill="url(#gradient_ice-29)"/><path d="m32 21a4 4 0 1 0 -4-4 4 4 0 0 0 4 4zm0-6a2 2 0 1 1 -2 2 2 2 0 0 1 2-2z" fill="url(#gradient_ice-30)"/></g></svg>