<svg height="512" viewBox="0 0 64 64" width="512" xmlns="http://www.w3.org/2000/svg" xmlns:xlink="http://www.w3.org/1999/xlink"><linearGradient id="gradient_ice" gradientUnits="userSpaceOnUse" x1="11.589" x2="71.929" y1="56.186" y2="-11.05"><stop offset="0" stop-color="#fff200"/><stop offset="1" stop-color="#cd118c"/></linearGradient><linearGradient id="gradient_ice-2" x1="3.018" x2="63.358" xlink:href="#gradient_ice" y1="48.495" y2="-18.742"/><linearGradient id="gradient_ice-3" x1="5.233" x2="65.574" xlink:href="#gradient_ice" y1="50.483" y2="-16.754"/><linearGradient id="gradient_ice-4" x1="7.449" x2="67.789" xlink:href="#gradient_ice" y1="52.471" y2="-14.765"/><linearGradient id="gradient_ice-5" x1="7.491" x2="67.832" xlink:href="#gradient_ice" y1="52.51" y2="-14.727"/><linearGradient id="gradient_ice-6" x1="9.707" x2="70.048" xlink:href="#gradient_ice" y1="54.498" y2="-12.739"/><linearGradient id="gradient_ice-7" x1="11.923" x2="72.263" xlink:href="#gradient_ice" y1="56.486" y2="-10.75"/><linearGradient id="gradient_ice-8" x1="11.965" x2="72.306" xlink:href="#gradient_ice" y1="56.524" y2="-10.712"/><linearGradient id="gradient_ice-9" x1="14.181" x2="74.521" xlink:href="#gradient_ice" y1="58.513" y2="-8.724"/><linearGradient id="gradient_ice-10" x1="16.396" x2="76.737" xlink:href="#gradient_ice" y1="60.501" y2="-6.735"/><g id="home-networking-server-work_at_home" data-name="home-networking-server-work at home"><path d="m43 28a1 1 0 0 0 1-1v-2h9a1 1 0 0 0 1-1v-4h6a1 1 0 0 0 1-1v-7a1.014 1.014 0 0 0 .53-.15 1 1 0 0 0 .47-.85v-4a.988.988 0 0 0 -.55-.89l-8-4a.956.956 0 0 0 -.9 0l-8 4a.988.988 0 0 0 -.55.89v4a1 1 0 0 0 .47.85 1.014 1.014 0 0 0 .53.15v7a1 1 0 0 0 1 1h6v3h-8v-2a1 1 0 0 0 -1-1h-22a1 1 0 0 0 -1 1v6a1 1 0 0 0 1 1h2v1h-2a1 1 0 0 0 -1 1v2h-8v-12h6a1 1 0 0 0 1-1v-7a1.014 1.014 0 0 0 .53-.15 1 1 0 0 0 .47-.85v-4a.988.988 0 0 0 -.55-.89l-8-4a.956.956 0 0 0 -.9 0l-8 4a.988.988 0 0 0 -.55.89v4a1 1 0 0 0 .47.85 1.014 1.014 0 0 0 .53.15v7a1 1 0 0 0 1 1h6v13a1 1 0 0 0 1 1h9v2a1 1 0 0 0 1 1h2v1h-2a1 1 0 0 0 -1 1v6a1 1 0 0 0 1 1h10v11h-12v-3a1.014 1.014 0 0 0 .53-.15 1 1 0 0 0 .47-.85v-4a.988.988 0 0 0 -.55-.89l-8-4a.956.956 0 0 0 -.9 0l-8 4a.988.988 0 0 0 -.55.89v4a1 1 0 0 0 .47.85 1.014 1.014 0 0 0 .53.15v7a1 1 0 0 0 1 1h14a1 1 0 0 0 1-1v-2h26v2a1 1 0 0 0 1 1h14a1 1 0 0 0 1-1v-7a1.014 1.014 0 0 0 .53-.15 1 1 0 0 0 .47-.85v-4a.988.988 0 0 0 -.55-.89l-8-4a.956.956 0 0 0 -.9 0l-8 4a.988.988 0 0 0 -.55.89v4a1 1 0 0 0 .47.85 1.014 1.014 0 0 0 .53.15v3h-12v-11h10a1 1 0 0 0 1-1v-6a1 1 0 0 0 -1-1h-2v-1h2a1 1 0 0 0 1-1v-6a1 1 0 0 0 -1-1h-2v-1zm11-10h-2v-3h2zm-8-10.38 7-3.5 7 3.5v1.76l-6.55-3.27a.975.975 0 0 0 -.9 0l-6.55 3.27zm5 5.38a1 1 0 0 0 -1 1v4h-3v-6.88l6-3 6 3v6.88h-3v-4a1 1 0 0 0 -1-1zm-47-5.38 7-3.5 7 3.5v1.76l-6.55-3.27a.975.975 0 0 0 -.9 0l-6.55 3.27zm5 5.38a1 1 0 0 0 -1 1v4h-3v-6.88l6-3 6 3v6.88h-3v-4a1 1 0 0 0 -1-1zm1 5v-3h2v3zm2 42h-2v-3h2zm5 0h-3v-4a1 1 0 0 0 -1-1h-4a1 1 0 0 0 -1 1v4h-3v-6.88l6-3 6 3zm1-8.62-6.55-3.27a.975.975 0 0 0 -.9 0l-6.55 3.27v-1.76l7-3.5 7 3.5zm36 8.62h-2v-3h2zm5 0h-3v-4a1 1 0 0 0 -1-1h-4a1 1 0 0 0 -1 1v4h-3v-6.88l6-3 6 3zm-13-10.38 7-3.5 7 3.5v1.76l-6.55-3.27a.975.975 0 0 0 -.9 0l-6.55 3.27zm-4-9.62v4h-20v-4zm-17-2v-1h14v1zm17-7v4h-20v-4zm-17-2v-1h14v1zm-3-3v-4h20v4z" fill="url(#gradient_ice)"/><path d="m24 23h2v2h-2z" fill="url(#gradient_ice-2)"/><path d="m28 23h2v2h-2z" fill="url(#gradient_ice-3)"/><path d="m32 23h2v2h-2z" fill="url(#gradient_ice-4)"/><path d="m24 32h2v2h-2z" fill="url(#gradient_ice-5)"/><path d="m28 32h2v2h-2z" fill="url(#gradient_ice-6)"/><path d="m32 32h2v2h-2z" fill="url(#gradient_ice-7)"/><path d="m24 41h2v2h-2z" fill="url(#gradient_ice-8)"/><path d="m28 41h2v2h-2z" fill="url(#gradient_ice-9)"/><path d="m32 41h2v2h-2z" fill="url(#gradient_ice-10)"/></g></svg>