<svg id="Layer_3" enable-background="new 0 0 64 64" height="512" viewBox="0 0 64 64" width="512" xmlns="http://www.w3.org/2000/svg"><g><path d="m56 51h-10.723l-4.277-2.566v-3.038c4.529-2.842 7.618-7.748 7.949-13.396h1.051c2.206 0 4-1.794 4-4s-1.794-4-4-4h-1.657c-.295-1.574-.689-3.131-1.184-4.663l3.901-3.251c1.233-1.028 1.94-2.538 1.94-4.144 0-2.194-1.312-4.152-3.34-4.987l-11.505-4.737c-3.922-1.615-8.389-1.615-12.311 0l-11.504 4.737c-2.028.835-3.34 2.793-3.34 4.987 0 1.605.707 3.115 1.94 4.144l3.901 3.251c-.495 1.532-.889 3.089-1.184 4.663h-1.657c-2.206 0-4 1.794-4 4s1.794 4 4 4h1.033c.01.171.027.34.042.511l-.368.368c-.713.713-1.699 1.121-2.707 1.121s-1.994-.408-2.707-1.121l-.586-.586c-.391-.391-1.023-.391-1.414 0l-4 4c-.391.391-.391 1.023 0 1.414l2.232 2.232c.952.952 1.475 2.216 1.475 3.561s-.523 2.609-1.545 3.631c-.925.925-1.455 2.205-1.455 3.513 0 .505.083.995.228 1.463-1.986 1.275-3.228 3.495-3.228 5.893v4c0 .553.447 1 1 1h60c.553 0 1-.447 1-1v-4c0-3.859-3.141-7-7-7zm-8 2h6v2h-6zm-20.09-1.465 3.09 1.158v3.743l-4.62-2.132c.798-.729 1.335-1.7 1.53-2.769zm5.09 1.158 6.9-2.587 2.965 1.779-9.865 4.552zm6-4.386-7 2.625-4.196-1.573c-.229-.833-.66-1.62-1.314-2.279 1.765.603 3.629.92 5.51.92 2.497 0 4.862-.555 7-1.526zm-7-2.307c-2.415 0-4.796-.59-6.922-1.698-.042-.264-.078-.53-.078-.802 0-1.345.523-2.609 1.475-3.561l2.232-2.232c.391-.391.391-1.023 0-1.414l-4-4c-.391-.391-1.023-.391-1.414 0l-.586.586c-.713.713-1.699 1.121-2.707 1.121s-1.994-.408-2.707-1.121l-.191-.191c-.063-.56-.102-1.126-.102-1.688 0-3.41.505-6.779 1.456-10.044 3.288 3.221 7.696 5.044 12.355 5.044h2.379c4.658 0 9.066-1.823 12.355-5.044.95 3.265 1.455 6.634 1.455 10.044 0 8.271-6.729 15-15 15zm13-28h-26v-2h26zm-1.365 2c-2.855 2.558-6.55 4-10.445 4h-2.379c-3.895 0-7.591-1.442-10.445-4zm6.365 6c1.103 0 2 .897 2 2s-.897 2-2 2h-1.02c-.035-1.341-.14-2.675-.316-4zm-37-14.058c0-1.381.825-2.612 2.102-3.138l11.505-4.737c3.438-1.416 7.35-1.416 10.787 0l11.505 4.737c1.276.526 2.101 1.758 2.101 3.138 0 1.01-.445 1.96-1.222 2.606l-2.778 2.316v-.864c0-1.103-.897-2-2-2h-26c-1.103 0-2 .897-2 2v.864l-2.778-2.315c-.777-.647-1.222-1.597-1.222-2.607zm-1 16.058c0-1.103.897-2 2-2h1.336c-.176 1.325-.281 2.659-.316 4h-1.02c-1.103 0-2-.897-2-2zm-5.061 10.525-1.525-1.525 2.588-2.588c1.073 1.011 2.52 1.588 3.998 1.588s2.926-.577 4-1.589c1.074 1.012 2.522 1.589 4 1.589s2.925-.577 3.998-1.588l2.588 2.588-1.525 1.525c-.445.445-.817.943-1.123 1.475h-15.875c-.307-.531-.678-1.029-1.124-1.475zm0 9.95c1.33-1.329 2.061-3.096 2.061-4.975 0-.511-.059-1.012-.164-1.5h14.329c-.106.488-.165.989-.165 1.5 0 1.879.731 3.646 2.131 5.045.553.553.869 1.317.869 2.099 0 1.088-.593 2.086-1.547 2.606l-8.453 4.611-8.453-4.611c-.954-.521-1.547-1.519-1.547-2.606 0-.782.316-1.546.939-2.169zm-3.939 9.525c0-1.668.844-3.212 2.198-4.134.387.453.851.845 1.392 1.14l8.932 4.872c.148.081.313.122.478.122s.33-.041.479-.122l7.885-4.301 6.636 3.063v2.36h-28zm58 3h-28v-2.36l12.22-5.64h.78v2c0 1.103.897 2 2 2h6c1.103 0 2-.897 2-2v-2c2.757 0 5 2.243 5 5z"/><path d="m32 13c2.206 0 4-1.794 4-4s-1.794-4-4-4-4 1.794-4 4 1.794 4 4 4zm0-6c1.103 0 2 .897 2 2s-.897 2-2 2-2-.897-2-2 .897-2 2-2z"/></g></svg>