<svg id="Capa_1" enable-background="new 0 0 511 511" height="512" viewBox="0 0 511 511" width="512" xmlns="http://www.w3.org/2000/svg"><path d="m495.5 20.239h-480c-8.547 0-15.5 6.953-15.5 15.5v367.522c0 8.547 6.953 15.5 15.5 15.5h184.5v57h-32.5c-4.142 0-7.5 3.358-7.5 7.5s3.358 7.5 7.5 7.5h176c4.142 0 7.5-3.358 7.5-7.5s-3.358-7.5-7.5-7.5h-32.5v-57h184.5c8.547 0 15.5-6.953 15.5-15.5v-367.522c0-8.547-6.953-15.5-15.5-15.5zm-480 15h480c.276 0 .5.224.5.5v24.022h-80.022c-4.142 0-7.5 3.358-7.5 7.5s3.358 7.5 7.5 7.5h80.022v281h-481v-281h365.5c4.142 0 7.5-3.358 7.5-7.5s-3.358-7.5-7.5-7.5h-365.5v-24.022c0-.276.224-.5.5-.5zm280.5 440.522h-81v-57h81zm199.5-72h-480c-.276 0-.5-.224-.5-.5v-32.5h481v32.5c0 .276-.224.5-.5.5z"/><path d="m271.5 379.761h-32c-4.142 0-7.5 3.358-7.5 7.5s3.358 7.5 7.5 7.5h32c4.142 0 7.5-3.358 7.5-7.5s-3.358-7.5-7.5-7.5z"/><path d="m358.931 130.342c-.455-3.688-3.705-6.581-7.431-6.581h-128c-1.989 0-3.897.79-5.303 2.197l-63.999 63.999c-1.391 1.39-2.198 3.338-2.198 5.305v112c0 4.142 3.358 7.5 7.5 7.5h128c1.969 0 3.913-.806 5.305-2.198l63.999-63.999c1.407-1.406 2.197-3.314 2.197-5.303v-112c-.001-.294-.034-.628-.07-.92zm-132.325 8.419h106.787l-49 49h-106.787zm-59.606 64h113v97h-113zm177 37.394-49 49v-90.787l49-49z"/></svg>