<svg id="_x33_0" enable-background="new 0 0 64 64" height="512" viewBox="0 0 64 64" width="512" xmlns="http://www.w3.org/2000/svg"><g><path d="m60 7h-5v-4c0-1.103-.897-2-2-2h-35.414l-8.586 8.586v23.414h-5c-1.654 0-3 1.346-3 3v16c0 1.654 1.346 3 3 3h5v6c0 1.103.897 2 2 2h42c1.103 0 2-.897 2-2v-32h5c1.654 0 3-1.346 3-3v-16c0-1.654-1.346-3-3-3zm-43-2.586v4.586h-4.586zm-14 47.586v-16c0-.552.448-1 1-1h20c.552 0 1 .448 1 1v16c0 .552-.448 1-1 1h-7v3.586c0 .338-.469.531-.707.293l-3.879-3.879h-8.414c-.552 0-1-.448-1-1zm50 9h-42v-6h.586l3.293 3.293c.449.449 1.071.707 1.707.707 1.331 0 2.414-1.083 2.414-2.414v-1.586h5c1.654 0 3-1.346 3-3v-16c0-1.654-1.346-3-3-3h-13v-22h6c1.103 0 2-.897 2-2v-6h34v4h-13c-1.654 0-3 1.346-3 3v16c0 1.654 1.346 3 3 3h5v1.586c0 1.331 1.083 2.414 2.414 2.414.636 0 1.258-.258 1.707-.707l3.293-3.293h.586zm8-35c0 .552-.448 1-1 1h-8.414l-3.879 3.879c-.237.239-.707.045-.707-.293v-3.586h-7c-.552 0-1-.448-1-1v-16c0-.552.448-1 1-1h20c.552 0 1 .448 1 1z"/><path d="m51 13.184v-2.184h-2v2h-2v3c0 1.654 1.346 3 3 3 .552 0 1 .448 1 1v1h-1c-.552 0-1-.448-1-1v-1h-2v1c0 1.302.839 2.402 2 2.816v2.184h2v-2h2v-3c0-1.654-1.346-3-3-3-.552 0-1-.448-1-1v-1h1c.552 0 1 .448 1 1v1h2v-1c0-1.302-.839-2.402-2-2.816z"/><path d="m16 51h1v-2h-1c-1.302 0-2.402-.839-2.816-2h1.816v-2h-2v-2h2v-2h-1.816c.414-1.161 1.514-2 2.816-2h1v-2h-1c-2.414 0-4.434 1.721-4.899 4h-2.101v2h2v2h-2v2h2.101c.465 2.279 2.485 4 4.899 4z"/><path d="m35 7h-6v20h-2v-16h-6v16h-2v-12h-6v14h22zm-18 20h-2v-10h2zm6-14h2v14h-2zm10 14h-2v-18h2z"/><path d="m29 33h13v2h-13z"/><path d="m45 57h-2v-8h-6v8h-2v-12h-6v14h22v-18h-6zm-12 0h-2v-10h2zm6-6h2v6h-2zm8-8h2v14h-2z"/><path d="m29 37h13v2h-13z"/></g></svg>