<?xml version="1.0" encoding="iso-8859-1"?>
<!-- Generator: Adobe Illustrator 19.0.0, SVG Export Plug-In . SVG Version: 6.00 Build 0)  -->
<svg version="1.1" id="Capa_1" xmlns="http://www.w3.org/2000/svg" xmlns:xlink="http://www.w3.org/1999/xlink" x="0px" y="0px"
	 viewBox="0 0 496 496" style="enable-background:new 0 0 496 496;" xml:space="preserve">
<g>
	<g>
		<path d="M456,128h-24V0H64v128H40c-22.056,0-40,17.944-40,40v240c0,22.056,17.944,40,40,40h111.416
			c-1.264,11.24-5.048,22.024-11.384,31.528L139.72,480H112v16h272v-16h-27.72l-0.312-0.472
			c-6.336-9.504-10.112-20.296-11.384-31.528H456c22.056,0,40-17.944,40-40V168C496,145.944,478.056,128,456,128z M80,16h336v48H80
			V16z M158.232,480c5.16-9.976,8.336-20.8,9.36-32h160.816c1.024,11.2,4.208,22.024,9.36,32H158.232z M480,408
			c0,13.232-10.768,24-24,24H40c-13.232,0-24-10.768-24-24v-8h464V408z M480,384H16V168c0-13.232,10.768-24,24-24h24v224h368V176
			h-16v176H80V80h336v80h16v-16h24c13.232,0,24,10.768,24,24V384z"/>
	</g>
</g>
<g>
	<g>
		<path d="M96,128v176h176V128H96z M256,288H112V144h144V288z"/>
	</g>
</g>
<g>
	<g>
		<path d="M144,171.056v89.888L233.888,216L144,171.056z M160,196.944L198.112,216L160,235.056V196.944z"/>
	</g>
</g>
<g>
	<g>
		<path d="M288,96v112h112V96H288z M384,192h-80v-80h80V192z"/>
	</g>
</g>
<g>
	<g>
		<path d="M288,224v112h112V224H288z M384,320h-80v-80h80V320z"/>
	</g>
</g>
<g>
	<g>
		<rect x="96" y="32" width="16" height="16"/>
	</g>
</g>
<g>
	<g>
		<rect x="128" y="32" width="16" height="16"/>
	</g>
</g>
<g>
	<g>
		<rect x="160" y="32" width="16" height="16"/>
	</g>
</g>
<g>
</g>
<g>
</g>
<g>
</g>
<g>
</g>
<g>
</g>
<g>
</g>
<g>
</g>
<g>
</g>
<g>
</g>
<g>
</g>
<g>
</g>
<g>
</g>
<g>
</g>
<g>
</g>
<g>
</g>
</svg>
