<svg id="Icons" height="512" viewBox="0 0 60 60" width="512" xmlns="http://www.w3.org/2000/svg"><rect fill="#4b95ff" height="50" rx="3" width="58" x="1" y="1"/><rect fill="#fff" height="50" rx="1" transform="matrix(0 1 -1 0 58 -2)" width="38" x="11" y="3"/><path d="m50 59h-48a1 1 0 0 1 0-2h48a1 1 0 0 0 0-2h-30a9.01 9.01 0 0 1 -9-9v-10a9.01 9.01 0 0 1 9-9h2a1 1 0 0 1 0 2h-2a7.009 7.009 0 0 0 -7 7v10a7.009 7.009 0 0 0 7 7h30a3 3 0 0 1 0 6z" fill="#35718a"/><path d="m35 22h9a2 2 0 0 1 2 2 2 2 0 0 1 -2 2h-9a0 0 0 0 1 0 0v-4a0 0 0 0 1 0 0z" fill="#bfdbf0"/><path d="m35 30h9a2 2 0 0 1 2 2 2 2 0 0 1 -2 2h-9a0 0 0 0 1 0 0v-4a0 0 0 0 1 0 0z" fill="#bfdbf0"/><path d="m25.649 31h-2.649a1 1 0 0 1 -1-1v-4a1 1 0 0 1 1-1h2.649a1 1 0 0 0 .625-.219l4.178-3.343a2 2 0 0 1 1.248-.438h3.3a1 1 0 0 1 1 1v12a1 1 0 0 1 -1 1h-3.3a2 2 0 0 1 -1.25-.438l-4.178-3.343a1 1 0 0 0 -.623-.219z" fill="#9ebbce"/><g fill="#fff"><path d="m7 6h-1a1 1 0 0 1 0-2h1a1 1 0 0 1 0 2z"/><path d="m12 6h-1a1 1 0 0 1 0-2h1a1 1 0 0 1 0 2z"/><path d="m17 6h-1a1 1 0 0 1 0-2h1a1 1 0 0 1 0 2z"/><path d="m54 6h-6a1 1 0 0 1 0-2h6a1 1 0 0 1 0 2z"/></g></svg>