<svg id="Capa_1" enable-background="new 0 0 511 511" height="512" viewBox="0 0 511 511" width="512" xmlns="http://www.w3.org/2000/svg"><path d="m495.5 20.239h-480c-8.547 0-15.5 6.953-15.5 15.5v367.522c0 8.547 6.953 15.5 15.5 15.5h184.5v57h-32.5c-4.142 0-7.5 3.357-7.5 7.5s3.358 7.5 7.5 7.5h176c4.142 0 7.5-3.357 7.5-7.5s-3.358-7.5-7.5-7.5h-32.5v-57h184.5c8.547 0 15.5-6.953 15.5-15.5v-367.522c0-8.547-6.953-15.5-15.5-15.5zm-480 15h480c.276 0 .5.225.5.5v24.022h-48.5c-4.142 0-7.5 3.357-7.5 7.5s3.358 7.5 7.5 7.5h48.5v281h-481v-281h396.283c4.142 0 7.5-3.357 7.5-7.5s-3.358-7.5-7.5-7.5h-396.283v-24.022c0-.276.224-.5.5-.5zm280.5 440.522h-81v-57h81zm199.5-72h-480c-.276 0-.5-.225-.5-.5v-32.5h481v32.5c0 .276-.224.5-.5.5z"/><path d="m271.5 379.761h-32c-4.142 0-7.5 3.357-7.5 7.5s3.358 7.5 7.5 7.5h32c4.142 0 7.5-3.357 7.5-7.5s-3.358-7.5-7.5-7.5z"/><path d="m116.803 102.435c-2.145-2.145-5.371-2.786-8.173-1.625-2.803 1.16-4.63 3.896-4.63 6.929v216c0 4.143 3.358 7.5 7.5 7.5h216c3.034 0 5.768-1.827 6.929-4.63s.519-6.028-1.626-8.174zm170.197 213.804v-8.5c0-4.143-3.358-7.5-7.5-7.5s-7.5 3.357-7.5 7.5v8.5h-17v-8.5c0-4.143-3.358-7.5-7.5-7.5s-7.5 3.357-7.5 7.5v8.5h-17v-8.5c0-4.143-3.358-7.5-7.5-7.5s-7.5 3.357-7.5 7.5v8.5h-17v-8.5c0-4.143-3.358-7.5-7.5-7.5s-7.5 3.357-7.5 7.5v8.5h-17v-8.5c0-4.143-3.358-7.5-7.5-7.5s-7.5 3.357-7.5 7.5v8.5h-25v-25h8.5c4.142 0 7.5-3.357 7.5-7.5s-3.358-7.5-7.5-7.5h-8.5v-17h8.5c4.142 0 7.5-3.357 7.5-7.5s-3.358-7.5-7.5-7.5h-8.5v-17h8.5c4.142 0 7.5-3.357 7.5-7.5s-3.358-7.5-7.5-7.5h-8.5v-17h8.5c4.142 0 7.5-3.357 7.5-7.5s-3.358-7.5-7.5-7.5h-8.5v-17h8.5c4.142 0 7.5-3.357 7.5-7.5s-3.358-7.5-7.5-7.5h-8.5v-22.394l190.394 190.394z"/><path d="m151.5 291.239h79.432c3.034 0 5.768-1.827 6.929-4.63s.519-6.028-1.626-8.174l-79.432-79.432c-2.145-2.145-5.372-2.786-8.173-1.625-2.803 1.16-4.63 3.896-4.63 6.929v79.432c0 4.142 3.358 7.5 7.5 7.5zm7.5-68.825 53.825 53.825h-53.825z"/><path d="m400.117 291.122-165.3-165.3c-.526-.526-1.168-1.017-1.837-1.348l-51.334-27.715c-2.913-1.573-6.618-1.009-8.93 1.36-2.311 2.368-2.787 6.087-1.144 8.961l28.802 50.394c.327.568.745 1.119 1.208 1.582l165.3 165.3c4.438 4.438 10.34 6.883 16.617 6.883s12.179-2.444 16.617-6.883c4.438-4.438 6.883-10.34 6.883-16.617s-2.444-12.179-6.882-16.617zm-191.591-149.616-10.903-19.075 19.467 10.511zm8.967 12.246 12.021-12.021 136.472 136.472-12.02 12.02zm172.017 159.998c-1.605 1.605-3.74 2.489-6.01 2.489s-4.404-.884-6.01-2.489c0 0 0 0 0-.001l-12.918-12.918 12.02-12.02 12.919 12.918c1.605 1.605 2.49 3.739 2.49 6.01s-.885 4.404-2.491 6.011z"/><path d="m359.452 225.042c1.406 1.406 3.314 2.196 5.303 2.196s3.897-.79 5.303-2.196l33.941-33.941c2.929-2.93 2.929-7.678 0-10.607l-62.225-62.226c-12.282-12.281-32.267-12.282-44.548.001-9.266 9.265-11.84 23.747-6.273 35.628 1.551 3.31 3.689 6.335 6.273 8.92zm5.303-15.91-34.648-34.648 23.334-23.335 34.648 34.648zm-56.922-80.257c3.217-3.217 7.441-4.825 11.667-4.825 4.225 0 8.451 1.608 11.667 4.825l11.667 11.667-23.334 23.335-11.667-11.667c-3.116-3.116-4.833-7.26-4.833-11.667s1.716-8.551 4.833-11.668z"/></svg>