<svg height="512" viewBox="0 0 512 512" width="512" xmlns="http://www.w3.org/2000/svg" xmlns:xlink="http://www.w3.org/1999/xlink"><linearGradient id="a" gradientUnits="userSpaceOnUse" x1="-.373" x2="507.447" y1="512.373" y2="4.553" data-name="New Gradient Swatch 1"><stop offset="0" stop-color="#003f8a"/><stop offset=".518" stop-color="#00d7df"/><stop offset="1" stop-color="#006df0"/></linearGradient><linearGradient id="b" x1="-194.373" x2="313.447" xlink:href="#a" y1="318.373" y2="-189.447"/><linearGradient id="c" x1="-178.373" x2="329.447" xlink:href="#a" y1="334.373" y2="-173.447"/><linearGradient id="d" x1="-162.373" x2="345.447" xlink:href="#a" y1="350.373" y2="-157.447"/><linearGradient id="e" x1="-36.373" x2="471.447" xlink:href="#a" y1="476.373" y2="-31.447"/><linearGradient id="f" x1="11.627" x2="519.447" xlink:href="#a" y1="524.373" y2="16.553"/><linearGradient id="g" x1="59.627" x2="567.447" xlink:href="#a" y1="572.373" y2="64.553"/><linearGradient id="j" x1="107.627" x2="615.447" xlink:href="#a" y1="620.373" y2="112.553"/><linearGradient id="k" x1="-84.373" x2="423.447" xlink:href="#a" y1="428.373" y2="-79.447"/><g><path d="m476 48h-440a28.031 28.031 0 0 0 -28 28v360a28.031 28.031 0 0 0 28 28h440a28.031 28.031 0 0 0 28-28v-360a28.031 28.031 0 0 0 -28-28zm12 388a12.01 12.01 0 0 1 -12 12h-440a12.01 12.01 0 0 1 -12-12v-324h464zm0-340h-464v-20a12.01 12.01 0 0 1 12-12h440a12.01 12.01 0 0 1 12 12z" fill="url(#a)"/><path d="m40 88h8a8 8 0 0 0 0-16h-8a8 8 0 0 0 0 16z" fill="url(#b)"/><path d="m72 88h8a8 8 0 0 0 0-16h-8a8 8 0 0 0 0 16z" fill="url(#c)"/><path d="m104 88h8a8 8 0 0 0 0-16h-8a8 8 0 0 0 0 16z" fill="url(#d)"/><path d="m276 144h-40a20.023 20.023 0 0 0 -20 20v40a20.023 20.023 0 0 0 20 20h40a20.023 20.023 0 0 0 20-20v-40a20.023 20.023 0 0 0 -20-20zm4 60a4 4 0 0 1 -4 4h-40a4 4 0 0 1 -4-4v-40a4 4 0 0 1 4-4h40a4 4 0 0 1 4 4z" fill="url(#e)"/><path d="m276 240h-40a20.023 20.023 0 0 0 -20 20v40a20.023 20.023 0 0 0 20 20h40a20.023 20.023 0 0 0 20-20v-40a20.023 20.023 0 0 0 -20-20zm4 60a4 4 0 0 1 -4 4h-40a4 4 0 0 1 -4-4v-40a4 4 0 0 1 4-4h40a4 4 0 0 1 4 4z" fill="url(#f)"/><path d="m276 336h-40a20.023 20.023 0 0 0 -20 20v40a20.023 20.023 0 0 0 20 20h40a20.023 20.023 0 0 0 20-20v-40a20.023 20.023 0 0 0 -20-20zm4 60a4 4 0 0 1 -4 4h-40a4 4 0 0 1 -4-4v-40a4 4 0 0 1 4-4h40a4 4 0 0 1 4 4z" fill="url(#g)"/><path d="m372 144h-40a20.023 20.023 0 0 0 -20 20v40a20.023 20.023 0 0 0 20 20h40a20.023 20.023 0 0 0 20-20v-40a20.023 20.023 0 0 0 -20-20zm4 60a4 4 0 0 1 -4 4h-40a4 4 0 0 1 -4-4v-40a4 4 0 0 1 4-4h40a4 4 0 0 1 4 4z" fill="url(#f)"/><path d="m372 240h-40a20.023 20.023 0 0 0 -20 20v40a20.023 20.023 0 0 0 20 20h40a20.023 20.023 0 0 0 20-20v-40a20.023 20.023 0 0 0 -20-20zm4 60a4 4 0 0 1 -4 4h-40a4 4 0 0 1 -4-4v-40a4 4 0 0 1 4-4h40a4 4 0 0 1 4 4z" fill="url(#g)"/><path d="m372 336h-40a20.023 20.023 0 0 0 -20 20v40a20.023 20.023 0 0 0 20 20h40a20.023 20.023 0 0 0 20-20v-40a20.023 20.023 0 0 0 -20-20zm4 60a4 4 0 0 1 -4 4h-40a4 4 0 0 1 -4-4v-40a4 4 0 0 1 4-4h40a4 4 0 0 1 4 4z" fill="url(#j)"/><path d="m180 144h-40a20.023 20.023 0 0 0 -20 20v40a20.023 20.023 0 0 0 20 20h40a20.023 20.023 0 0 0 20-20v-40a20.023 20.023 0 0 0 -20-20zm4 60a4 4 0 0 1 -4 4h-40a4 4 0 0 1 -4-4v-40a4 4 0 0 1 4-4h40a4 4 0 0 1 4 4z" fill="url(#k)"/><path d="m180 240h-40a20.023 20.023 0 0 0 -20 20v40a20.023 20.023 0 0 0 20 20h40a20.023 20.023 0 0 0 20-20v-40a20.023 20.023 0 0 0 -20-20zm4 60a4 4 0 0 1 -4 4h-40a4 4 0 0 1 -4-4v-40a4 4 0 0 1 4-4h40a4 4 0 0 1 4 4z" fill="url(#e)"/><path d="m180 336h-40a20.023 20.023 0 0 0 -20 20v40a20.023 20.023 0 0 0 20 20h40a20.023 20.023 0 0 0 20-20v-40a20.023 20.023 0 0 0 -20-20zm4 60a4 4 0 0 1 -4 4h-40a4 4 0 0 1 -4-4v-40a4 4 0 0 1 4-4h40a4 4 0 0 1 4 4z" fill="url(#f)"/></g></svg>