<svg id="Layer_1" enable-background="new 0 0 512 512" height="512" viewBox="0 0 512 512" width="512" xmlns="http://www.w3.org/2000/svg"><g><path d="m159.794 316.956 38.578-50.021c7.356-9.217-6.704-15.712-17.095-15.843-4.851 0-7.854 1.958-10.164 4.985l-31.416 43.612-31.416-43.612c-2.079-3.026-5.313-4.984-9.934-4.984-10.389.131-24.45 6.625-17.094 15.843l38.577 50.021-39.964 50.199c-7.004 8.878 8.465 15.725 17.787 15.843 3.696 0 6.699-1.602 8.317-3.738l33.727-45.749 33.957 45.749c6.282 9.671 34.737-1.497 26.104-12.104z"/><path d="m304.859 361.814h-56.365v-102.71c.056-9.583-30.224-9.563-30.03 0v115.706c0 4.806 6.468 7.298 13.167 7.298h73.229c12.027-.059 11.995-20.352-.001-20.294z"/><path d="m356.138 284.559c0-8.544 9.472-13.707 26.104-13.707 19.404 0 24.718 6.765 31.879 6.765 8.315 0 12.012-8.188 12.012-12.283 0-11.749-30.262-14.241-43.891-14.241-26.565 0-56.134 9.078-56.134 35.602 0 42.188 74.152 34 74.152 60.701 0 10.681-12.013 15.487-25.872 15.487-23.562 0-29.8-13.707-39.271-13.707-7.161 0-13.168 7.477-13.168 12.461 4.903 27.876 109.646 36.409 108.34-16.555.001-46.104-74.151-38.45-74.151-60.523z"/><path d="m467 185.805h-14.7v-45.999c0-4.017-1.61-7.865-4.472-10.684l-126.651-124.806c-2.807-2.766-6.588-4.316-10.529-4.316h-235.648c-8.284 0-15 6.716-15 15v170.805h-15c-24.813 0-45 20.187-45 45v175.195c0 24.813 20.187 45 45 45h15v46c0 8.284 6.716 15 15 15h362.3c8.284 0 15-6.716 15-15v-46h14.7c24.813 0 45-20.187 45-45v-175.195c0-24.813-20.187-45-45-45zm-141.352-134.965 75.059 73.966h-60.059c-8.271 0-15-6.729-15-15zm-235.648-20.84h205.648v79.806c0 24.813 20.187 45 45 45h81.652v30.999h-332.3zm332.3 452h-332.3v-31h332.3zm59.7-76c0 8.271-6.729 15-15 15h-422c-8.271 0-15-6.729-15-15v-175.195c0-8.271 6.729-15 15-15h422c8.271 0 15 6.729 15 15z"/></g></svg>