<svg id="Icons" height="512" viewBox="0 0 60 60" width="512" xmlns="http://www.w3.org/2000/svg"><path d="m54.73 14.86a2.07 2.07 0 0 0 -.75-.72l-23-12.88a1.961 1.961 0 0 0 -1.96 0l-23 12.88a2.07 2.07 0 0 0 -.75.72 2.1 2.1 0 0 0 -.27 1.02v28.24a2.009 2.009 0 0 0 1.02 1.75l23 12.88a2.046 2.046 0 0 0 1.96 0l23-12.88a2.009 2.009 0 0 0 1.02-1.75v-28.24a2.1 2.1 0 0 0 -.27-1.02z" fill="#42838e"/><path d="m54.73 14.86-24.73 13.85-24.73-13.85a2.07 2.07 0 0 1 .75-.72l23-12.88a1.961 1.961 0 0 1 1.96 0l23 12.88a2.07 2.07 0 0 1 .75.72z" fill="#347584"/><path d="m55 15.88v28.24a2.009 2.009 0 0 1 -1.02 1.75l-23 12.88a1.985 1.985 0 0 1 -.98.25v-30.29l24.73-13.85a2.1 2.1 0 0 1 .27 1.02z" fill="#266677"/><path d="m9 43a1 1 0 0 1 -1-1v-20a1 1 0 0 1 2 0v20a1 1 0 0 1 -1 1z" fill="#51949b"/><g fill="#42838e"><path d="m18.02 13a1 1 0 0 1 -.49-1.873l11.981-6.709a1 1 0 1 1 .978 1.745l-11.981 6.71a1 1 0 0 1 -.488.127z"/><path d="m14 15.25a1 1 0 0 1 -.489-1.872l.447-.251a1 1 0 0 1 .977 1.746l-.448.25a1 1 0 0 1 -.487.127z"/></g></svg>