<svg id="Icons" height="512" viewBox="0 0 60 60" width="512" xmlns="http://www.w3.org/2000/svg"><path d="m25.293 18.293-.293.293v-6.586h-2v6.586l-.293-.293a1 1 0 0 0 -1.414 1.414l2 2a1 1 0 0 0 1.414 0l2-2a1 1 0 0 0 -1.414-1.414z" fill="#3fdab1"/><path d="m38.707 18.293a1 1 0 0 0 -1.414 0l-.293.293v-6.586h-2v6.586l-.293-.293a1 1 0 0 0 -1.414 1.414l2 2a1 1 0 0 0 1.414 0l2-2a1 1 0 0 0 0-1.414z" fill="#3fdab1"/><path d="m36.87 4.93a1.01 1.01 0 0 0 -.37-.37l-6-3.43a1.044 1.044 0 0 0 -1 0l-6 3.43a1.01 1.01 0 0 0 -.37.37 1.063 1.063 0 0 0 -.13.5v7.14a1 1 0 0 0 .5.87l6 3.43a1.027 1.027 0 0 0 1 0l6-3.43a1 1 0 0 0 .5-.87v-7.14a1.063 1.063 0 0 0 -.13-.5z" fill="#42838e"/><path d="m37 5.43v7.14a1 1 0 0 1 -.5.87l-6 3.43a1.009 1.009 0 0 1 -.5.13v-8.15l6.87-3.92a1.063 1.063 0 0 1 .13.5z" fill="#266677"/><path d="m36.87 4.93-6.87 3.92-6.87-3.92a1.01 1.01 0 0 1 .37-.37l6-3.43a1.044 1.044 0 0 1 1 0l6 3.43a1.01 1.01 0 0 1 .37.37z" fill="#347584"/><path d="m53.89 37.08a1.029 1.029 0 0 0 -.34-.38l-5.55-3.7v-6.67a.993.993 0 0 0 -.05-.3 1.048 1.048 0 0 0 -.4-.53l-5-3.33a.963.963 0 0 0 -1.1 0l-5.45 3.63-5.45-3.63a.963.963 0 0 0 -1.1 0l-5.45 3.63-5.45-3.63a.963.963 0 0 0 -1.1 0l-5 3.33a1.048 1.048 0 0 0 -.4.53.993.993 0 0 0 -.05.3v6.67l-5.55 3.7a1 1 0 0 0 -.45.84v5.92a1.013 1.013 0 0 0 .45.84l5.55 3.7v6.66a1.017 1.017 0 0 0 .45.85l5 3.33a1.025 1.025 0 0 0 1.1 0l5.45-3.84 5.45 3.83a.975.975 0 0 0 1.1 0l5.45-3.63 5.45 3.63a.975.975 0 0 0 1.1 0l5-3.33a1.008 1.008 0 0 0 .45-.83v-6.67l5.55-3.7a1.013 1.013 0 0 0 .45-.84v-5.92a1.039 1.039 0 0 0 -.11-.46z" fill="#42838e"/><path d="m54 37.54v5.92a1.013 1.013 0 0 1 -.45.84l-5.55 3.7v-7l5.89-3.92a1.039 1.039 0 0 1 .11.46z" fill="#266677"/><path d="m53.89 37.08-5.89 3.92-6-4 6-4 5.55 3.7a1.029 1.029 0 0 1 .34.38z" fill="#347584"/><path d="m42 37v7l-6 4v-7z" fill="#266677"/><path d="m48 48v6.67a1.008 1.008 0 0 1 -.45.83l-5 3.33a1.016 1.016 0 0 1 -.55.17v-7z" fill="#266677"/><path d="m48 48-6 4-6-4 6-4z" fill="#347584"/><path d="m36 48v7.2l-5.45 3.63a1.016 1.016 0 0 1 -.55.17v-7z" fill="#266677"/><path d="m36 48-6 4-6-4 6-4z" fill="#347584"/><path d="m24 48v7l-5.45 3.84a1.1 1.1 0 0 1 -.55.16v-7z" fill="#266677"/><path d="m24 48-6 4-6-4 6-4z" fill="#347584"/><path d="m48 26.33v6.67l-6 4v-7.2l5.95-3.77a.993.993 0 0 1 .05.3z" fill="#266677"/><g fill="#347584"><path d="m47.95 26.03-5.95 3.77-6-3.8v-.2l5.45-3.63a.963.963 0 0 1 1.1 0l5 3.33a1.048 1.048 0 0 1 .4.53z"/><path d="m42 37-6 4-6-4 6-4z"/><path d="m36 25.8v.2l-6 3.8-6-3.8v-.2l5.45-3.63a.963.963 0 0 1 1.1 0z"/></g><path d="m30 37v7l-6 4v-7z" fill="#266677"/><path d="m30 37-6 4-6-4 6-4z" fill="#347584"/><path d="m36 26v7l-6 4v-7.2z" fill="#266677"/><path d="m24 25.8v.2l-6 3.8-5.95-3.77a1.048 1.048 0 0 1 .4-.53l5-3.33a.963.963 0 0 1 1.1 0z" fill="#347584"/><path d="m24 26v7l-6 4v-7.2z" fill="#266677"/><path d="m18 37v7l-6 4v-7z" fill="#266677"/><path d="m18 37-6 4-5.89-3.92a1.029 1.029 0 0 1 .34-.38l5.55-3.7z" fill="#347584"/></svg>