<svg id="Icons" height="512" viewBox="0 0 60 60" width="512" xmlns="http://www.w3.org/2000/svg"><path d="m26.86 12.207a.965.965 0 0 0 -.39-.38l-11.96-6.7a1.078 1.078 0 0 0 -1.02 0l-11.96 6.7a.965.965 0 0 0 -.39.38 1.082 1.082 0 0 0 -.14.531v14.52a1.03 1.03 0 0 0 .53.91l11.96 6.7a1.065 1.065 0 0 0 1.02 0l11.96-6.7a1.03 1.03 0 0 0 .53-.91v-14.52a1.082 1.082 0 0 0 -.14-.531z" fill="#42838e"/><path d="m27 12.74v14.52a1.03 1.03 0 0 1 -.53.91l-11.96 6.7a1.019 1.019 0 0 1 -.51.13v-15.59l12.86-7.2a1.076 1.076 0 0 1 .14.53z" fill="#266677"/><path d="m26.86 12.21-12.86 7.2-12.86-7.2a.952.952 0 0 1 .39-.38l11.96-6.7a1.084 1.084 0 0 1 1.02 0l11.96 6.7a.952.952 0 0 1 .39.38z" fill="#347584"/><path d="m58.86 12.21a.952.952 0 0 0 -.39-.38l-11.96-6.7a1.084 1.084 0 0 0 -1.02 0l-11.96 6.7a.952.952 0 0 0 -.39.38 1.076 1.076 0 0 0 -.14.53v14.52a1.03 1.03 0 0 0 .53.91l11.96 6.7a1.065 1.065 0 0 0 1.02 0l11.96-6.7a1.03 1.03 0 0 0 .53-.91v-14.52a1.076 1.076 0 0 0 -.14-.53z" fill="#42838e"/><path d="m59 12.74v14.52a1.03 1.03 0 0 1 -.53.91l-11.96 6.7a1.019 1.019 0 0 1 -.51.13v-15.59l12.86-7.2a1.076 1.076 0 0 1 .14.53z" fill="#266677"/><path d="m58.86 12.21-12.86 7.2-12.86-7.2a.952.952 0 0 1 .39-.38l11.96-6.7a1.084 1.084 0 0 1 1.02 0l11.96 6.7a.952.952 0 0 1 .39.38z" fill="#347584"/><path d="m42.86 32.207a.965.965 0 0 0 -.39-.38l-11.96-6.7a1.078 1.078 0 0 0 -1.02 0l-11.96 6.7a.965.965 0 0 0 -.39.38 1.082 1.082 0 0 0 -.14.531v14.52a1.03 1.03 0 0 0 .53.91l11.96 6.7a1.065 1.065 0 0 0 1.02 0l11.96-6.7a1.03 1.03 0 0 0 .53-.91v-14.52a1.082 1.082 0 0 0 -.14-.531z" fill="#42838e"/><path d="m43 32.738v14.52a1.03 1.03 0 0 1 -.53.91l-11.96 6.7a1.03 1.03 0 0 1 -.51.132v-15.593l12.86-7.2a1.082 1.082 0 0 1 .14.531z" fill="#266677"/><path d="m42.86 32.207-12.86 7.2-12.86-7.2a.965.965 0 0 1 .39-.38l11.96-6.7a1.078 1.078 0 0 1 1.02 0l11.96 6.7a.965.965 0 0 1 .39.38z" fill="#347584"/><path d="m9 13.231a1 1 0 0 1 -.489-1.872l5-2.8a1 1 0 0 1 .976 1.745l-5 2.8a1 1 0 0 1 -.487.127z" fill="#42838e"/><path d="m5 26.526a1 1 0 0 1 -1-1v-6.526a1 1 0 0 1 2 0v6.528a1 1 0 0 1 -1 .998z" fill="#51949b"/><path d="m41 13.231a1 1 0 0 1 -.489-1.872l5-2.8a1 1 0 0 1 .976 1.745l-5 2.8a1 1 0 0 1 -.487.127z" fill="#42838e"/><path d="m37 26.528a1 1 0 0 1 -1-1v-6.528a1 1 0 0 1 2 0v6.528a1 1 0 0 1 -1 1z" fill="#51949b"/><path d="m25 33.229a1 1 0 0 1 -.489-1.872l5-2.8a1 1 0 1 1 .976 1.745l-5 2.8a.988.988 0 0 1 -.487.127z" fill="#42838e"/><path d="m21 46.526a1 1 0 0 1 -1-1v-6.526a1 1 0 0 1 2 0v6.528a1 1 0 0 1 -1 .998z" fill="#51949b"/></svg>