<svg id="Icons" height="512" viewBox="0 0 60 60" width="512" xmlns="http://www.w3.org/2000/svg"><g fill="#266677"><path d="m19 11.337h2v9.327h-2z" transform="matrix(.514 -.858 .858 .514 -4.006 24.929)"/><path d="m34.171 15h11.658v2h-11.658z" transform="matrix(.858 -.514 .514 .858 -2.538 22.821)"/><path d="m39.145 22.426h2v11.317h-2z" transform="matrix(.514 -.858 .858 .514 -4.573 48.102)"/><path d="m13.858 27.085h11.993v2h-11.993z" transform="matrix(.858 -.514 .514 .858 -11.606 14.185)"/><path d="m18.855 39.084h2.001v9.662h-2.001z" transform="matrix(.514 -.858 .858 .514 -28.023 38.394)"/><path d="m35.314 42.915h9.662v2.001h-9.662z" transform="matrix(.858 -.513 .513 .858 -16.853 26.846)"/></g><path d="m18.94 9.03a1.049 1.049 0 0 0 -.6-.82l-.61-.26a7.96 7.96 0 0 0 -.82-1.97l.25-.61a1.027 1.027 0 0 0 -.15-1 6.4 6.4 0 0 0 -.65-.73 6.4 6.4 0 0 0 -.73-.65 1.027 1.027 0 0 0 -1-.15l-.61.25a7.96 7.96 0 0 0 -1.97-.82l-.26-.61a1.049 1.049 0 0 0 -.82-.6 7.871 7.871 0 0 0 -1.94 0 1.049 1.049 0 0 0 -.82.6l-.26.61a7.96 7.96 0 0 0 -1.97.82l-.61-.25a1.027 1.027 0 0 0 -1 .15 6.4 6.4 0 0 0 -.73.65 6.4 6.4 0 0 0 -.65.73 1.027 1.027 0 0 0 -.15 1l.25.61a7.96 7.96 0 0 0 -.82 1.97l-.61.26a1.049 1.049 0 0 0 -.6.82 7.871 7.871 0 0 0 0 1.94 1.049 1.049 0 0 0 .6.82l.61.26a7.96 7.96 0 0 0 .82 1.97l-.25.61a1.027 1.027 0 0 0 .15 1 6.4 6.4 0 0 0 .65.73 6.4 6.4 0 0 0 .73.65 1.027 1.027 0 0 0 1 .15l.61-.25a7.96 7.96 0 0 0 1.97.82l.26.61a1.049 1.049 0 0 0 .82.6 7.871 7.871 0 0 0 1.94 0 1.049 1.049 0 0 0 .82-.6l.26-.61a7.96 7.96 0 0 0 1.97-.82l.61.25a1.027 1.027 0 0 0 1-.15 6.4 6.4 0 0 0 .73-.65 6.4 6.4 0 0 0 .65-.73 1.027 1.027 0 0 0 .15-1l-.25-.61a7.96 7.96 0 0 0 .82-1.97l.61-.26a1.049 1.049 0 0 0 .6-.82 7.871 7.871 0 0 0 0-1.94zm-8.94 4.97a4 4 0 1 1 4-4 4 4 0 0 1 -4 4z" fill="#ccd0da"/><path d="m38.94 21.03a1.049 1.049 0 0 0 -.6-.82l-.61-.26a7.96 7.96 0 0 0 -.82-1.97l.25-.61a1.027 1.027 0 0 0 -.15-1 8.445 8.445 0 0 0 -1.38-1.38 1.027 1.027 0 0 0 -1-.15l-.61.25a7.96 7.96 0 0 0 -1.97-.82l-.26-.61a1.049 1.049 0 0 0 -.82-.6 7.871 7.871 0 0 0 -1.94 0 1.049 1.049 0 0 0 -.82.6l-.26.61a7.96 7.96 0 0 0 -1.97.82l-.61-.25a1.027 1.027 0 0 0 -1 .15 8.445 8.445 0 0 0 -1.38 1.38 1.027 1.027 0 0 0 -.15 1l.25.61a7.96 7.96 0 0 0 -.82 1.97l-.61.26a1.049 1.049 0 0 0 -.6.82 7.871 7.871 0 0 0 0 1.94 1.049 1.049 0 0 0 .6.82l.61.26a7.96 7.96 0 0 0 .82 1.97l-.25.61a1.027 1.027 0 0 0 .15 1 8.445 8.445 0 0 0 1.38 1.38 1.027 1.027 0 0 0 1 .15l.61-.25a7.96 7.96 0 0 0 1.97.82l.26.61a1.049 1.049 0 0 0 .82.6 7.871 7.871 0 0 0 1.94 0 1.049 1.049 0 0 0 .82-.6l.26-.61a7.96 7.96 0 0 0 1.97-.82l.61.25a1.027 1.027 0 0 0 1-.15 8.445 8.445 0 0 0 1.38-1.38 1.027 1.027 0 0 0 .15-1l-.25-.61a7.96 7.96 0 0 0 .82-1.97l.61-.26a1.049 1.049 0 0 0 .6-.82 7.871 7.871 0 0 0 0-1.94zm-8.94 4.97a4 4 0 1 1 4-4 4 4 0 0 1 -4 4z" fill="#ccd0da"/><path d="m58.94 9.03a1.049 1.049 0 0 0 -.6-.82l-.61-.26a7.96 7.96 0 0 0 -.82-1.97l.25-.61a1.027 1.027 0 0 0 -.15-1 6.4 6.4 0 0 0 -.65-.73 6.4 6.4 0 0 0 -.73-.65 1.027 1.027 0 0 0 -1-.15l-.61.25a7.96 7.96 0 0 0 -1.97-.82l-.26-.61a1.049 1.049 0 0 0 -.82-.6 7.871 7.871 0 0 0 -1.94 0 1.049 1.049 0 0 0 -.82.6l-.26.61a7.96 7.96 0 0 0 -1.97.82l-.61-.25a1.027 1.027 0 0 0 -1 .15 6.4 6.4 0 0 0 -.73.65 6.4 6.4 0 0 0 -.65.73 1.027 1.027 0 0 0 -.15 1l.25.61a7.96 7.96 0 0 0 -.82 1.97l-.61.26a1.049 1.049 0 0 0 -.6.82 7.871 7.871 0 0 0 0 1.94 1.049 1.049 0 0 0 .6.82l.61.26a7.96 7.96 0 0 0 .82 1.97l-.25.61a1.027 1.027 0 0 0 .15 1 6.4 6.4 0 0 0 .65.73 6.4 6.4 0 0 0 .73.65 1.027 1.027 0 0 0 1 .15l.61-.25a7.96 7.96 0 0 0 1.97.82l.26.61a1.049 1.049 0 0 0 .82.6 7.871 7.871 0 0 0 1.94 0 1.049 1.049 0 0 0 .82-.6l.26-.61a7.96 7.96 0 0 0 1.97-.82l.61.25a1.027 1.027 0 0 0 1-.15 6.4 6.4 0 0 0 .73-.65 6.4 6.4 0 0 0 .65-.73 1.027 1.027 0 0 0 .15-1l-.25-.61a7.96 7.96 0 0 0 .82-1.97l.61-.26a1.049 1.049 0 0 0 .6-.82 7.871 7.871 0 0 0 0-1.94zm-8.94 4.97a4 4 0 1 1 4-4 4 4 0 0 1 -4 4z" fill="#ccd0da"/><path d="m18.94 35.03a1.049 1.049 0 0 0 -.6-.82l-.61-.26a7.96 7.96 0 0 0 -.82-1.97l.25-.61a1.027 1.027 0 0 0 -.15-1 6.4 6.4 0 0 0 -.65-.73 6.4 6.4 0 0 0 -.73-.65 1.027 1.027 0 0 0 -1-.15l-.61.25a7.96 7.96 0 0 0 -1.97-.82l-.26-.61a1.049 1.049 0 0 0 -.82-.6 7.871 7.871 0 0 0 -1.94 0 1.049 1.049 0 0 0 -.82.6l-.26.61a7.96 7.96 0 0 0 -1.97.82l-.61-.25a1.027 1.027 0 0 0 -1 .15 6.4 6.4 0 0 0 -.73.65 6.4 6.4 0 0 0 -.65.73 1.027 1.027 0 0 0 -.15 1l.25.61a7.96 7.96 0 0 0 -.82 1.97l-.61.26a1.049 1.049 0 0 0 -.6.82 7.871 7.871 0 0 0 0 1.94 1.049 1.049 0 0 0 .6.82l.61.26a7.96 7.96 0 0 0 .82 1.97l-.25.61a1.027 1.027 0 0 0 .15 1 6.4 6.4 0 0 0 .65.73 6.4 6.4 0 0 0 .73.65 1.027 1.027 0 0 0 1 .15l.61-.25a7.96 7.96 0 0 0 1.97.82l.26.61a1.049 1.049 0 0 0 .82.6 7.871 7.871 0 0 0 1.94 0 1.049 1.049 0 0 0 .82-.6l.26-.61a7.96 7.96 0 0 0 1.97-.82l.61.25a1.027 1.027 0 0 0 1-.15 6.4 6.4 0 0 0 .73-.65 6.4 6.4 0 0 0 .65-.73 1.027 1.027 0 0 0 .15-1l-.25-.61a7.96 7.96 0 0 0 .82-1.97l.61-.26a1.049 1.049 0 0 0 .6-.82 7.871 7.871 0 0 0 0-1.94zm-8.94 4.97a4 4 0 1 1 4-4 4 4 0 0 1 -4 4z" fill="#ccd0da"/><path d="m38.94 49.03a1.049 1.049 0 0 0 -.6-.82l-.61-.26a7.96 7.96 0 0 0 -.82-1.97l.25-.61a1.027 1.027 0 0 0 -.15-1 8.445 8.445 0 0 0 -1.38-1.38 1.027 1.027 0 0 0 -1-.15l-.61.25a7.96 7.96 0 0 0 -1.97-.82l-.26-.61a1.049 1.049 0 0 0 -.82-.6 7.871 7.871 0 0 0 -1.94 0 1.049 1.049 0 0 0 -.82.6l-.26.61a7.96 7.96 0 0 0 -1.97.82l-.61-.25a1.027 1.027 0 0 0 -1 .15 8.445 8.445 0 0 0 -1.38 1.38 1.027 1.027 0 0 0 -.15 1l.25.61a7.96 7.96 0 0 0 -.82 1.97l-.61.26a1.049 1.049 0 0 0 -.6.82 7.871 7.871 0 0 0 0 1.94 1.049 1.049 0 0 0 .6.82l.61.26a7.96 7.96 0 0 0 .82 1.97l-.25.61a1.027 1.027 0 0 0 .15 1 8.445 8.445 0 0 0 1.38 1.38 1.027 1.027 0 0 0 1 .15l.61-.25a7.96 7.96 0 0 0 1.97.82l.26.61a1.049 1.049 0 0 0 .82.6 7.871 7.871 0 0 0 1.94 0 1.049 1.049 0 0 0 .82-.6l.26-.61a7.96 7.96 0 0 0 1.97-.82l.61.25a1.027 1.027 0 0 0 1-.15 8.445 8.445 0 0 0 1.38-1.38 1.027 1.027 0 0 0 .15-1l-.25-.61a7.96 7.96 0 0 0 .82-1.97l.61-.26a1.049 1.049 0 0 0 .6-.82 7.871 7.871 0 0 0 0-1.94zm-8.94 4.97a4 4 0 1 1 4-4 4 4 0 0 1 -4 4z" fill="#ccd0da"/><path d="m58.94 35.03a1.049 1.049 0 0 0 -.6-.82l-.61-.26a7.96 7.96 0 0 0 -.82-1.97l.25-.61a1.027 1.027 0 0 0 -.15-1 8.445 8.445 0 0 0 -1.38-1.38 1.027 1.027 0 0 0 -1-.15l-.61.25a7.96 7.96 0 0 0 -1.97-.82l-.26-.61a1.049 1.049 0 0 0 -.82-.6 7.871 7.871 0 0 0 -1.94 0 1.049 1.049 0 0 0 -.82.6l-.26.61a7.96 7.96 0 0 0 -1.97.82l-.61-.25a1.027 1.027 0 0 0 -1 .15 8.445 8.445 0 0 0 -1.38 1.38 1.027 1.027 0 0 0 -.15 1l.25.61a7.96 7.96 0 0 0 -.82 1.97l-.61.26a1.049 1.049 0 0 0 -.6.82 7.871 7.871 0 0 0 0 1.94 1.049 1.049 0 0 0 .6.82l.61.26a7.96 7.96 0 0 0 .82 1.97l-.25.61a1.027 1.027 0 0 0 .15 1 8.445 8.445 0 0 0 1.38 1.38 1.027 1.027 0 0 0 1 .15l.61-.25a7.96 7.96 0 0 0 1.97.82l.26.61a1.049 1.049 0 0 0 .82.6 7.871 7.871 0 0 0 1.94 0 1.049 1.049 0 0 0 .82-.6l.26-.61a7.96 7.96 0 0 0 1.97-.82l.61.25a1.027 1.027 0 0 0 1-.15 8.445 8.445 0 0 0 1.38-1.38 1.027 1.027 0 0 0 .15-1l-.25-.61a7.96 7.96 0 0 0 .82-1.97l.61-.26a1.049 1.049 0 0 0 .6-.82 7.871 7.871 0 0 0 0-1.94zm-8.94 4.97a4 4 0 1 1 4-4 4 4 0 0 1 -4 4z" fill="#ccd0da"/><path d="m10 15a5 5 0 1 1 5-5 5.006 5.006 0 0 1 -5 5zm0-8a3 3 0 1 0 3 3 3 3 0 0 0 -3-3z" fill="#b9bfcc"/><path d="m30 27a5 5 0 1 1 5-5 5.006 5.006 0 0 1 -5 5zm0-8a3 3 0 1 0 3 3 3 3 0 0 0 -3-3z" fill="#b9bfcc"/><path d="m50 15a5 5 0 1 1 5-5 5.006 5.006 0 0 1 -5 5zm0-8a3 3 0 1 0 3 3 3 3 0 0 0 -3-3z" fill="#b9bfcc"/><path d="m10 41a5 5 0 1 1 5-5 5.006 5.006 0 0 1 -5 5zm0-8a3 3 0 1 0 3 3 3 3 0 0 0 -3-3z" fill="#b9bfcc"/><path d="m30 55a5 5 0 1 1 5-5 5.006 5.006 0 0 1 -5 5zm0-8a3 3 0 1 0 3 3 3 3 0 0 0 -3-3z" fill="#b9bfcc"/><path d="m50 41a5 5 0 1 1 5-5 5.006 5.006 0 0 1 -5 5zm0-8a3 3 0 1 0 3 3 3 3 0 0 0 -3-3z" fill="#b9bfcc"/></svg>