<svg id="Icons" height="512" viewBox="0 0 60 60" width="512" xmlns="http://www.w3.org/2000/svg"><g fill="#f5ab01"><path d="m24 4a1 1 0 0 1 -1-1v-2a1 1 0 0 1 2 0v2a1 1 0 0 1 -1 1z"/><path d="m28 4a1 1 0 0 1 -1-1v-2a1 1 0 0 1 2 0v2a1 1 0 0 1 -1 1z"/><path d="m32 4a1 1 0 0 1 -1-1v-2a1 1 0 0 1 2 0v2a1 1 0 0 1 -1 1z"/><path d="m36 4a1 1 0 0 1 -1-1v-2a1 1 0 0 1 2 0v2a1 1 0 0 1 -1 1z"/><path d="m23 17h-2a1 1 0 0 1 0-2h2a1 1 0 0 1 0 2z"/><path d="m23 13h-2a1 1 0 0 1 0-2h2a1 1 0 0 1 0 2z"/><path d="m23 9h-2a1 1 0 0 1 0-2h2a1 1 0 0 1 0 2z"/><path d="m23 5h-2a1 1 0 0 1 0-2h2a1 1 0 0 1 0 2z"/><path d="m36 20a1 1 0 0 1 -1-1v-2a1 1 0 0 1 2 0v2a1 1 0 0 1 -1 1z"/><path d="m24 20a1 1 0 0 1 -1-1v-2a1 1 0 0 1 2 0v2a1 1 0 0 1 -1 1z"/><path d="m39 5h-2a1 1 0 0 1 0-2h2a1 1 0 0 1 0 2z"/><path d="m39 9h-2a1 1 0 0 1 0-2h2a1 1 0 0 1 0 2z"/><path d="m39 13h-2a1 1 0 0 1 0-2h2a1 1 0 0 1 0 2z"/><path d="m39 17h-2a1 1 0 0 1 0-2h2a1 1 0 0 1 0 2z"/><path d="m30 24a1 1 0 0 1 -1-1v-3a1 1 0 1 1 2 0v3a1 1 0 0 1 -1 1z"/></g><path d="m35 43.22v-4.44a1.129 1.129 0 0 0 -.1-.44 1.1 1.1 0 0 0 -.33-.38l-4-2.78a.992.992 0 0 0 -1.14 0l-4 2.78a1.1 1.1 0 0 0 -.33.38 1.129 1.129 0 0 0 -.1.44v4.44a1.01 1.01 0 0 0 .43.82l4 2.78a.993.993 0 0 0 1.14 0l4-2.78a1.01 1.01 0 0 0 .43-.82z" fill="#42838e"/><path d="m21 43.22v-4.44a1.129 1.129 0 0 0 -.1-.44 1.1 1.1 0 0 0 -.33-.38l-4-2.78a.993.993 0 0 0 -1.14 0l-4 2.78a1.1 1.1 0 0 0 -.33.38 1.129 1.129 0 0 0 -.1.44v4.44a1.01 1.01 0 0 0 .43.82l4 2.78a.992.992 0 0 0 1.14 0l4-2.78a1.01 1.01 0 0 0 .43-.82z" fill="#42838e"/><path d="m41.57 49.96-4-2.78a.992.992 0 0 0 -1.14 0l-4 2.78a1.1 1.1 0 0 0 -.33.38 1.129 1.129 0 0 0 -.1.44v4.44a1.01 1.01 0 0 0 .43.82l4 2.78a.993.993 0 0 0 1.14 0l4-2.78a1.01 1.01 0 0 0 .43-.82v-4.44a1.129 1.129 0 0 0 -.1-.44 1.1 1.1 0 0 0 -.33-.38z" fill="#42838e"/><path d="m27.57 49.96-4-2.78a.993.993 0 0 0 -1.14 0l-4 2.78a1.1 1.1 0 0 0 -.33.38 1.129 1.129 0 0 0 -.1.44v4.44a1.01 1.01 0 0 0 .43.82l4 2.78a.992.992 0 0 0 1.14 0l4-2.78a1.01 1.01 0 0 0 .43-.82v-4.44a1.129 1.129 0 0 0 -.1-.44 1.1 1.1 0 0 0 -.33-.38z" fill="#42838e"/><path d="m32.43 32.04 4 2.78a.993.993 0 0 0 1.14 0l4-2.78a1.01 1.01 0 0 0 .43-.82v-4.44a1.129 1.129 0 0 0 -.1-.44 1.1 1.1 0 0 0 -.33-.38l-4-2.78a.992.992 0 0 0 -1.14 0l-4 2.78a1.1 1.1 0 0 0 -.33.38 1.129 1.129 0 0 0 -.1.44v4.44a1.01 1.01 0 0 0 .43.82z" fill="#42838e"/><path d="m18.43 32.04 4 2.78a.993.993 0 0 0 1.14 0l4-2.78a1.01 1.01 0 0 0 .43-.82v-4.44a1.129 1.129 0 0 0 -.1-.44 1.1 1.1 0 0 0 -.33-.38l-4-2.78a.993.993 0 0 0 -1.14 0l-4 2.78a1.1 1.1 0 0 0 -.33.38 1.129 1.129 0 0 0 -.1.44v4.44a1.01 1.01 0 0 0 .43.82z" fill="#42838e"/><path d="m48.9 38.34a1.1 1.1 0 0 0 -.33-.38l-4-2.78a.992.992 0 0 0 -1.14 0l-4 2.78a1.1 1.1 0 0 0 -.33.38 1.129 1.129 0 0 0 -.1.44v4.44a1.01 1.01 0 0 0 .43.82l4 2.78a.993.993 0 0 0 1.14 0l4-2.78a1.01 1.01 0 0 0 .43-.82v-4.44a1.129 1.129 0 0 0 -.1-.44z" fill="#42838e"/><path d="m35 38.78v4.44a1.01 1.01 0 0 1 -.43.82l-4 2.78a.988.988 0 0 1 -.57.18v-5.26l4.9-3.4a1.129 1.129 0 0 1 .1.44z" fill="#266677"/><path d="m34.9 38.34-4.9 3.4-4.9-3.4a1.1 1.1 0 0 1 .33-.38l4-2.78a.993.993 0 0 1 1.14 0l4 2.78a1.1 1.1 0 0 1 .33.38z" fill="#347584"/><path d="m34.91 38.33-.01.01" fill="#42838e"/><path d="m25.1 38.34-.01-.01" fill="#42838e"/><path d="m20.9 38.34-4.9 3.4-4.9-3.4a1.1 1.1 0 0 1 .33-.38l4-2.78a.993.993 0 0 1 1.14 0l4 2.78a1.1 1.1 0 0 1 .33.38z" fill="#347584"/><path d="m21 38.78v4.44a1.01 1.01 0 0 1 -.43.82l-4 2.78a.988.988 0 0 1 -.57.18v-5.26l4.9-3.4a1.129 1.129 0 0 1 .1.44z" fill="#266677"/><path d="m20.91 38.33-.01.01" fill="#42838e"/><path d="m11.1 38.34-.01-.01" fill="#42838e"/><path d="m42 50.78v4.44a1.01 1.01 0 0 1 -.43.82l-4 2.78a.988.988 0 0 1 -.57.18v-5.26l4.9-3.4a1.129 1.129 0 0 1 .1.44z" fill="#266677"/><path d="m41.9 50.34-4.9 3.4-4.9-3.4a1.1 1.1 0 0 1 .33-.38l4-2.78a.992.992 0 0 1 1.14 0l4 2.78a1.1 1.1 0 0 1 .33.38z" fill="#347584"/><path d="m41.91 50.33-.01.01" fill="#42838e"/><path d="m32.1 50.34-.01-.01" fill="#42838e"/><path d="m27.9 50.34-4.9 3.4-4.9-3.4a1.1 1.1 0 0 1 .33-.38l4-2.78a.993.993 0 0 1 1.14 0l4 2.78a1.1 1.1 0 0 1 .33.38z" fill="#347584"/><path d="m28 50.78v4.44a1.01 1.01 0 0 1 -.43.82l-4 2.78a.988.988 0 0 1 -.57.18v-5.26l4.9-3.4a1.129 1.129 0 0 1 .1.44z" fill="#266677"/><path d="m27.91 50.33-.01.01" fill="#42838e"/><path d="m18.1 50.34-.01-.01" fill="#42838e"/><path d="m41.9 26.34-4.9 3.4-4.9-3.4a1.1 1.1 0 0 1 .33-.38l4-2.78a.992.992 0 0 1 1.14 0l4 2.78a1.1 1.1 0 0 1 .33.38z" fill="#347584"/><path d="m42 26.78v4.44a1.01 1.01 0 0 1 -.43.82l-4 2.78a.988.988 0 0 1 -.57.18v-5.26l4.9-3.4a1.129 1.129 0 0 1 .1.44z" fill="#266677"/><path d="m41.91 26.33-.01.01" fill="#42838e"/><path d="m32.1 26.34-.01-.01" fill="#42838e"/><path d="m28 26.78v4.44a1.01 1.01 0 0 1 -.43.82l-4 2.78a.988.988 0 0 1 -.57.18v-5.26l4.9-3.4a1.129 1.129 0 0 1 .1.44z" fill="#266677"/><path d="m27.9 26.34-4.9 3.4-4.9-3.4a1.1 1.1 0 0 1 .33-.38l4-2.78a.993.993 0 0 1 1.14 0l4 2.78a1.1 1.1 0 0 1 .33.38z" fill="#347584"/><path d="m27.91 26.33-.01.01" fill="#42838e"/><path d="m18.1 26.34-.01-.01" fill="#42838e"/><path d="m49 38.78v4.44a1.01 1.01 0 0 1 -.43.82l-4 2.78a.988.988 0 0 1 -.57.18v-5.26l4.9-3.4a1.129 1.129 0 0 1 .1.44z" fill="#266677"/><path d="m48.9 38.34-4.9 3.4-4.9-3.4a1.1 1.1 0 0 1 .33-.38l4-2.78a.992.992 0 0 1 1.14 0l4 2.78a1.1 1.1 0 0 1 .33.38z" fill="#347584"/><path d="m48.91 38.33-.01.01" fill="#42838e"/><path d="m39.1 38.34-.01-.01" fill="#42838e"/><rect fill="#347584" height="14" rx="1" transform="matrix(0 1 -1 0 40 -20)" width="14" x="23" y="3"/><rect fill="#3fdab1" height="6" rx="1" transform="matrix(0 1 -1 0 40 -20)" width="6" x="27" y="7"/><path d="m28 17v2a2 2 0 0 0 2 2 2 2 0 0 0 2-2v-2z" fill="#d6981d"/><path d="m36 18h-12a2 2 0 0 1 -2-2v-12a2 2 0 0 1 2-2h12a2 2 0 0 1 2 2v12a2 2 0 0 1 -2 2zm-12-14v12h12v-12z" fill="#266677"/></svg>