<svg id="Icons" height="512" viewBox="0 0 60 60" width="512" xmlns="http://www.w3.org/2000/svg"><path d="m30 53a23 23 0 1 1 23-23 23.025 23.025 0 0 1 -23 23zm0-44a21 21 0 1 0 21 21 21.024 21.024 0 0 0 -21-21z" fill="#3fdab1"/><g fill="#42838e"><path d="m34.57 3.96-4-2.78a.993.993 0 0 0 -1.14 0l-4 2.78a1.1 1.1 0 0 0 -.33.38 1.129 1.129 0 0 0 -.1.44v4.44a1.01 1.01 0 0 0 .43.82l4 2.78a.993.993 0 0 0 1.14 0l4-2.78a1.01 1.01 0 0 0 .43-.82v-4.44a1.129 1.129 0 0 0 -.1-.44 1.1 1.1 0 0 0 -.33-.38z"/><path d="m17.57 10.96-4-2.78a.992.992 0 0 0 -1.14 0l-4 2.78a1.1 1.1 0 0 0 -.33.38 1.129 1.129 0 0 0 -.1.44v4.44a1.01 1.01 0 0 0 .43.82l4 2.78a.992.992 0 0 0 1.14 0l4-2.78a1.01 1.01 0 0 0 .43-.82v-4.44a1.129 1.129 0 0 0 -.1-.44 1.1 1.1 0 0 0 -.33-.38z"/><path d="m42.43 17.04 4 2.78a.993.993 0 0 0 1.14 0l4-2.78a1.01 1.01 0 0 0 .43-.82v-4.44a1.129 1.129 0 0 0 -.1-.44 1.1 1.1 0 0 0 -.33-.38l-4-2.78a.993.993 0 0 0 -1.14 0l-4 2.78a1.1 1.1 0 0 0 -.33.38 1.129 1.129 0 0 0 -.1.44v4.44a1.01 1.01 0 0 0 .43.82z"/><path d="m34.57 49.96-4-2.78a.992.992 0 0 0 -1.14 0l-4 2.78a1.1 1.1 0 0 0 -.33.38 1.129 1.129 0 0 0 -.1.44v4.44a1.01 1.01 0 0 0 .43.82l4 2.78a.993.993 0 0 0 1.14 0l4-2.78a1.01 1.01 0 0 0 .43-.82v-4.44a1.129 1.129 0 0 0 -.1-.44 1.1 1.1 0 0 0 -.33-.38z"/><path d="m17.57 42.96-4-2.78a.993.993 0 0 0 -1.14 0l-4 2.78a1.1 1.1 0 0 0 -.33.38 1.129 1.129 0 0 0 -.1.44v4.44a1.01 1.01 0 0 0 .43.82l4 2.78a.993.993 0 0 0 1.14 0l4-2.78a1.01 1.01 0 0 0 .43-.82v-4.44a1.129 1.129 0 0 0 -.1-.44 1.1 1.1 0 0 0 -.33-.38z"/><path d="m51.57 42.96-4-2.78a.992.992 0 0 0 -1.14 0l-4 2.78a1.1 1.1 0 0 0 -.33.38 1.129 1.129 0 0 0 -.1.44v4.44a1.01 1.01 0 0 0 .43.82l4 2.78a.993.993 0 0 0 1.14 0l4-2.78a1.01 1.01 0 0 0 .43-.82v-4.44a1.129 1.129 0 0 0 -.1-.44 1.1 1.1 0 0 0 -.33-.38z"/><path d="m11 32.22v-4.44a1.129 1.129 0 0 0 -.1-.44 1.1 1.1 0 0 0 -.33-.38l-4-2.78a.993.993 0 0 0 -1.14 0l-4 2.78a1.1 1.1 0 0 0 -.33.38 1.129 1.129 0 0 0 -.1.44v4.44a1.01 1.01 0 0 0 .43.82l4 2.78a.992.992 0 0 0 1.14 0l4-2.78a1.01 1.01 0 0 0 .43-.82z"/><path d="m58.9 27.34a1.1 1.1 0 0 0 -.33-.38l-4-2.78a.993.993 0 0 0 -1.14 0l-4 2.78a1.1 1.1 0 0 0 -.33.38 1.129 1.129 0 0 0 -.1.44v4.44a1.01 1.01 0 0 0 .43.82l4 2.78a.992.992 0 0 0 1.14 0l4-2.78a1.01 1.01 0 0 0 .43-.82v-4.44a1.129 1.129 0 0 0 -.1-.44z"/></g><path d="m35 4.78v4.44a1.01 1.01 0 0 1 -.43.82l-4 2.78a.988.988 0 0 1 -.57.18v-5.26l4.9-3.4a1.129 1.129 0 0 1 .1.44z" fill="#266677"/><path d="m34.9 4.34-4.9 3.4-4.9-3.4a1.1 1.1 0 0 1 .33-.38l4-2.78a.992.992 0 0 1 1.14 0l4 2.78a1.1 1.1 0 0 1 .33.38z" fill="#347584"/><path d="m34.91 4.33-.01.01" fill="#347584"/><path d="m25.1 4.34-.01-.01" fill="#347584"/><path d="m40.89 24.27a1.1 1.1 0 0 0 -.33-.38l-10-6.72a1 1 0 0 0 -1.12 0l-10 6.72a1.1 1.1 0 0 0 -.33.38 1 1 0 0 0 -.11.45v10.57a1.024 1.024 0 0 0 .44.83l10 6.72a1.06 1.06 0 0 0 1.12 0l10-6.72a1.024 1.024 0 0 0 .44-.83v-10.57a1 1 0 0 0 -.11-.45z" fill="#42838e"/><path d="m41 24.72v10.57a1.024 1.024 0 0 1 -.44.83l-10 6.72a1.1 1.1 0 0 1 -.56.16v-11.42l10.89-7.31a1 1 0 0 1 .11.45z" fill="#266677"/><path d="m40.89 24.27-10.89 7.31-10.89-7.31a1.1 1.1 0 0 1 .33-.38l10-6.72a1 1 0 0 1 1.12 0l10 6.72a1.1 1.1 0 0 1 .33.38z" fill="#347584"/><path d="m18 11.78v4.44a1.01 1.01 0 0 1 -.43.82l-4 2.78a.988.988 0 0 1 -.57.18v-5.26l4.9-3.4a1.129 1.129 0 0 1 .1.44z" fill="#266677"/><path d="m17.9 11.34-4.9 3.4-4.9-3.4a1.1 1.1 0 0 1 .33-.38l4-2.78a.993.993 0 0 1 1.14 0l4 2.78a1.1 1.1 0 0 1 .33.38z" fill="#347584"/><path d="m17.91 11.33-.01.01" fill="#347584"/><path d="m8.1 11.34-.01-.01" fill="#347584"/><path d="m51.9 11.34-4.9 3.4-4.9-3.4a1.1 1.1 0 0 1 .33-.38l4-2.78a.992.992 0 0 1 1.14 0l4 2.78a1.1 1.1 0 0 1 .33.38z" fill="#347584"/><path d="m52 11.78v4.44a1.01 1.01 0 0 1 -.43.82l-4 2.78a.988.988 0 0 1 -.57.18v-5.26l4.9-3.4a1.129 1.129 0 0 1 .1.44z" fill="#266677"/><path d="m51.91 11.33-.01.01" fill="#347584"/><path d="m42.1 11.34-.01-.01" fill="#347584"/><path d="m34.9 50.34-4.9 3.4-4.9-3.4a1.1 1.1 0 0 1 .33-.38l4-2.78a.992.992 0 0 1 1.14 0l4 2.78a1.1 1.1 0 0 1 .33.38z" fill="#347584"/><path d="m35 50.78v4.44a1.01 1.01 0 0 1 -.43.82l-4 2.78a.988.988 0 0 1 -.57.18v-5.26l4.9-3.4a1.129 1.129 0 0 1 .1.44z" fill="#266677"/><path d="m34.91 50.33-.01.01" fill="#347584"/><path d="m25.1 50.34-.01-.01" fill="#347584"/><path d="m18 43.78v4.44a1.01 1.01 0 0 1 -.43.82l-4 2.78a.988.988 0 0 1 -.57.18v-5.26l4.9-3.4a1.129 1.129 0 0 1 .1.44z" fill="#266677"/><path d="m17.9 43.34-4.9 3.4-4.9-3.4a1.1 1.1 0 0 1 .33-.38l4-2.78a.993.993 0 0 1 1.14 0l4 2.78a1.1 1.1 0 0 1 .33.38z" fill="#347584"/><path d="m17.91 43.33-.01.01" fill="#347584"/><path d="m8.1 43.34-.01-.01" fill="#347584"/><path d="m52 43.78v4.44a1.01 1.01 0 0 1 -.43.82l-4 2.78a.988.988 0 0 1 -.57.18v-5.26l4.9-3.4a1.129 1.129 0 0 1 .1.44z" fill="#266677"/><path d="m51.9 43.34-4.9 3.4-4.9-3.4a1.1 1.1 0 0 1 .33-.38l4-2.78a.992.992 0 0 1 1.14 0l4 2.78a1.1 1.1 0 0 1 .33.38z" fill="#347584"/><path d="m51.91 43.33-.01.01" fill="#347584"/><path d="m42.1 43.34-.01-.01" fill="#347584"/><path d="m11 27.78v4.44a1.01 1.01 0 0 1 -.43.82l-4 2.78a.988.988 0 0 1 -.57.18v-5.26l4.9-3.4a1.129 1.129 0 0 1 .1.44z" fill="#266677"/><path d="m10.9 27.34-4.9 3.4-4.9-3.4a1.1 1.1 0 0 1 .33-.38l4-2.78a.993.993 0 0 1 1.14 0l4 2.78a1.1 1.1 0 0 1 .33.38z" fill="#347584"/><path d="m10.91 27.33-.01.01" fill="#347584"/><path d="m1.1 27.34-.01-.01" fill="#347584"/><path d="m58.9 27.34-4.9 3.4-4.9-3.4a1.1 1.1 0 0 1 .33-.38l4-2.78a.992.992 0 0 1 1.14 0l4 2.78a1.1 1.1 0 0 1 .33.38z" fill="#347584"/><path d="m59 27.78v4.44a1.01 1.01 0 0 1 -.43.82l-4 2.78a.988.988 0 0 1 -.57.18v-5.26l4.9-3.4a1.129 1.129 0 0 1 .1.44z" fill="#266677"/><path d="m58.91 27.33-.01.01" fill="#347584"/><path d="m49.1 27.34-.01-.01" fill="#347584"/><path d="m26 25.3a1 1 0 0 1 -.559-1.83l3.426-2.3a1 1 0 1 1 1.115 1.66l-3.425 2.3a.99.99 0 0 1 -.557.17z" fill="#42838e"/><path d="m23 35a1 1 0 0 1 -1-1v-3a1 1 0 0 1 2 0v3a1 1 0 0 1 -1 1z" fill="#51949b"/></svg>