<svg id="Icons" height="512" viewBox="0 0 60 60" width="512" xmlns="http://www.w3.org/2000/svg"><path d="m58.89 27.52a1.686 1.686 0 0 0 -1.06-1.4l-4.68-1.87a23.5 23.5 0 0 0 -2.72-6.55l1.99-4.63a1.686 1.686 0 0 0 -.24-1.75c-.52-.63-1.09-1.24-1.67-1.83s-1.2-1.15-1.83-1.67a1.686 1.686 0 0 0 -1.75-.24l-4.63 1.99a23.5 23.5 0 0 0 -6.55-2.72l-1.87-4.68a1.686 1.686 0 0 0 -1.4-1.06c-.82-.08-1.65-.11-2.48-.11s-1.66.03-2.48.11a1.686 1.686 0 0 0 -1.4 1.06l-1.87 4.68a23.5 23.5 0 0 0 -6.55 2.72l-4.63-1.99a1.686 1.686 0 0 0 -1.75.24c-.63.52-1.24 1.09-1.83 1.67s-1.15 1.2-1.67 1.83a1.686 1.686 0 0 0 -.24 1.75l1.99 4.63a23.5 23.5 0 0 0 -2.72 6.55l-4.68 1.87a1.686 1.686 0 0 0 -1.06 1.4c-.08.82-.11 1.65-.11 2.48s.03 1.66.11 2.48a1.686 1.686 0 0 0 1.06 1.4l4.68 1.87a23.5 23.5 0 0 0 2.72 6.55l-1.99 4.63a1.686 1.686 0 0 0 .24 1.75c.52.63 1.09 1.24 1.67 1.83s1.2 1.15 1.83 1.67a1.686 1.686 0 0 0 1.75.24l4.63-1.99a23.5 23.5 0 0 0 6.55 2.72l1.87 4.68a1.686 1.686 0 0 0 1.4 1.06c.82.08 1.65.11 2.48.11s1.66-.03 2.48-.11a1.686 1.686 0 0 0 1.4-1.06l1.87-4.68a23.5 23.5 0 0 0 6.55-2.72l4.63 1.99a1.686 1.686 0 0 0 1.75-.24c.63-.52 1.24-1.09 1.83-1.67s1.15-1.2 1.67-1.83a1.686 1.686 0 0 0 .24-1.75l-1.99-4.63a23.5 23.5 0 0 0 2.72-6.55l4.68-1.87a1.686 1.686 0 0 0 1.06-1.4c.08-.82.11-1.65.11-2.48s-.03-1.66-.11-2.48zm-28.89 22.48a20 20 0 1 1 20-20 19.994 19.994 0 0 1 -20 20z" fill="#347584"/><path d="m30 51a21 21 0 1 1 21-21 21.024 21.024 0 0 1 -21 21zm0-40a19 19 0 1 0 19 19 19.021 19.021 0 0 0 -19-19z" fill="#266677"/><g fill="#3fdab1"><path d="m20.081 33.236a1 1 0 0 0 -1.254.653l-.079.251a11.992 11.992 0 0 1 18.14-13.965 1 1 0 1 0 1.144-1.639 14 14 0 0 0 -21.015 16.7l-.485-.153a1 1 0 1 0 -.6 1.908l2.7.851a1.019 1.019 0 0 0 .3.046 1 1 0 0 0 .953-.7l.851-2.7a1 1 0 0 0 -.655-1.252z"/><path d="m44.069 23.01-2.7-.851a1 1 0 0 0 -1.254.653l-.851 2.7a1 1 0 0 0 .652 1.255 1.016 1.016 0 0 0 .3.047 1 1 0 0 0 .953-.7l.079-.251a11.991 11.991 0 0 1 -18.14 13.964 1 1 0 0 0 -1.144 1.641 14 14 0 0 0 21.015-16.7l.485.153a1 1 0 1 0 .6-1.907z"/></g></svg>