<svg id="Icons" height="512" viewBox="0 0 60 60" width="512" xmlns="http://www.w3.org/2000/svg"><g fill="#3fdab1"><path d="m37 7h-2a1 1 0 0 1 0-2h2a1 1 0 0 1 0 2z"/><path d="m49 7h-2a1 1 0 0 1 0-2h2a1 1 0 0 1 0 2z"/><path d="m43 7h-2a1 1 0 0 1 0-2h2a1 1 0 0 1 0 2z"/><path d="m13 7h-2a1 1 0 0 1 0-2h2a1 1 0 0 1 0 2z"/><path d="m25 7h-2a1 1 0 0 1 0-2h2a1 1 0 0 1 0 2z"/><path d="m19 7h-2a1 1 0 0 1 0-2h2a1 1 0 0 1 0 2z"/><path d="m37 31h-2a1 1 0 0 1 0-2h2a1 1 0 0 1 0 2z"/><path d="m49 31h-2a1 1 0 0 1 0-2h2a1 1 0 0 1 0 2z"/><path d="m43 31h-2a1 1 0 0 1 0-2h2a1 1 0 0 1 0 2z"/><path d="m13 31h-2a1 1 0 0 1 0-2h2a1 1 0 0 1 0 2z"/><path d="m25 31h-2a1 1 0 0 1 0-2h2a1 1 0 0 1 0 2z"/><path d="m19 31h-2a1 1 0 0 1 0-2h2a1 1 0 0 1 0 2z"/><path d="m37 55h-2a1 1 0 0 1 0-2h2a1 1 0 0 1 0 2z"/><path d="m49 55h-2a1 1 0 0 1 0-2h2a1 1 0 0 1 0 2z"/><path d="m43 55h-2a1 1 0 0 1 0-2h2a1 1 0 0 1 0 2z"/><path d="m13 55h-2a1 1 0 0 1 0-2h2a1 1 0 0 1 0 2z"/><path d="m25 55h-2a1 1 0 0 1 0-2h2a1 1 0 0 1 0 2z"/><path d="m19 55h-2a1 1 0 0 1 0-2h2a1 1 0 0 1 0 2z"/><path d="m6 14a1 1 0 0 1 -1-1v-2a1 1 0 0 1 2 0v2a1 1 0 0 1 -1 1z"/><path d="m6 26a1 1 0 0 1 -1-1v-2a1 1 0 0 1 2 0v2a1 1 0 0 1 -1 1z"/><path d="m6 20a1 1 0 0 1 -1-1v-2a1 1 0 0 1 2 0v2a1 1 0 0 1 -1 1z"/><path d="m30 14a1 1 0 0 1 -1-1v-2a1 1 0 0 1 2 0v2a1 1 0 0 1 -1 1z"/><path d="m30 26a1 1 0 0 1 -1-1v-2a1 1 0 0 1 2 0v2a1 1 0 0 1 -1 1z"/><path d="m30 20a1 1 0 0 1 -1-1v-2a1 1 0 0 1 2 0v2a1 1 0 0 1 -1 1z"/><path d="m54 14a1 1 0 0 1 -1-1v-2a1 1 0 0 1 2 0v2a1 1 0 0 1 -1 1z"/><path d="m54 26a1 1 0 0 1 -1-1v-2a1 1 0 0 1 2 0v2a1 1 0 0 1 -1 1z"/><path d="m54 20a1 1 0 0 1 -1-1v-2a1 1 0 0 1 2 0v2a1 1 0 0 1 -1 1z"/><path d="m6 38a1 1 0 0 1 -1-1v-2a1 1 0 0 1 2 0v2a1 1 0 0 1 -1 1z"/><path d="m6 50a1 1 0 0 1 -1-1v-2a1 1 0 0 1 2 0v2a1 1 0 0 1 -1 1z"/><path d="m6 44a1 1 0 0 1 -1-1v-2a1 1 0 0 1 2 0v2a1 1 0 0 1 -1 1z"/><path d="m30 38a1 1 0 0 1 -1-1v-2a1 1 0 0 1 2 0v2a1 1 0 0 1 -1 1z"/><path d="m30 50a1 1 0 0 1 -1-1v-2a1 1 0 0 1 2 0v2a1 1 0 0 1 -1 1z"/><path d="m30 44a1 1 0 0 1 -1-1v-2a1 1 0 0 1 2 0v2a1 1 0 0 1 -1 1z"/><path d="m54 38a1 1 0 0 1 -1-1v-2a1 1 0 0 1 2 0v2a1 1 0 0 1 -1 1z"/><path d="m54 50a1 1 0 0 1 -1-1v-2a1 1 0 0 1 2 0v2a1 1 0 0 1 -1 1z"/><path d="m54 44a1 1 0 0 1 -1-1v-2a1 1 0 0 1 2 0v2a1 1 0 0 1 -1 1z"/></g><rect fill="#347584" height="10" rx="1" width="10" x="1" y="1"/><rect fill="#347584" height="10" rx="1" width="10" x="25" y="1"/><rect fill="#347584" height="10" rx="1" width="10" x="49" y="1"/><rect fill="#347584" height="10" rx="1" width="10" x="1" y="25"/><rect fill="#347584" height="10" rx="1" width="10" x="25" y="25"/><rect fill="#347584" height="10" rx="1" width="10" x="49" y="25"/><rect fill="#347584" height="10" rx="1" width="10" x="1" y="49"/><rect fill="#347584" height="10" rx="1" width="10" x="25" y="49"/><rect fill="#347584" height="10" rx="1" width="10" x="49" y="49"/><path d="m5 8a1 1 0 0 1 -1-1v-1.5a1.5 1.5 0 0 1 1.5-1.5h.5a1 1 0 0 1 0 2v1a1 1 0 0 1 -1 1z" fill="#42838e"/><path d="m29 8a1 1 0 0 1 -1-1v-1.5a1.5 1.5 0 0 1 1.5-1.5h.5a1 1 0 0 1 0 2v1a1 1 0 0 1 -1 1z" fill="#42838e"/><path d="m53 8a1 1 0 0 1 -1-1v-1.5a1.5 1.5 0 0 1 1.5-1.5h.5a1 1 0 0 1 0 2v1a1 1 0 0 1 -1 1z" fill="#42838e"/><path d="m5 32a1 1 0 0 1 -1-1v-1.5a1.5 1.5 0 0 1 1.5-1.5h.5a1 1 0 0 1 0 2v1a1 1 0 0 1 -1 1z" fill="#42838e"/><path d="m29 32a1 1 0 0 1 -1-1v-1.5a1.5 1.5 0 0 1 1.5-1.5h.5a1 1 0 0 1 0 2v1a1 1 0 0 1 -1 1z" fill="#42838e"/><path d="m53 32a1 1 0 0 1 -1-1v-1.5a1.5 1.5 0 0 1 1.5-1.5h.5a1 1 0 0 1 0 2v1a1 1 0 0 1 -1 1z" fill="#42838e"/><path d="m5 56a1 1 0 0 1 -1-1v-1.5a1.5 1.5 0 0 1 1.5-1.5h.5a1 1 0 0 1 0 2v1a1 1 0 0 1 -1 1z" fill="#42838e"/><path d="m29 56a1 1 0 0 1 -1-1v-1.5a1.5 1.5 0 0 1 1.5-1.5h.5a1 1 0 0 1 0 2v1a1 1 0 0 1 -1 1z" fill="#42838e"/><path d="m53 56a1 1 0 0 1 -1-1v-1.5a1.5 1.5 0 0 1 1.5-1.5h.5a1 1 0 0 1 0 2v1a1 1 0 0 1 -1 1z" fill="#42838e"/></svg>