<svg id="Icons" height="512" viewBox="0 0 60 60" width="512" xmlns="http://www.w3.org/2000/svg"><path d="m59 35v8a1 1 0 0 1 -1 1h-15l-1-1v-8l1-1h15a1 1 0 0 1 1 1z" fill="#347584"/><path d="m59 50v8a1 1 0 0 1 -1 1h-34l-1-1v-8l1-1h34a1 1 0 0 1 1 1z" fill="#347584"/><path d="m59 2v10a1 1 0 0 1 -1 1h-44l-1-1v-10l1-1h44a1 1 0 0 1 1 1z" fill="#d6dbe3"/><path d="m14 1v12h-12a1 1 0 0 1 -1-1v-10a1 1 0 0 1 1-1z" fill="#347584"/><path d="m59 20v8a1 1 0 0 1 -1 1h-23l-1-1v-8l1-1h23a1 1 0 0 1 1 1z" fill="#347584"/><g fill="#266677"><path d="m35 19v10h-33a1 1 0 0 1 -1-1v-8a1 1 0 0 1 1-1z"/><path d="m43 34v10h-41a1 1 0 0 1 -1-1v-8a1 1 0 0 1 1-1z"/><path d="m24 49v10h-22a1 1 0 0 1 -1-1v-8a1 1 0 0 1 1-1z"/></g><path d="m10.557 8.169-.657-.44a2.968 2.968 0 0 0 .1-.729 3 3 0 1 0 -3 3 2.969 2.969 0 0 0 1.789-.607l.654.438a1 1 0 0 0 1.114-1.662zm-4.557-1.169a1 1 0 1 1 1 1 1 1 0 0 1 -1-1z" fill="#fff"/></svg>