<svg id="Icons" height="512" viewBox="0 0 60 60" width="512" xmlns="http://www.w3.org/2000/svg"><path d="m55 15.85v28.27a2.009 2.009 0 0 1 -1.02 1.75l-22.98 12.87-.02.01a2.046 2.046 0 0 1 -1.96 0l-.02-.01-22.98-12.87a2.009 2.009 0 0 1 -1.02-1.75v-28.27a1.986 1.986 0 0 1 .27-.99 2.07 2.07 0 0 1 .75-.72l.01-.01 22.99-12.87a1.961 1.961 0 0 1 1.96 0l22.99 12.87.01.01a2.07 2.07 0 0 1 .75.72 1.986 1.986 0 0 1 .27.99z" fill="#42838e"/><path d="m35 39v6c0 1.657-4.477 3-10 3s-10-1.343-10-3v-6z" fill="#266677"/><path d="m35 33v6c0 1.657-4.477 3-10 3s-10-1.343-10-3v-6z" fill="#255b68"/><path d="m43 46a3 3 0 0 1 -3 3h-11a3 3 0 0 1 0-6 3.1 3.1 0 0 1 .54.05 4.609 4.609 0 0 1 .64-1.9 4.472 4.472 0 0 1 7.8.28 4.323 4.323 0 0 1 .51 1.99 2.984 2.984 0 0 1 4.51 2.58z" fill="#f0f2f5"/><path d="m38.94 16.03a1.049 1.049 0 0 0 -.6-.82l-.61-.26a7.96 7.96 0 0 0 -.82-1.97l.25-.61a1.027 1.027 0 0 0 -.15-1 6.4 6.4 0 0 0 -.65-.73 6.4 6.4 0 0 0 -.73-.65 1.027 1.027 0 0 0 -1-.15l-.61.25a7.96 7.96 0 0 0 -1.97-.82l-.26-.61a1.049 1.049 0 0 0 -.82-.6 7.871 7.871 0 0 0 -1.94 0 1.049 1.049 0 0 0 -.82.6l-.26.61a7.96 7.96 0 0 0 -1.97.82l-.61-.25a1.027 1.027 0 0 0 -1 .15 6.4 6.4 0 0 0 -.73.65 6.4 6.4 0 0 0 -.65.73 1.027 1.027 0 0 0 -.15 1l.25.61a7.96 7.96 0 0 0 -.82 1.97l-.61.26a1.049 1.049 0 0 0 -.6.82 7.871 7.871 0 0 0 0 1.94 1.049 1.049 0 0 0 .6.82l.61.26a7.96 7.96 0 0 0 .82 1.97l-.25.61a1.027 1.027 0 0 0 .15 1 8.445 8.445 0 0 0 1.38 1.38 1.027 1.027 0 0 0 1 .15l.61-.25a7.96 7.96 0 0 0 1.97.82l.26.61a1.049 1.049 0 0 0 .82.6 7.871 7.871 0 0 0 1.94 0 1.049 1.049 0 0 0 .82-.6l.26-.61a7.96 7.96 0 0 0 1.97-.82l.61.25a1.027 1.027 0 0 0 1-.15 8.445 8.445 0 0 0 1.38-1.38 1.027 1.027 0 0 0 .15-1l-.25-.61a7.96 7.96 0 0 0 .82-1.97l.61-.26a1.049 1.049 0 0 0 .6-.82 7.871 7.871 0 0 0 0-1.94zm-8.94 4.97a4 4 0 1 1 4-4 4 4 0 0 1 -4 4z" fill="#d6dbe3"/><ellipse cx="25" cy="33" fill="#266677" rx="10" ry="3"/><path d="m38.49 43.42a1.952 1.952 0 0 0 -.87 1.05 1.02 1.02 0 0 1 -.95.67.96.96 0 0 1 -.33-.06 1.011 1.011 0 0 1 -.61-1.28 4.079 4.079 0 0 1 1.75-2.11c.06-.04.27-.14.5-.26a4.323 4.323 0 0 1 .51 1.99z" fill="#d6dbe3"/><path d="m32.08 43.77a1.008 1.008 0 0 1 -1.41-.08 2.049 2.049 0 0 0 -1.13-.64 4.609 4.609 0 0 1 .64-1.9 4.106 4.106 0 0 1 1.98 1.2 1.009 1.009 0 0 1 -.08 1.42z" fill="#d6dbe3"/><path d="m30 22a5 5 0 1 1 5-5 5.006 5.006 0 0 1 -5 5zm0-8a3 3 0 1 0 3 3 3 3 0 0 0 -3-3z" fill="#ccd0da"/><g fill="#347584"><path d="m55 15.85v.01l-12.51 7a.973.973 0 0 1 -.49.13 1.005 1.005 0 0 1 -.49-1.88l12.46-6.98.01.01a2.07 2.07 0 0 1 .75.72 1.986 1.986 0 0 1 .27.99z"/><path d="m18.87 22.48a1 1 0 0 1 -.87.51.973.973 0 0 1 -.49-.13l-12.51-7v-.01a1.986 1.986 0 0 1 .27-.99 2.07 2.07 0 0 1 .75-.72l.01-.01 12.46 6.98a1.009 1.009 0 0 1 .38 1.37z"/><path d="m31 53v5.74l-.02.01a2.046 2.046 0 0 1 -1.96 0l-.02-.01v-5.74a1 1 0 0 1 2 0z"/></g></svg>