<svg id="Icons" height="512" viewBox="0 0 60 60" width="512" xmlns="http://www.w3.org/2000/svg"><path d="m15 21a1 1 0 0 1 1-1h13v6h2v-6h13a1 1 0 0 1 1 1v5h2v-5a3 3 0 0 0 -3-3h-13v-7h-2v7h-13a3 3 0 0 0 -3 3v5h2z" fill="#3fdab1"/><path d="m52 41h-5v-7h-2v7h-14v-7h-2v7h-14v-7h-2v7h-5a3 3 0 0 0 -3 3v5h2v-5a1 1 0 0 1 1-1h13v6h2v-6h14v6h2v-6h13a1 1 0 0 1 1 1v5h2v-5a3 3 0 0 0 -3-3z" fill="#3fdab1"/><g fill="#42838e"><path d="m25.43 10.04 4 2.78a.993.993 0 0 0 1.14 0l4-2.78a1.01 1.01 0 0 0 .43-.82v-4.44a1.129 1.129 0 0 0 -.1-.44 1.1 1.1 0 0 0 -.33-.38l-4-2.78a.993.993 0 0 0 -1.14 0l-4 2.78a1.1 1.1 0 0 0 -.33.38 1.129 1.129 0 0 0 -.1.44v4.44a1.01 1.01 0 0 0 .43.82z"/><path d="m35 32.22v-4.44a1.129 1.129 0 0 0 -.1-.44 1.1 1.1 0 0 0 -.33-.38l-4-2.78a.992.992 0 0 0 -1.14 0l-4 2.78a1.1 1.1 0 0 0 -.33.38 1.129 1.129 0 0 0 -.1.44v4.44a1.01 1.01 0 0 0 .43.82l4 2.78a.993.993 0 0 0 1.14 0l4-2.78a1.01 1.01 0 0 0 .43-.82z"/><path d="m19 32.22v-4.44a1.129 1.129 0 0 0 -.1-.44 1.1 1.1 0 0 0 -.33-.38l-4-2.78a.993.993 0 0 0 -1.14 0l-4 2.78a1.1 1.1 0 0 0 -.33.38 1.129 1.129 0 0 0 -.1.44v4.44a1.01 1.01 0 0 0 .43.82l4 2.78a.992.992 0 0 0 1.14 0l4-2.78a1.01 1.01 0 0 0 .43-.82z"/><path d="m51 32.22v-4.44a1.129 1.129 0 0 0 -.1-.44 1.1 1.1 0 0 0 -.33-.38l-4-2.78a.992.992 0 0 0 -1.14 0l-4 2.78a1.1 1.1 0 0 0 -.33.38 1.129 1.129 0 0 0 -.1.44v4.44a1.01 1.01 0 0 0 .43.82l4 2.78a.993.993 0 0 0 1.14 0l4-2.78a1.01 1.01 0 0 0 .43-.82z"/><path d="m26.57 49.96-4-2.78a.992.992 0 0 0 -1.14 0l-4 2.78a1.1 1.1 0 0 0 -.33.38 1.129 1.129 0 0 0 -.1.44v4.44a1.01 1.01 0 0 0 .43.82l4 2.78a.992.992 0 0 0 1.14 0l4-2.78a1.01 1.01 0 0 0 .43-.82v-4.44a1.129 1.129 0 0 0 -.1-.44 1.1 1.1 0 0 0 -.33-.38z"/><path d="m10.57 49.96-4-2.78a.993.993 0 0 0 -1.14 0l-4 2.78a1.1 1.1 0 0 0 -.33.38 1.129 1.129 0 0 0 -.1.44v4.44a1.01 1.01 0 0 0 .43.82l4 2.78a.993.993 0 0 0 1.14 0l4-2.78a1.01 1.01 0 0 0 .43-.82v-4.44a1.129 1.129 0 0 0 -.1-.44 1.1 1.1 0 0 0 -.33-.38z"/><path d="m42.57 49.96-4-2.78a.992.992 0 0 0 -1.14 0l-4 2.78a1.1 1.1 0 0 0 -.33.38 1.129 1.129 0 0 0 -.1.44v4.44a1.01 1.01 0 0 0 .43.82l4 2.78a.993.993 0 0 0 1.14 0l4-2.78a1.01 1.01 0 0 0 .43-.82v-4.44a1.129 1.129 0 0 0 -.1-.44 1.1 1.1 0 0 0 -.33-.38z"/><path d="m58.9 50.34a1.1 1.1 0 0 0 -.33-.38l-4-2.78a.992.992 0 0 0 -1.14 0l-4 2.78a1.1 1.1 0 0 0 -.33.38 1.129 1.129 0 0 0 -.1.44v4.44a1.01 1.01 0 0 0 .43.82l4 2.78a.993.993 0 0 0 1.14 0l4-2.78a1.01 1.01 0 0 0 .43-.82v-4.44a1.129 1.129 0 0 0 -.1-.44z"/></g><path d="m35 4.78v4.44a1.01 1.01 0 0 1 -.43.82l-4 2.78a.988.988 0 0 1 -.57.18v-5.26l4.9-3.4a1.129 1.129 0 0 1 .1.44z" fill="#266677"/><path d="m34.9 4.34-4.9 3.4-4.9-3.4a1.1 1.1 0 0 1 .33-.38l4-2.78a.992.992 0 0 1 1.14 0l4 2.78a1.1 1.1 0 0 1 .33.38z" fill="#347584"/><path d="m34.91 4.33-.01.01" fill="#42838e"/><path d="m25.1 4.34-.01-.01" fill="#42838e"/><path d="m35 27.78v4.44a1.01 1.01 0 0 1 -.43.82l-4 2.78a.988.988 0 0 1 -.57.18v-5.26l4.9-3.4a1.129 1.129 0 0 1 .1.44z" fill="#266677"/><path d="m34.9 27.34-4.9 3.4-4.9-3.4a1.1 1.1 0 0 1 .33-.38l4-2.78a.993.993 0 0 1 1.14 0l4 2.78a1.1 1.1 0 0 1 .33.38z" fill="#347584"/><path d="m34.91 27.33-.01.01" fill="#42838e"/><path d="m25.1 27.34-.01-.01" fill="#42838e"/><path d="m19 27.78v4.44a1.01 1.01 0 0 1 -.43.82l-4 2.78a.988.988 0 0 1 -.57.18v-5.26l4.9-3.4a1.129 1.129 0 0 1 .1.44z" fill="#266677"/><path d="m18.9 27.34-4.9 3.4-4.9-3.4a1.1 1.1 0 0 1 .33-.38l4-2.78a.993.993 0 0 1 1.14 0l4 2.78a1.1 1.1 0 0 1 .33.38z" fill="#347584"/><path d="m18.91 27.33-.01.01" fill="#42838e"/><path d="m9.1 27.34-.01-.01" fill="#42838e"/><path d="m50.9 27.34-4.9 3.4-4.9-3.4a1.1 1.1 0 0 1 .33-.38l4-2.78a.992.992 0 0 1 1.14 0l4 2.78a1.1 1.1 0 0 1 .33.38z" fill="#347584"/><path d="m51 27.78v4.44a1.01 1.01 0 0 1 -.43.82l-4 2.78a.988.988 0 0 1 -.57.18v-5.26l4.9-3.4a1.129 1.129 0 0 1 .1.44z" fill="#266677"/><path d="m50.91 27.33-.01.01" fill="#42838e"/><path d="m41.1 27.34-.01-.01" fill="#42838e"/><path d="m27 50.78v4.44a1.01 1.01 0 0 1 -.43.82l-4 2.78a.988.988 0 0 1 -.57.18v-5.26l4.9-3.4a1.129 1.129 0 0 1 .1.44z" fill="#266677"/><path d="m26.9 50.34-4.9 3.4-4.9-3.4a1.1 1.1 0 0 1 .33-.38l4-2.78a.993.993 0 0 1 1.14 0l4 2.78a1.1 1.1 0 0 1 .33.38z" fill="#347584"/><path d="m26.91 50.33-.01.01" fill="#42838e"/><path d="m17.1 50.34-.01-.01" fill="#42838e"/><path d="m11 50.78v4.44a1.01 1.01 0 0 1 -.43.82l-4 2.78a.988.988 0 0 1 -.57.18v-5.26l4.9-3.4a1.129 1.129 0 0 1 .1.44z" fill="#266677"/><path d="m10.9 50.34-4.9 3.4-4.9-3.4a1.1 1.1 0 0 1 .33-.38l4-2.78a.993.993 0 0 1 1.14 0l4 2.78a1.1 1.1 0 0 1 .33.38z" fill="#347584"/><path d="m10.91 50.33-.01.01" fill="#42838e"/><path d="m1.1 50.34-.01-.01" fill="#42838e"/><path d="m43 50.78v4.44a1.01 1.01 0 0 1 -.43.82l-4 2.78a.988.988 0 0 1 -.57.18v-5.26l4.9-3.4a1.129 1.129 0 0 1 .1.44z" fill="#266677"/><path d="m42.9 50.34-4.9 3.4-4.9-3.4a1.1 1.1 0 0 1 .33-.38l4-2.78a.992.992 0 0 1 1.14 0l4 2.78a1.1 1.1 0 0 1 .33.38z" fill="#347584"/><path d="m42.91 50.33-.01.01" fill="#42838e"/><path d="m33.1 50.34-.01-.01" fill="#42838e"/><path d="m58.9 50.34-4.9 3.4-4.9-3.4a1.1 1.1 0 0 1 .33-.38l4-2.78a.992.992 0 0 1 1.14 0l4 2.78a1.1 1.1 0 0 1 .33.38z" fill="#347584"/><path d="m58.91 50.33-.01.01" fill="#42838e"/><path d="m49.1 50.34-.01-.01" fill="#42838e"/><path d="m59 50.78v4.44a1.01 1.01 0 0 1 -.43.82l-4 2.78a.988.988 0 0 1 -.57.18v-5.26l4.9-3.4a1.129 1.129 0 0 1 .1.44z" fill="#266677"/></svg>