<svg id="Icons" height="512" viewBox="0 0 60 60" width="512" xmlns="http://www.w3.org/2000/svg"><path d="m39 11v-8a2.006 2.006 0 0 0 -2-2h-34a2.006 2.006 0 0 0 -2 2v24a2.006 2.006 0 0 0 2 2h3v7.09a.909.909 0 0 0 1.49.7l9.51-7.79h4z" fill="#347584"/><path d="m59 13v24a2.006 2.006 0 0 1 -2 2h-3v7.09a.909.909 0 0 1 -1.49.7l-9.51-7.79h-20a2.006 2.006 0 0 1 -2-2v-24a2.006 2.006 0 0 1 2-2h34a2.006 2.006 0 0 1 2 2z" fill="#37cba1"/><circle cx="53" cy="53" fill="#f5ab01" r="6"/><circle cx="7" cy="43" fill="#f5ab01" r="6"/><g fill="#2ca37e"><path d="m46 18h-20a1 1 0 0 1 0-2h20a1 1 0 0 1 0 2z"/><path d="m54 23h-15a1 1 0 0 1 0-2h15a1 1 0 0 1 0 2z"/><path d="m34 23h-8a1 1 0 0 1 0-2h8a1 1 0 0 1 0 2z"/><path d="m54 28h-28a1 1 0 0 1 0-2h28a1 1 0 0 1 0 2z"/><path d="m41 33h-15a1 1 0 0 1 0-2h15a1 1 0 0 1 0 2z"/><path d="m54 18h-3a1 1 0 0 1 0-2h3a1 1 0 0 1 0 2z"/></g><path d="m26 8h-20a1 1 0 0 1 0-2h20a1 1 0 0 1 0 2z" fill="#266677"/><path d="m14 13h-8a1 1 0 0 1 0-2h8a1 1 0 0 1 0 2z" fill="#266677"/><path d="m21 18h-15a1 1 0 0 1 0-2h15z" fill="#266677"/><path d="m21 23h-15a1 1 0 0 1 0-2h15z" fill="#266677"/><path d="m34 8h-3a1 1 0 0 1 0-2h3a1 1 0 0 1 0 2z" fill="#266677"/><path d="m23 11a2.006 2.006 0 0 0 -2 2h-2a1 1 0 0 1 0-2z" fill="#266677"/></svg>