<svg id="Icons" height="512" viewBox="0 0 60 60" width="512" xmlns="http://www.w3.org/2000/svg"><g fill="#347584"><path d="m30 45a1 1 0 0 1 -1-1v-6a1 1 0 0 1 2 0v6a1 1 0 0 1 -1 1z"/><path d="m30 25a1 1 0 0 1 -1-1v-5a1 1 0 0 1 2 0v5a1 1 0 0 1 -1 1z"/><path d="m9 25a1 1 0 0 1 -1-1v-7a3 3 0 0 1 3-3h10a1 1 0 0 1 0 2h-10a1 1 0 0 0 -1 1v7a1 1 0 0 1 -1 1z"/><path d="m51 25a1 1 0 0 1 -1-1v-7a1 1 0 0 0 -1-1h-10a1 1 0 0 1 0-2h10a3 3 0 0 1 3 3v7a1 1 0 0 1 -1 1z"/><path d="m9 45a1 1 0 0 1 -1-1v-6a1 1 0 0 1 2 0v6a1 1 0 0 1 -1 1z"/><path d="m51 45a1 1 0 0 1 -1-1v-6a1 1 0 0 1 2 0v6a1 1 0 0 1 -1 1z"/><path d="m36 57h-5v-3a1 1 0 0 0 -2 0v3h-5a1 1 0 0 0 0 2h12a1 1 0 0 0 0-2z"/><path d="m15 57h-5v-3a1 1 0 0 0 -2 0v3h-5a1 1 0 0 0 0 2h12a1 1 0 0 0 0-2z"/><path d="m57 57h-5v-3a1 1 0 0 0 -2 0v3h-5a1 1 0 0 0 0 2h12a1 1 0 0 0 0-2z"/></g><path d="m37.94 30.14a.923.923 0 0 0 -.53-.73l-.54-.23a7.113 7.113 0 0 0 -.73-1.75l.22-.55a.9.9 0 0 0 -.13-.89c-.18-.22-.37-.44-.57-.65s-.43-.39-.65-.57a.9.9 0 0 0 -.89-.13l-.55.22a7.113 7.113 0 0 0 -1.75-.73l-.23-.54a.923.923 0 0 0 -.73-.53 6.193 6.193 0 0 0 -1.72 0 .923.923 0 0 0 -.73.53l-.23.54a7.113 7.113 0 0 0 -1.75.73l-.55-.22a.9.9 0 0 0 -.89.13c-.22.18-.44.37-.65.57s-.39.43-.57.65a.9.9 0 0 0 -.13.89l.22.55a7.113 7.113 0 0 0 -.73 1.75l-.54.23a.923.923 0 0 0 -.53.73 6.193 6.193 0 0 0 0 1.72.923.923 0 0 0 .53.73l.54.23a7.113 7.113 0 0 0 .73 1.75l-.22.55a.9.9 0 0 0 .13.89c.18.22.37.44.57.65s.43.39.65.57a.9.9 0 0 0 .89.13l.55-.22a7.113 7.113 0 0 0 1.75.73l.23.54a.923.923 0 0 0 .73.53 6.193 6.193 0 0 0 1.72 0 .923.923 0 0 0 .73-.53l.23-.54a7.113 7.113 0 0 0 1.75-.73l.55.22a.9.9 0 0 0 .89-.13c.22-.18.44-.37.65-.57s.39-.43.57-.65a.9.9 0 0 0 .13-.89l-.22-.55a7.113 7.113 0 0 0 .73-1.75l.54-.23a.923.923 0 0 0 .53-.73 6.193 6.193 0 0 0 0-1.72zm-7.94 3.86a3 3 0 1 1 3-3 3 3 0 0 1 -3 3z" fill="#d6dbe3"/><path d="m16.94 30.14a.923.923 0 0 0 -.53-.73l-.54-.23a7.113 7.113 0 0 0 -.73-1.75l.22-.55a.9.9 0 0 0 -.13-.89c-.18-.22-.37-.44-.57-.65s-.43-.39-.65-.57a.9.9 0 0 0 -.89-.13l-.55.22a7.113 7.113 0 0 0 -1.75-.73l-.23-.54a.923.923 0 0 0 -.73-.53 6.193 6.193 0 0 0 -1.72 0 .923.923 0 0 0 -.73.53l-.23.54a7.113 7.113 0 0 0 -1.75.73l-.55-.22a.9.9 0 0 0 -.89.13c-.22.18-.44.37-.65.57s-.39.43-.57.65a.9.9 0 0 0 -.13.89l.22.55a7.113 7.113 0 0 0 -.73 1.75l-.54.23a.923.923 0 0 0 -.53.73 6.193 6.193 0 0 0 0 1.72.923.923 0 0 0 .53.73l.54.23a7.113 7.113 0 0 0 .73 1.75l-.22.55a.9.9 0 0 0 .13.89c.18.22.37.44.57.65s.43.39.65.57a.9.9 0 0 0 .89.13l.55-.22a7.113 7.113 0 0 0 1.75.73l.23.54a.923.923 0 0 0 .73.53 6.193 6.193 0 0 0 1.72 0 .923.923 0 0 0 .73-.53l.23-.54a7.113 7.113 0 0 0 1.75-.73l.55.22a.9.9 0 0 0 .89-.13c.22-.18.44-.37.65-.57s.39-.43.57-.65a.9.9 0 0 0 .13-.89l-.22-.55a7.113 7.113 0 0 0 .73-1.75l.54-.23a.923.923 0 0 0 .53-.73 6.193 6.193 0 0 0 0-1.72zm-7.94 3.86a3 3 0 1 1 3-3 3 3 0 0 1 -3 3z" fill="#d6dbe3"/><path d="m58.94 30.14a.923.923 0 0 0 -.53-.73l-.54-.23a7.113 7.113 0 0 0 -.73-1.75l.22-.55a.9.9 0 0 0 -.13-.89c-.18-.22-.37-.44-.57-.65s-.43-.39-.65-.57a.9.9 0 0 0 -.89-.13l-.55.22a7.113 7.113 0 0 0 -1.75-.73l-.23-.54a.923.923 0 0 0 -.73-.53 6.193 6.193 0 0 0 -1.72 0 .923.923 0 0 0 -.73.53l-.23.54a7.113 7.113 0 0 0 -1.75.73l-.55-.22a.9.9 0 0 0 -.89.13c-.22.18-.44.37-.65.57s-.39.43-.57.65a.9.9 0 0 0 -.13.89l.22.55a7.113 7.113 0 0 0 -.73 1.75l-.54.23a.923.923 0 0 0 -.53.73 6.193 6.193 0 0 0 0 1.72.923.923 0 0 0 .53.73l.54.23a7.113 7.113 0 0 0 .73 1.75l-.22.55a.9.9 0 0 0 .13.89c.18.22.37.44.57.65s.43.39.65.57a.9.9 0 0 0 .89.13l.55-.22a7.113 7.113 0 0 0 1.75.73l.23.54a.923.923 0 0 0 .73.53 6.193 6.193 0 0 0 1.72 0 .923.923 0 0 0 .73-.53l.23-.54a7.113 7.113 0 0 0 1.75-.73l.55.22a.9.9 0 0 0 .89-.13c.22-.18.44-.37.65-.57s.39-.43.57-.65a.9.9 0 0 0 .13-.89l-.22-.55a7.113 7.113 0 0 0 .73-1.75l.54-.23a.923.923 0 0 0 .53-.73 6.193 6.193 0 0 0 0-1.72zm-7.94 3.86a3 3 0 1 1 3-3 3 3 0 0 1 -3 3z" fill="#d6dbe3"/><path d="m37 43h-14a1 1 0 0 0 -1 1v2a1 1 0 0 0 1 1 1 1 0 0 0 -1 1v2a1 1 0 0 0 1 1 1 1 0 0 0 -1 1v2a1 1 0 0 0 1 1h14a1 1 0 0 0 1-1v-2a1 1 0 0 0 -1-1 1 1 0 0 0 1-1v-2a1 1 0 0 0 -1-1 1 1 0 0 0 1-1v-2a1 1 0 0 0 -1-1z" fill="#d6dbe3"/><path d="m16 43h-14a1 1 0 0 0 -1 1v2a1 1 0 0 0 1 1 1 1 0 0 0 -1 1v2a1 1 0 0 0 1 1 1 1 0 0 0 -1 1v2a1 1 0 0 0 1 1h14a1 1 0 0 0 1-1v-2a1 1 0 0 0 -1-1 1 1 0 0 0 1-1v-2a1 1 0 0 0 -1-1 1 1 0 0 0 1-1v-2a1 1 0 0 0 -1-1z" fill="#d6dbe3"/><path d="m59 46v-2a1 1 0 0 0 -1-1h-14a1 1 0 0 0 -1 1v2a1 1 0 0 0 1 1 1 1 0 0 0 -1 1v2a1 1 0 0 0 1 1 1 1 0 0 0 -1 1v2a1 1 0 0 0 1 1h14a1 1 0 0 0 1-1v-2a1 1 0 0 0 -1-1 1 1 0 0 0 1-1v-2a1 1 0 0 0 -1-1 1 1 0 0 0 1-1z" fill="#d6dbe3"/><rect fill="#c2c6ce" height="4" rx="1" width="16" x="22" y="47"/><rect fill="#c2c6ce" height="4" rx="1" width="16" x="1" y="47"/><rect fill="#c2c6ce" height="4" rx="1" width="16" x="43" y="47"/><path d="m40 6v11a2.006 2.006 0 0 1 -2 2h-16a2.006 2.006 0 0 1 -2-2v-11l1-1h18z" fill="#d6dbe3"/><path d="m40 3v3h-20v-3a2.006 2.006 0 0 1 2-2h16a2.006 2.006 0 0 1 2 2z" fill="#266677"/><path d="m29 9a1 1 0 0 0 -1 1v3a1 1 0 0 1 -2 0v-3a1 1 0 0 0 -2 0v3a3 3 0 0 0 6 0v-3a1 1 0 0 0 -1-1z" fill="#31b791"/><path d="m35 14v-3a1 1 0 0 0 0-2h-2a1 1 0 0 0 0 2v3a1 1 0 0 0 0 2h2a1 1 0 0 0 0-2z" fill="#31b791"/><path d="m9 36a5 5 0 1 1 5-5 5.006 5.006 0 0 1 -5 5zm0-8a3 3 0 1 0 3 3 3 3 0 0 0 -3-3z" fill="#c2c6ce"/><path d="m30 36a5 5 0 1 1 5-5 5.006 5.006 0 0 1 -5 5zm0-8a3 3 0 1 0 3 3 3 3 0 0 0 -3-3z" fill="#c2c6ce"/><path d="m51 36a5 5 0 1 1 5-5 5.006 5.006 0 0 1 -5 5zm0-8a3 3 0 1 0 3 3 3 3 0 0 0 -3-3z" fill="#c2c6ce"/></svg>