<svg id="Icons" height="512" viewBox="0 0 60 60" width="512" xmlns="http://www.w3.org/2000/svg"><path d="m59 28c0 .77-.03 1.55-.1 2.31a1.578 1.578 0 0 1 -.99 1.3l-4.35 1.74a21.749 21.749 0 0 1 -2.54 6.1l1.85 4.32a1.57 1.57 0 0 1 -.219 1.619 22.807 22.807 0 0 1 -1.561 1.7 23.006 23.006 0 0 1 -1.7 1.561 1.57 1.57 0 0 1 -1.619.219l-4.32-1.85a21.749 21.749 0 0 1 -6.1 2.54l-1.74 4.35a1.578 1.578 0 0 1 -1.3.99c-.76.07-1.54.1-2.31.1s-1.55-.03-2.31-.1a1.578 1.578 0 0 1 -1.3-.99l-1.74-4.35a22.688 22.688 0 0 1 -3.77-1.31.992.992 0 0 1 -.49-1.31l.9-2.031a1 1 0 0 1 1.336-.489 18.007 18.007 0 1 0 -9.042-9.042 1 1 0 0 1 -.489 1.336l-2.031.9a.992.992 0 0 1 -1.31-.49 22.688 22.688 0 0 1 -1.31-3.77l-4.355-1.743a1.578 1.578 0 0 1 -.99-1.3c-.07-.76-.1-1.54-.1-2.31s.03-1.55.1-2.31a1.578 1.578 0 0 1 .99-1.3l4.35-1.74a21.749 21.749 0 0 1 2.54-6.1l-1.85-4.32a1.57 1.57 0 0 1 .219-1.619 22.807 22.807 0 0 1 1.561-1.7 22.789 22.789 0 0 1 1.7-1.561 1.57 1.57 0 0 1 1.62-.22l4.32 1.85a21.749 21.749 0 0 1 6.1-2.54l1.74-4.35a1.578 1.578 0 0 1 1.3-.99c.76-.07 1.54-.1 2.31-.1s1.55.03 2.31.1a1.578 1.578 0 0 1 1.3.99l1.74 4.35a21.749 21.749 0 0 1 6.1 2.54l4.32-1.85a1.57 1.57 0 0 1 1.619.219 22.789 22.789 0 0 1 1.7 1.561 22.807 22.807 0 0 1 1.561 1.7 1.57 1.57 0 0 1 .219 1.619l-1.85 4.32a21.749 21.749 0 0 1 2.54 6.1l4.35 1.74a1.578 1.578 0 0 1 .99 1.3c.071.761.101 1.541.101 2.311z" fill="#347584"/><path d="m52 28a19.993 19.993 0 0 1 -29.11 17.8l.4-.89a.992.992 0 0 1 1.33-.49 18.01 18.01 0 1 0 -9.04-9.04.992.992 0 0 1 -.49 1.33l-.89.4a20 20 0 1 1 37.8-9.11z" fill="#266677"/><g fill="#31b791"><path d="m24.929 22.629a1 1 0 0 0 -1.858 0l-4 10a1 1 0 0 0 1.858.742l.948-2.371h4.246l.948 2.371a1 1 0 0 0 .929.629.986.986 0 0 0 .371-.071 1 1 0 0 0 .558-1.3zm-2.252 6.371 1.323-3.308 1.323 3.308z"/><path d="m34 22h-2a1 1 0 0 0 -1 1v10a1 1 0 0 0 2 0v-3h1a4 4 0 0 0 0-8zm0 6h-1v-4h1a2 2 0 0 1 0 4z"/><path d="m44 32h-1v-8h1a1 1 0 0 0 0-2h-4a1 1 0 0 0 0 2h1v8h-1a1 1 0 0 0 0 2h4a1 1 0 0 0 0-2z"/><path d="m18 41h-4a1 1 0 0 0 0 2h1.586l-15.293 15.293a1 1 0 1 0 1.414 1.414l15.293-15.293v1.586a1 1 0 0 0 2 0v-4a1 1 0 0 0 -1-1z"/></g></svg>