<svg id="Icons" height="512" viewBox="0 0 60 60" width="512" xmlns="http://www.w3.org/2000/svg"><path d="m37.97 35.758-1-4a1 1 0 1 0 -1.94.484l.408 1.632-15.917-9.728-1.042 1.708 15.962 9.755-1.683.421a1 1 0 0 0 .242 1.97 1.017 1.017 0 0 0 .243-.03l4-1a1 1 0 0 0 .727-1.212z" fill="#37cba1"/><path d="m26.86 8.21a.952.952 0 0 0 -.39-.38l-11.96-6.7a1.084 1.084 0 0 0 -1.02 0l-11.96 6.7a.952.952 0 0 0 -.39.38 1.076 1.076 0 0 0 -.14.53v14.52a1.03 1.03 0 0 0 .53.91l11.96 6.7a1.065 1.065 0 0 0 1.02 0l11.96-6.7a1.03 1.03 0 0 0 .53-.91v-14.52a1.076 1.076 0 0 0 -.14-.53z" fill="#42838e"/><path d="m27 8.74v14.52a1.03 1.03 0 0 1 -.53.91l-11.96 6.7a1.019 1.019 0 0 1 -.51.13v-15.59l12.86-7.2a1.076 1.076 0 0 1 .14.53z" fill="#266677"/><path d="m26.86 8.21-12.86 7.2-12.86-7.2a.952.952 0 0 1 .39-.38l11.96-6.7a1.084 1.084 0 0 1 1.02 0l11.96 6.7a.952.952 0 0 1 .39.38z" fill="#347584"/><g fill="#42838e"><path d="m48.57 39.96-4-2.78a.992.992 0 0 0 -1.14 0l-4 2.78a1.1 1.1 0 0 0 -.33.38 1.129 1.129 0 0 0 -.1.44v4.44a1.01 1.01 0 0 0 .43.82l4 2.78a.993.993 0 0 0 1.14 0l4-2.78a1.01 1.01 0 0 0 .43-.82v-4.44a1.129 1.129 0 0 0 -.1-.44 1.1 1.1 0 0 0 -.33-.38z"/><path d="m38.57 49.96-4-2.78a.992.992 0 0 0 -1.14 0l-4 2.78a1.1 1.1 0 0 0 -.33.38 1.129 1.129 0 0 0 -.1.44v4.44a1.01 1.01 0 0 0 .43.82l4 2.78a.993.993 0 0 0 1.14 0l4-2.78a1.01 1.01 0 0 0 .43-.82v-4.44a1.129 1.129 0 0 0 -.1-.44 1.1 1.1 0 0 0 -.33-.38z"/><path d="m58.9 30.34a1.1 1.1 0 0 0 -.33-.38l-4-2.78a.993.993 0 0 0 -1.14 0l-4 2.78a1.1 1.1 0 0 0 -.33.38 1.129 1.129 0 0 0 -.1.44v4.44a1.01 1.01 0 0 0 .43.82l4 2.78a.992.992 0 0 0 1.14 0l4-2.78a1.01 1.01 0 0 0 .43-.82v-4.44a1.129 1.129 0 0 0 -.1-.44z"/></g><path d="m48.9 40.34-4.9 3.4-4.9-3.4a1.1 1.1 0 0 1 .33-.38l4-2.78a.992.992 0 0 1 1.14 0l4 2.78a1.1 1.1 0 0 1 .33.38z" fill="#347584"/><path d="m49 40.78v4.44a1.01 1.01 0 0 1 -.43.82l-4 2.78a.988.988 0 0 1 -.57.18v-5.26l4.9-3.4a1.129 1.129 0 0 1 .1.44z" fill="#266677"/><path d="m48.91 40.33-.01.01" fill="#347584"/><path d="m39.1 40.34-.01-.01" fill="#347584"/><path d="m39 50.78v4.44a1.01 1.01 0 0 1 -.43.82l-4 2.78a.988.988 0 0 1 -.57.18v-5.26l4.9-3.4a1.129 1.129 0 0 1 .1.44z" fill="#266677"/><path d="m38.9 50.34-4.9 3.4-4.9-3.4a1.1 1.1 0 0 1 .33-.38l4-2.78a.992.992 0 0 1 1.14 0l4 2.78a1.1 1.1 0 0 1 .33.38z" fill="#347584"/><path d="m38.91 50.33-.01.01" fill="#347584"/><path d="m29.1 50.34-.01-.01" fill="#347584"/><path d="m59 30.78v4.44a1.01 1.01 0 0 1 -.43.82l-4 2.78a.988.988 0 0 1 -.57.18v-5.26l4.9-3.4a1.129 1.129 0 0 1 .1.44z" fill="#266677"/><path d="m58.9 30.34-4.9 3.4-4.9-3.4a1.1 1.1 0 0 1 .33-.38l4-2.78a.992.992 0 0 1 1.14 0l4 2.78a1.1 1.1 0 0 1 .33.38z" fill="#347584"/><path d="m58.91 30.33-.01.01" fill="#347584"/><path d="m49.1 30.34-.01-.01" fill="#347584"/><path d="m9 9.231a1 1 0 0 1 -.489-1.872l5-2.8a1 1 0 0 1 .977 1.741l-5 2.8a1 1 0 0 1 -.488.131z" fill="#42838e"/><path d="m5 22.528a1 1 0 0 1 -1-1v-6.528a1 1 0 0 1 2 0v6.528a1 1 0 0 1 -1 1z" fill="#51949b"/></svg>