<svg id="Icons" height="512" viewBox="0 0 60 60" width="512" xmlns="http://www.w3.org/2000/svg"><path d="m50.59 39a11 11 0 0 1 6.41 10v7h-22v-7a10.988 10.988 0 0 1 6.41-10 10.988 10.988 0 0 1 -6.41-10v-7h22v7a10.988 10.988 0 0 1 -6.41 10z" fill="#d6dbe3"/><path d="m19 45a5.01 5.01 0 0 1 2 4c0 3.484-3.794 8.62-4.772 9.886a.285.285 0 0 1 -.456 0c-.978-1.266-4.772-6.402-4.772-9.886a5.01 5.01 0 0 1 2-4l3-1z" fill="#e25a44"/><path d="m20 45h-8a1 1 0 0 1 -1-1v-6h10v6a1 1 0 0 1 -1 1z" fill="#b9bfcc"/><rect fill="#c89876" height="4" rx="2" width="26" x="33" y="19"/><rect fill="#c89876" height="4" rx="2" width="26" x="33" y="55"/><path d="m53 55c0-4-1.758-5.727-3.8-7a14.957 14.957 0 0 1 -2.2-1.614 1.5 1.5 0 0 0 -2.01 0 14.957 14.957 0 0 1 -2.19 1.614c-2.038 1.271-3.8 3-3.8 7z" fill="#d2aa82"/><path d="m31 34.03v11.97a1 1 0 0 1 -1 1h-4.13a1 1 0 0 1 -.99-.86l-.76-5.28a.967.967 0 0 0 -.12-.35l-1-1.51v-10l1-1 2 1.43 4.16 2.97a2 2 0 0 1 .84 1.63z" fill="#d84557"/><path d="m8 28 1 1v10l-1 1.51a.967.967 0 0 0 -.12.35l-.76 5.28a1 1 0 0 1 -.99.86h-4.13a1 1 0 0 1 -1-1v-11.97a2 2 0 0 1 .84-1.63l4.16-2.97z" fill="#d84557"/><path d="m24 14v26.51a.989.989 0 0 0 -.87-.51h-14.26a.989.989 0 0 0 -.87.51v-26.51a13.944 13.944 0 0 1 7.42-12.86 1.252 1.252 0 0 1 1.16 0 13.944 13.944 0 0 1 7.42 12.86z" fill="#ccd0da"/><circle cx="16" cy="14" fill="#347584" r="3"/><path d="m55 31a8.992 8.992 0 0 1 -5.179 6.545 13.841 13.841 0 0 0 -3.288 2.234.753.753 0 0 1 -1.066 0 13.841 13.841 0 0 0 -3.288-2.234 8.992 8.992 0 0 1 -5.179-6.545z" fill="#d2aa82"/><path d="m44 37a1 1 0 0 1 -.707-.293l-1-1a1 1 0 0 1 1.414-1.414l1 1a1 1 0 0 1 -.707 1.707z" fill="#c89876"/><path d="m48.139 36.506a1 1 0 0 1 -.507-1.862l.862-.506a1 1 0 1 1 1.012 1.724l-.862.506a.991.991 0 0 1 -.505.138z" fill="#c89876"/><path d="m16 42a1 1 0 0 1 -1-1v-12a1 1 0 0 1 2 0v12a1 1 0 0 1 -1 1z" fill="#d84557"/><path d="m16 25a1 1 0 0 1 -1-1v-2a1 1 0 0 1 2 0v2a1 1 0 0 1 -1 1z" fill="#b9bfcc"/><path d="m19 47c0 2.09-2.28 5.17-2.86 5.93a.179.179 0 0 1 -.28 0c-.58-.76-2.86-3.84-2.86-5.93a2.965 2.965 0 0 1 .77-2h4.46a2.965 2.965 0 0 1 .77 2z" fill="#faa116"/><path d="m16 18a4 4 0 1 1 4-4 4 4 0 0 1 -4 4zm0-6.509a2.509 2.509 0 1 0 2.509 2.509 2.512 2.512 0 0 0 -2.509-2.509z" fill="#b9bfcc"/></svg>