<svg id="Icons" height="512" viewBox="0 0 60 60" width="512" xmlns="http://www.w3.org/2000/svg"><g fill="#266677"><path d="m28.707 22.707.293-.293v5.586a1 1 0 0 0 2 0v-5.586l.293.293a1 1 0 0 0 1.414-1.414l-2-2a1 1 0 0 0 -1.414 0l-2 2a1 1 0 0 0 1.414 1.414z"/><path d="m22.414 31h5.586a1 1 0 0 0 0-2h-5.586l.293-.293a1 1 0 0 0 -1.414-1.414l-2 2a1 1 0 0 0 0 1.414l2 2a1 1 0 0 0 1.414-1.414z"/><path d="m31.293 37.293-.293.293v-5.586a1 1 0 1 0 -2 0v5.587l-.293-.293a1 1 0 0 0 -1.414 1.414l2 2a1 1 0 0 0 1.414 0l2-2a1 1 0 0 0 -1.414-1.414z"/><path d="m40.707 29.293-2-2a1 1 0 0 0 -1.414 1.414l.293.293h-5.586a1 1 0 1 0 0 2h5.587l-.293.293a1 1 0 1 0 1.414 1.414l2-2a1 1 0 0 0 -.001-1.414z"/></g><path d="m41.212 10.591-7.59 5.93a2.225 2.225 0 0 1 -3.622-1.59v-1.931h-1c-13.249 0-24 9.85-24 22 0 .23.01.15 0 .37a.662.662 0 0 1 -.67.63.655.655 0 0 1 -.65-.53 22.069 22.069 0 0 1 -.68-5.47 26 26 0 0 1 26-26h1v-.93a2.225 2.225 0 0 1 3.62-1.59l7.59 5.93a2 2 0 0 1 .002 3.181z" fill="#37cba1"/><path d="m18.788 49.409 7.59-5.93a2.225 2.225 0 0 1 3.622 1.59v1.931h1c13.251 0 24-9.849 24-22 0-.23-.01-.15 0-.37a.662.662 0 0 1 .67-.63.655.655 0 0 1 .65.53 22.069 22.069 0 0 1 .68 5.47 26 26 0 0 1 -26 26h-1v.93a2.225 2.225 0 0 1 -3.62 1.59l-7.59-5.93a2 2 0 0 1 -.002-3.181z" fill="#37cba1"/><circle cx="30" cy="30" fill="#347584" r="3"/></svg>