<svg id="Icons" height="512" viewBox="0 0 60 60" width="512" xmlns="http://www.w3.org/2000/svg"><path d="m44 9v23l-10.77 6h-29.23a3 3 0 0 1 -3-3v-26l1-1h41z" fill="#d6dbe3"/><path d="m58.393 46.006a.873.873 0 0 0 .551-.723c.038-.424.056-.853.056-1.283s-.018-.859-.056-1.283a.873.873 0 0 0 -.551-.723l-2.417-.966a12.243 12.243 0 0 0 -1.407-3.391l1.027-2.4a.873.873 0 0 0 -.122-.9c-.272-.327-.564-.643-.867-.947s-.62-.595-.947-.867a.873.873 0 0 0 -.9-.122l-2.4 1.027a12.225 12.225 0 0 0 -3.39-1.407l-.966-2.417a.873.873 0 0 0 -.723-.551c-.422-.035-.851-.053-1.281-.053s-.859.018-1.283.056a.873.873 0 0 0 -.723.551l-.966 2.417a12.225 12.225 0 0 0 -3.39 1.407l-2.4-1.027a.873.873 0 0 0 -.9.122c-.327.272-.643.564-.947.867s-.595.62-.867.947a.873.873 0 0 0 -.122.9l1.027 2.4a12.243 12.243 0 0 0 -1.407 3.391l-2.417.966a.873.873 0 0 0 -.551.723c-.036.421-.054.85-.054 1.28s.018.859.056 1.283a.873.873 0 0 0 .551.723l2.417.966a12.225 12.225 0 0 0 1.407 3.39l-1.027 2.4a.873.873 0 0 0 .122.9c.272.327.564.643.867.947s.62.595.947.867a.873.873 0 0 0 .9.122l2.4-1.027a12.243 12.243 0 0 0 3.391 1.407l.966 2.417a.873.873 0 0 0 .723.551c.424.038.853.056 1.283.056s.859-.018 1.283-.056a.873.873 0 0 0 .723-.551l.966-2.417a12.243 12.243 0 0 0 3.391-1.407l2.4 1.027a.873.873 0 0 0 .9-.122c.327-.272.643-.564.947-.867s.595-.62.867-.947a.873.873 0 0 0 .122-.9l-1.027-2.4a12.225 12.225 0 0 0 1.407-3.39z" fill="#347584"/><path d="m44 4v5h-43v-5a3 3 0 0 1 3-3h37a3 3 0 0 1 3 3z" fill="#347584"/><circle cx="44" cy="44" fill="#266677" r="8"/><circle cx="44" cy="44" fill="#347584" r="3"/><path d="m6 6h-1a1 1 0 0 1 0-2h1a1 1 0 0 1 0 2z" fill="#f77c90"/><path d="m11 6h-1a1 1 0 0 1 0-2h1a1 1 0 0 1 0 2z" fill="#fccb55"/><path d="m16 6h-1a1 1 0 0 1 0-2h1a1 1 0 0 1 0 2z" fill="#37cba1"/><path d="m40 6h-6a1 1 0 0 1 0-2h6a1 1 0 0 1 0 2z" fill="#266677"/><g fill="#2ca37e"><path d="m13.923 15.615a1 1 0 0 0 -1.846 0l-5 12a1 1 0 0 0 1.846.77l1.41-3.385h5.334l1.41 3.385a1 1 0 0 0 .923.615.987.987 0 0 0 .385-.077 1 1 0 0 0 .538-1.308zm-2.756 7.385 1.833-4.4 1.833 4.4z"/><path d="m25 15h-2a1 1 0 0 0 -1 1v12a1 1 0 0 0 2 0v-5h1a4 4 0 0 0 0-8zm0 6h-1v-4h1a2 2 0 0 1 0 4z"/><path d="m36 27h-1v-10h1a1 1 0 0 0 0-2h-4a1 1 0 0 0 0 2h1v10h-1a1 1 0 0 0 0 2h4a1 1 0 0 0 0-2z"/></g></svg>