<svg id="Icons" enable-background="new 0 0 60 60" height="512" viewBox="0 0 60 60" width="512" xmlns="http://www.w3.org/2000/svg"><g><path d="m47 36h-16v-6h-2v6h-16c-1.657 0-3 1.343-3 3v6h2v-6c0-.552.448-1 1-1h16v7h2v-7h16c.552 0 1 .448 1 1v6h2v-6c0-1.657-1.343-3-3-3z" fill="#3fdab1"/><path d="m52 18c0 4.418-3.582 8-8 8h-28c-4.418 0-8-3.582-8-8s3.582-8 8-8c.06 0 .13.01.19.01v-.02c.129-.672.316-1.331.56-1.97 2.202-5.662 8.578-8.466 14.24-6.264 2.105.819 3.906 2.265 5.16 4.144.834-.588 1.83-.902 2.85-.9 1.996 0 3.8 1.188 4.59 3.02.274.624.413 1.299.41 1.98 4.418 0 8 3.582 8 8z" fill="#d6dbe3"/><path d="m44.925 9.047c-.472-2.906-2.98-5.043-5.925-5.047-.889-.001-1.768.198-2.57.582-4.092-5.207-11.631-6.111-16.839-2.019-2.075 1.631-3.554 3.901-4.208 6.458-4.959.339-8.704 4.634-8.365 9.593.324 4.722 4.249 8.387 8.982 8.386h28c4.971.004 9.003-4.023 9.006-8.994.004-4.617-3.488-8.488-8.081-8.959zm-.925 15.953h-28c-3.866-.009-6.993-3.15-6.984-7.016s3.15-6.993 7.016-6.984c.042-.001.085.002.127.007.011-.002.022-.004.033-.007 1.121.03 2.218.328 3.2.87.148.083.315.126.484.126.552 0 1-.448 1-1 0-.363-.197-.698-.514-.874-.909-.5-1.899-.838-2.924-1 1.574-5.277 7.129-8.278 12.406-6.704 1.947.581 3.67 1.743 4.938 3.33-.54.531-.975 1.159-1.282 1.852-.221.506.01 1.095.516 1.316.126.056.262.085.4.084.398 0 .758-.235.917-.6.294-.672.767-1.251 1.367-1.673 0 0 .013 0 .019-.008 1.802-1.26 4.285-.821 5.545.981.291.416.5.884.615 1.378-1.649.206-3.209.863-4.508 1.9-.431.346-.5.975-.154 1.406s.975.5 1.406.154c1.239-1.001 2.785-1.544 4.377-1.538 3.866 0 7 3.134 7 7s-3.134 7-7 7z" fill="#ccd0da"/><path d="m36.87 19.93c-.089-.154-.216-.281-.37-.37l-6-3.43c-.312-.17-.688-.17-1 0l-6 3.43c-.154.089-.281.216-.37.37-.084.153-.128.325-.13.5v7.14c-.001.359.189.691.5.87l6 3.43c.311.173.689.173 1 0l6-3.43c.311-.179.501-.511.5-.87v-7.14c-.002-.175-.046-.347-.13-.5z" fill="#42838e"/><path d="m37 20.43v7.14c.001.359-.189.691-.5.87l-6 3.43c-.153.086-.325.131-.5.13v-8.15l6.87-3.92c.084.153.128.325.13.5z" fill="#266677"/><path d="m36.87 19.93-6.87 3.92-6.87-3.92c.089-.154.216-.281.37-.37l6-3.43c.312-.17.688-.17 1 0l6 3.43c.154.089.281.216.37.37z" fill="#347584"/><g fill="#42838e"><path d="m36.5 46.56-6-3.43c-.312-.17-.688-.17-1 0l-6 3.43c-.154.089-.281.216-.37.37-.084.153-.128.325-.13.5v7.14c-.001.359.189.691.5.87l6 3.43c.311.173.689.173 1 0l6-3.43c.311-.179.501-.511.5-.87v-7.14c-.002-.175-.046-.347-.13-.5-.089-.154-.216-.281-.37-.37z"/><path d="m17.5 46.56-6-3.43c-.312-.17-.688-.17-1 0l-6 3.43c-.154.089-.281.216-.37.37-.084.153-.128.325-.13.5v7.14c-.001.359.189.691.5.87l6 3.43c.311.173.689.173 1 0l6-3.43c.311-.179.501-.511.5-.87v-7.14c-.002-.175-.046-.347-.13-.5-.089-.154-.216-.281-.37-.37z"/><path d="m55.87 46.93c-.089-.154-.216-.281-.37-.37l-6-3.43c-.312-.17-.688-.17-1 0l-6 3.43c-.154.089-.281.216-.37.37-.084.153-.128.325-.13.5v7.14c-.001.359.189.691.5.87l6 3.43c.311.173.689.173 1 0l6-3.43c.311-.179.501-.511.5-.87v-7.14c-.002-.175-.046-.347-.13-.5z"/></g><path d="m36.87 46.93-6.87 3.92-6.87-3.92c.089-.154.216-.281.37-.37l6-3.43c.312-.17.688-.17 1 0l6 3.43c.154.089.281.216.37.37z" fill="#347584"/><path d="m37 47.43v7.14c.001.359-.189.691-.5.87l-6 3.43c-.153.086-.325.131-.5.13v-8.15l6.87-3.92c.084.153.128.325.13.5z" fill="#266677"/><path d="m17.87 46.93-6.87 3.92-6.87-3.92c.089-.154.216-.281.37-.37l6-3.43c.312-.17.688-.17 1 0l6 3.43c.154.089.281.216.37.37z" fill="#347584"/><path d="m18 47.43v7.14c.001.359-.189.691-.5.87l-6 3.43c-.153.086-.325.131-.5.13v-8.15l6.87-3.92c.084.153.128.325.13.5z" fill="#266677"/><path d="m55.87 46.93-6.87 3.92-6.87-3.92c.089-.154.216-.281.37-.37l6-3.43c.312-.17.688-.17 1 0l6 3.43c.154.089.281.216.37.37z" fill="#347584"/><path d="m56 47.43v7.14c.001.359-.189.691-.5.87l-6 3.43c-.153.086-.325.131-.5.13v-8.15l6.87-3.92c.084.153.128.325.13.5z" fill="#266677"/></g></svg>