<svg id="Icons" height="512" viewBox="0 0 60 60" width="512" xmlns="http://www.w3.org/2000/svg"><path d="m8 46v8c0 2.761 9.85 5 22 5s22-2.239 22-5v-8z" fill="#347584"/><ellipse cx="30" cy="46" fill="#42838e" rx="22" ry="5"/><path d="m8 33v8c0 2.761 9.85 5 22 5s22-2.239 22-5v-8z" fill="#347584"/><ellipse cx="30" cy="33" fill="#42838e" rx="22" ry="5"/><path d="m8 19v8c0 2.761 9.85 5 22 5s22-2.239 22-5v-8z" fill="#347584"/><ellipse cx="30" cy="19" fill="#42838e" rx="22" ry="5"/><path d="m8 6v8c0 2.761 9.85 5 22 5s22-2.239 22-5v-8z" fill="#347584"/><ellipse cx="30" cy="6" fill="#42838e" rx="22" ry="5"/><path d="m35 6.135h-.058q-.484-.027-.986-.049a1 1 0 1 1 .086-2c.344.015.681.031 1.014.051a1 1 0 0 1 -.056 2z" fill="#51949b"/><path d="m17.153 7a1 1 0 0 1 -.174-1.984 75.283 75.283 0 0 1 13.021-1.016 1 1 0 0 1 0 2 73.378 73.378 0 0 0 -12.671.984.968.968 0 0 1 -.176.016z" fill="#51949b"/><path d="m49 21.52v8a19.653 19.653 0 0 1 -2 .65v-8a19.653 19.653 0 0 0 2-.65z" fill="#266677"/><path d="m49 35.52v8a19.653 19.653 0 0 1 -2 .65v-8a19.653 19.653 0 0 0 2-.65z" fill="#266677"/><path d="m49 48.52v4.48a1 1 0 0 1 -2 0v-3.83a19.653 19.653 0 0 0 2-.65z" fill="#266677"/><path d="m49 13v3.52a19.653 19.653 0 0 1 -2 .65v-4.17a1 1 0 0 1 2 0z" fill="#266677"/><g fill="#51949b"><path d="m11 21.52v8a19.653 19.653 0 0 0 2 .65v-8a19.653 19.653 0 0 1 -2-.65z"/><path d="m11 35.52v8a19.653 19.653 0 0 0 2 .65v-8a19.653 19.653 0 0 1 -2-.65z"/><path d="m11 48.52v4.48a1 1 0 0 0 2 0v-3.83a19.653 19.653 0 0 1 -2-.65z"/><path d="m11 13v3.52a19.653 19.653 0 0 0 2 .65v-4.17a1 1 0 0 0 -2 0z"/></g></svg>