<svg id="Icons" height="512" viewBox="0 0 60 60" width="512" xmlns="http://www.w3.org/2000/svg"><path d="m30 54a1 1 0 0 1 -1-1v-10a1 1 0 0 1 2 0v10a1 1 0 0 1 -1 1z" fill="#347584"/><path d="m28 56h-24a1 1 0 0 1 0-2h24a1 1 0 0 1 0 2z" fill="#347584"/><path d="m55 56h-23a1 1 0 0 1 0-2h23a1 1 0 0 1 0 2z" fill="#347584"/><path d="m56 5v6a4 4 0 0 1 -4 4v1h-44v-1a4 4 0 0 1 -4-4v-6a4 4 0 0 1 4-4h44a4 4 0 0 1 4 4z" fill="#ccd0da"/><path d="m56 19v6a4 4 0 0 1 -4 4v1h-44v-1a4 4 0 0 1 -4-4v-6a4 4 0 0 1 4-4h44a4 4 0 0 1 4 4z" fill="#d6dbe3"/><rect fill="#ccd0da" height="14" rx="4" width="52" x="4" y="29"/><circle cx="12" cy="8" fill="#2ca37e" r="3"/><circle cx="22" cy="8" fill="#347584" r="3"/><circle cx="12" cy="22" fill="#2ca37e" r="3"/><circle cx="22" cy="22" fill="#347584" r="3"/><circle cx="12" cy="36" fill="#2ca37e" r="3"/><circle cx="22" cy="36" fill="#347584" r="3"/><circle cx="4" cy="55" fill="#51949b" r="3"/><circle cx="56" cy="55" fill="#51949b" r="3"/><circle cx="30" cy="55" fill="#51949b" r="4"/><g fill="#8991a0"><path d="m41 7h-1a1 1 0 0 1 0-2h1a1 1 0 0 1 0 2z"/><path d="m41 11h-1a1 1 0 0 1 0-2h1a1 1 0 0 1 0 2z"/><path d="m46 7h-1a1 1 0 0 1 0-2h1a1 1 0 0 1 0 2z"/><path d="m46 11h-1a1 1 0 0 1 0-2h1a1 1 0 0 1 0 2z"/><path d="m51 7h-1a1 1 0 0 1 0-2h1a1 1 0 0 1 0 2z"/><path d="m51 11h-1a1 1 0 0 1 0-2h1a1 1 0 0 1 0 2z"/><path d="m41 21h-1a1 1 0 0 1 0-2h1a1 1 0 0 1 0 2z"/><path d="m41 25h-1a1 1 0 0 1 0-2h1a1 1 0 0 1 0 2z"/><path d="m46 21h-1a1 1 0 0 1 0-2h1a1 1 0 0 1 0 2z"/><path d="m46 25h-1a1 1 0 0 1 0-2h1a1 1 0 0 1 0 2z"/><path d="m51 21h-1a1 1 0 0 1 0-2h1a1 1 0 0 1 0 2z"/><path d="m51 25h-1a1 1 0 0 1 0-2h1a1 1 0 0 1 0 2z"/><path d="m41 35h-1a1 1 0 0 1 0-2h1a1 1 0 0 1 0 2z"/><path d="m41 39h-1a1 1 0 0 1 0-2h1a1 1 0 0 1 0 2z"/><path d="m46 35h-1a1 1 0 0 1 0-2h1a1 1 0 0 1 0 2z"/><path d="m46 39h-1a1 1 0 0 1 0-2h1a1 1 0 0 1 0 2z"/><path d="m51 35h-1a1 1 0 0 1 0-2h1a1 1 0 0 1 0 2z"/><path d="m51 39h-1a1 1 0 0 1 0-2h1a1 1 0 0 1 0 2z"/></g></svg>