<svg id="Icons" height="512" viewBox="0 0 60 60" width="512" xmlns="http://www.w3.org/2000/svg"><path d="m46.4 44.52 6.19 2.85a.718.718 0 0 1 0 1.3l-22.27 10.26a.792.792 0 0 1 -.64 0l-22.27-10.26a.718.718 0 0 1 0-1.3l6.19-2.85z" fill="#266677"/><path d="m46.41 37.52 6.18 2.85a.718.718 0 0 1 0 1.3l-6.19 2.85-16.08 7.41a.792.792 0 0 1 -.64 0l-16.08-7.41-6.19-2.85a.718.718 0 0 1 0-1.3l6.18-2.85z" fill="#347584"/><path d="m36.658 26.05 15.928 7.334a.714.714 0 0 1 0 1.3l-22.27 10.247a.758.758 0 0 1 -.632 0l-22.27-10.251a.714.714 0 0 1 0-1.3l15.928-7.33z" fill="#42838e"/><path d="m42.931 12.638a12.973 12.973 0 0 1 -4.607 11.346 6.2 6.2 0 0 0 -2.324 4.742v2.274h-12v-2.1a6.154 6.154 0 0 0 -2.191-4.8 13 13 0 1 1 21.122-11.462z" fill="#fccb55"/><path d="m38 32a2.015 2.015 0 0 1 -2 2h-2v1h-8v-1h-2a2.006 2.006 0 0 1 -2-2 2.015 2.015 0 0 1 2-2h12a2.006 2.006 0 0 1 2 2z" fill="#f0f2f5"/><rect fill="#d6dbe3" height="4" rx="2" width="12" x="24" y="34"/><path d="m37.94 13.14a.923.923 0 0 0 -.53-.73l-.54-.23a7.113 7.113 0 0 0 -.73-1.75l.22-.55a.9.9 0 0 0 -.13-.89c-.18-.22-.37-.44-.57-.65s-.43-.39-.65-.57a.9.9 0 0 0 -.89-.13l-.55.22a7.113 7.113 0 0 0 -1.75-.73l-.23-.54a.923.923 0 0 0 -.73-.53 6.193 6.193 0 0 0 -1.72 0 .923.923 0 0 0 -.73.53l-.23.54a7.113 7.113 0 0 0 -1.75.73l-.55-.22a.9.9 0 0 0 -.89.13c-.22.18-.44.37-.65.57s-.39.43-.57.65a.9.9 0 0 0 -.13.89l.22.55a7.113 7.113 0 0 0 -.73 1.75l-.54.23a.923.923 0 0 0 -.53.73 6.193 6.193 0 0 0 0 1.72.923.923 0 0 0 .53.73l.54.23a7.113 7.113 0 0 0 .73 1.75l-.22.55a.9.9 0 0 0 .13.89c.18.22.37.44.57.65s.43.39.65.57a.9.9 0 0 0 .89.13l.55-.22a7.113 7.113 0 0 0 1.75.73l.23.54a.923.923 0 0 0 .73.53 6.193 6.193 0 0 0 1.72 0 .923.923 0 0 0 .73-.53l.23-.54a7.113 7.113 0 0 0 1.75-.73l.55.22a.9.9 0 0 0 .89-.13c.22-.18.44-.37.65-.57s.39-.43.57-.65a.9.9 0 0 0 .13-.89l-.22-.55a7.113 7.113 0 0 0 .73-1.75l.54-.23a.923.923 0 0 0 .53-.73 6.193 6.193 0 0 0 0-1.72z" fill="#f0f2f5"/><circle cx="30" cy="14" fill="#d6dbe3" r="3"/></svg>