<svg id="Icons" height="512" viewBox="0 0 60 60" width="512" xmlns="http://www.w3.org/2000/svg"><rect fill="#347584" height="22" rx="1" width="22" x="19" y="19"/><path d="m23 28a1 1 0 0 1 -1-1v-3a2 2 0 0 1 2-2h7a1 1 0 0 1 0 2h-7v3a1 1 0 0 1 -1 1z" fill="#51949b"/><path d="m23 35a1 1 0 0 1 -1-1v-3a1 1 0 0 1 2 0v3a1 1 0 0 1 -1 1z" fill="#51949b"/><g fill="#ccd0da"><path d="m1 5a1 1 0 0 1 -1-1v-2a2 2 0 0 1 2-2h2a1 1 0 0 1 0 2h-2v2a1 1 0 0 1 -1 1z"/><path d="m28 2h-2a1 1 0 0 1 0-2h2a1 1 0 0 1 0 2z"/><path d="m22 2h-2a1 1 0 0 1 0-2h2a1 1 0 0 1 0 2z"/><path d="m16 2h-2a1 1 0 0 1 0-2h2a1 1 0 0 1 0 2z"/><path d="m10 2h-2a1 1 0 0 1 0-2h2a1 1 0 0 1 0 2z"/><path d="m59 5a1 1 0 0 1 -1-1v-2h-2a1 1 0 0 1 0-2h2a2 2 0 0 1 2 2v2a1 1 0 0 1 -1 1z"/><path d="m34 2h-2a1 1 0 0 1 0-2h2a1 1 0 0 1 0 2z"/><path d="m40 2h-2a1 1 0 0 1 0-2h2a1 1 0 0 1 0 2z"/><path d="m46 2h-2a1 1 0 0 1 0-2h2a1 1 0 0 1 0 2z"/><path d="m52 2h-2a1 1 0 0 1 0-2h2a1 1 0 0 1 0 2z"/><path d="m1 29a1 1 0 0 1 -1-1v-2a1 1 0 0 1 2 0v2a1 1 0 0 1 -1 1z"/><path d="m1 23a1 1 0 0 1 -1-1v-2a1 1 0 0 1 2 0v2a1 1 0 0 1 -1 1z"/><path d="m1 17a1 1 0 0 1 -1-1v-2a1 1 0 0 1 2 0v2a1 1 0 0 1 -1 1z"/><path d="m1 11a1 1 0 0 1 -1-1v-2a1 1 0 0 1 2 0v2a1 1 0 0 1 -1 1z"/><path d="m1 35a1 1 0 0 1 -1-1v-2a1 1 0 0 1 2 0v2a1 1 0 0 1 -1 1z"/><path d="m1 41a1 1 0 0 1 -1-1v-2a1 1 0 0 1 2 0v2a1 1 0 0 1 -1 1z"/><path d="m1 47a1 1 0 0 1 -1-1v-2a1 1 0 0 1 2 0v2a1 1 0 0 1 -1 1z"/><path d="m1 53a1 1 0 0 1 -1-1v-2a1 1 0 0 1 2 0v2a1 1 0 0 1 -1 1z"/><path d="m59 29a1 1 0 0 1 -1-1v-2a1 1 0 0 1 2 0v2a1 1 0 0 1 -1 1z"/><path d="m59 23a1 1 0 0 1 -1-1v-2a1 1 0 0 1 2 0v2a1 1 0 0 1 -1 1z"/><path d="m59 17a1 1 0 0 1 -1-1v-2a1 1 0 0 1 2 0v2a1 1 0 0 1 -1 1z"/><path d="m59 11a1 1 0 0 1 -1-1v-2a1 1 0 0 1 2 0v2a1 1 0 0 1 -1 1z"/><path d="m59 35a1 1 0 0 1 -1-1v-2a1 1 0 0 1 2 0v2a1 1 0 0 1 -1 1z"/><path d="m59 41a1 1 0 0 1 -1-1v-2a1 1 0 0 1 2 0v2a1 1 0 0 1 -1 1z"/><path d="m59 47a1 1 0 0 1 -1-1v-2a1 1 0 0 1 2 0v2a1 1 0 0 1 -1 1z"/><path d="m59 53a1 1 0 0 1 -1-1v-2a1 1 0 0 1 2 0v2a1 1 0 0 1 -1 1z"/><path d="m4 60h-2a2 2 0 0 1 -2-2v-2a1 1 0 0 1 2 0v2h2a1 1 0 0 1 0 2z"/><path d="m28 60h-2a1 1 0 0 1 0-2h2a1 1 0 0 1 0 2z"/><path d="m22 60h-2a1 1 0 0 1 0-2h2a1 1 0 0 1 0 2z"/><path d="m16 60h-2a1 1 0 0 1 0-2h2a1 1 0 0 1 0 2z"/><path d="m10 60h-2a1 1 0 0 1 0-2h2a1 1 0 0 1 0 2z"/><path d="m58 60h-2a1 1 0 0 1 0-2h2v-2a1 1 0 0 1 2 0v2a2 2 0 0 1 -2 2z"/><path d="m34 60h-2a1 1 0 0 1 0-2h2a1 1 0 0 1 0 2z"/><path d="m40 60h-2a1 1 0 0 1 0-2h2a1 1 0 0 1 0 2z"/><path d="m46 60h-2a1 1 0 0 1 0-2h2a1 1 0 0 1 0 2z"/><path d="m52 60h-2a1 1 0 0 1 0-2h2a1 1 0 0 1 0 2z"/></g><path d="m9.414 8h2.586a1 1 0 0 0 0-2h-5a1 1 0 0 0 -1 1v5a1 1 0 0 0 2 0v-2.586l7.293 7.293a1 1 0 0 0 1.414-1.414z" fill="#31b791"/><path d="m15.293 43.293-7.293 7.293v-2.586a1 1 0 0 0 -2 0v5a1 1 0 0 0 1 1h5a1 1 0 0 0 0-2h-2.586l7.293-7.293a1 1 0 0 0 -1.414-1.414z" fill="#31b791"/><path d="m53 47a1 1 0 0 0 -1 1v2.586l-7.293-7.293a1 1 0 0 0 -1.414 1.414l7.293 7.293h-2.586a1 1 0 0 0 0 2h5a1 1 0 0 0 1-1v-5a1 1 0 0 0 -1-1z" fill="#31b791"/><path d="m53 6h-5a1 1 0 0 0 0 2h2.586l-7.293 7.293a1 1 0 1 0 1.414 1.414l7.293-7.293v2.586a1 1 0 0 0 2 0v-5a1 1 0 0 0 -1-1z" fill="#31b791"/></svg>