<svg id="Icons" height="512" viewBox="0 0 60 60" width="512" xmlns="http://www.w3.org/2000/svg"><rect fill="#347584" height="14" rx="1" width="14" x="37" y="19"/><rect fill="#347584" height="14" rx="1" width="14" x="19" y="19"/><rect fill="#347584" height="14" rx="1" width="14" x="1" y="19"/><rect fill="#347584" height="14" rx="1" width="14" x="37" y="1"/><rect fill="#347584" height="14" rx="1" width="14" x="19" y="1"/><rect fill="#347584" height="14" rx="1" width="14" x="1" y="1"/><rect fill="#347584" height="14" rx="1" width="14" x="19" y="37"/><rect fill="#347584" height="14" rx="1" width="14" x="1" y="37"/><rect fill="#d84557" height="14" rx="1" width="14" x="45" y="45"/><g fill="#fff"><path d="m43 29a1 1 0 0 1 -.707-.293l-1-1a1 1 0 0 1 1.414-1.414l.185.185 2.308-3.078a1 1 0 1 1 1.6 1.2l-3 4a1 1 0 0 1 -.729.4z"/><path d="m25 29a1 1 0 0 1 -.707-.293l-1-1a1 1 0 0 1 1.414-1.414l.185.185 2.308-3.078a1 1 0 1 1 1.6 1.2l-3 4a1 1 0 0 1 -.729.4z"/><path d="m7 29a1 1 0 0 1 -.707-.293l-1-1a1 1 0 0 1 1.414-1.414l.185.185 2.308-3.078a1 1 0 0 1 1.6 1.2l-3 4a1 1 0 0 1 -.729.4z"/><path d="m43 11a1 1 0 0 1 -.707-.293l-1-1a1 1 0 0 1 1.414-1.414l.185.185 2.308-3.078a1 1 0 0 1 1.6 1.2l-3 4a1 1 0 0 1 -.729.4z"/><path d="m25 11a1 1 0 0 1 -.707-.293l-1-1a1 1 0 0 1 1.414-1.414l.185.185 2.308-3.078a1 1 0 1 1 1.6 1.2l-3 4a1 1 0 0 1 -.729.4z"/><path d="m7 11a1 1 0 0 1 -.707-.293l-1-1a1 1 0 0 1 1.414-1.414l.185.185 2.308-3.078a1 1 0 1 1 1.6 1.2l-3 4a1 1 0 0 1 -.729.4z"/><path d="m25 47a1 1 0 0 1 -.707-.293l-1-1a1 1 0 0 1 1.414-1.414l.185.185 2.308-3.078a1 1 0 1 1 1.6 1.2l-3 4a1 1 0 0 1 -.729.4z"/><path d="m7 47a1 1 0 0 1 -.707-.293l-1-1a1 1 0 0 1 1.414-1.414l.185.185 2.308-3.078a1 1 0 1 1 1.6 1.2l-3 4a1 1 0 0 1 -.729.4z"/><path d="m52 52a1 1 0 0 1 -1-1v-2a1 1 0 0 1 2 0v2a1 1 0 0 1 -1 1z"/><path d="m52 56a1 1 0 0 1 -1-1 1.036 1.036 0 0 1 1-1.042.965.965 0 0 1 1 .959v.083a1 1 0 0 1 -1 1z"/></g><path d="m43 39a1 1 0 0 0 -1 1v.586l-4.293-4.293a1 1 0 0 0 -1.414 1.414l4.293 4.293h-.586a1 1 0 0 0 0 2h3a1 1 0 0 0 1-1v-3a1 1 0 0 0 -1-1z" fill="#37cba1"/></svg>