<svg id="Icons" height="512" viewBox="0 0 60 60" width="512" xmlns="http://www.w3.org/2000/svg"><g fill="#37cba1"><path d="m29 7h2v13h-2z"/><path d="m17.333 11.833h2v13h-2z" transform="matrix(.707 -.707 .707 .707 -7.594 18.333)"/><path d="m7 29h13.999v2h-13.999z"/><path d="m11.833 40.668h13v2h-13z" transform="matrix(.707 -.707 .707 .707 -24.094 25.167)"/><path d="m29 40h2v13h-2z"/><path d="m40.668 35.167h2v13h-2z" transform="matrix(.707 -.707 .707 .707 -17.259 41.667)"/><path d="m38.999 29h14.001v2h-14.001z"/><path d="m35.167 17.333h13v2h-13z" transform="matrix(.707 -.707 .707 .707 -.759 34.833)"/></g><path d="m39.97 23.97a.853.853 0 0 0 -.38-.51l-9.2-5.35a.732.732 0 0 0 -.78 0l-9.2 5.35a.872.872 0 0 0 -.38.5.852.852 0 0 0 -.03.23v11.62a.856.856 0 0 0 .41.73l9.2 5.35a.746.746 0 0 0 .78 0l9.2-5.35a.856.856 0 0 0 .41-.73v-11.62a.833.833 0 0 0 -.03-.22z" fill="#42838e"/><path d="m40 24.19v11.62a.856.856 0 0 1 -.41.73l-9.2 5.35a.765.765 0 0 1 -.39.11v-12l9.97-6.03a.833.833 0 0 1 .03.22z" fill="#266677"/><path d="m39.97 23.97-9.97 6.03-9.97-6.04a.872.872 0 0 1 .38-.5l9.2-5.35a.732.732 0 0 1 .78 0l9.2 5.35a.853.853 0 0 1 .38.51z" fill="#347584"/><circle cx="30" cy="5" fill="#266677" r="4"/><circle cx="12.322" cy="12.322" fill="#266677" r="4"/><circle cx="5" cy="30" fill="#266677" r="4"/><circle cx="12.322" cy="47.678" fill="#266677" r="4"/><circle cx="30" cy="55" fill="#266677" r="4"/><circle cx="47.678" cy="47.678" fill="#266677" r="4"/><circle cx="55" cy="30" fill="#266677" r="4"/><circle cx="47.678" cy="12.322" fill="#266677" r="4"/><path d="m27.9 25a1 1 0 0 1 -.52-1.854l1.69-1.028a1 1 0 1 1 1.039 1.709l-1.69 1.027a.993.993 0 0 1 -.519.146z" fill="#42838e"/><path d="m24 35a1 1 0 0 1 -1-1v-3a1 1 0 0 1 2 0v3a1 1 0 0 1 -1 1z" fill="#51949b"/></svg>