<svg id="Icons" height="512" viewBox="0 0 60 60" width="512" xmlns="http://www.w3.org/2000/svg"><path d="m9 43a1 1 0 0 1 -1-1v-19a1 1 0 0 1 2 0v19a1 1 0 0 1 -1 1z" fill="#37cba1"/><path d="m30 43a1 1 0 0 1 -1-1v-19a1 1 0 0 1 2 0v19a1 1 0 0 1 -1 1z" fill="#37cba1"/><path d="m51 43a1 1 0 0 1 -1-1v-19a1 1 0 0 1 2 0v19a1 1 0 0 1 -1 1z" fill="#37cba1"/><path d="m53 54c0 3 3 5 3 5h-10s3-2 3-5v-1h4z" fill="#b9bfcc"/><path d="m32 54c0 3 3 5 3 5h-10s3-2 3-5v-1h4z" fill="#b9bfcc"/><path d="m11 54c0 3 3 5 3 5h-10s3-2 3-5v-1h4z" fill="#b9bfcc"/><path d="m59 16v6c0 1.657-3.582 3-8 3s-8-1.343-8-3v-6z" fill="#347584"/><path d="m59 10v6c0 1.657-3.582 3-8 3s-8-1.343-8-3v-6z" fill="#42838e"/><path d="m59 4v6c0 1.657-3.582 3-8 3s-8-1.343-8-3v-6z" fill="#347584"/><path d="m1 50 1-1h14l1 1v3a1 1 0 0 1 -1 1h-14a1 1 0 0 1 -1-1z" fill="#d6dbe3"/><path d="m22 50 1-1h14l1 1v3a1 1 0 0 1 -1 1h-14a1 1 0 0 1 -1-1z" fill="#d6dbe3"/><path d="m43 50 1-1h14l1 1v3a1 1 0 0 1 -1 1h-14a1 1 0 0 1 -1-1z" fill="#d6dbe3"/><path d="m17 41v9h-16v-9a1 1 0 0 1 1-1h14a1 1 0 0 1 1 1z" fill="#3f3f3f"/><path d="m59 41v9h-16v-9a1 1 0 0 1 1-1h14a1 1 0 0 1 1 1z" fill="#3f3f3f"/><path d="m38 41v9h-16v-9a1 1 0 0 1 1-1h14a1 1 0 0 1 1 1z" fill="#3f3f3f"/><ellipse cx="51" cy="4" fill="#42838e" rx="8" ry="3"/><path d="m38 16v6c0 1.657-3.582 3-8 3s-8-1.343-8-3v-6z" fill="#347584"/><path d="m38 10v6c0 1.657-3.582 3-8 3s-8-1.343-8-3v-6z" fill="#42838e"/><path d="m38 4v6c0 1.657-3.582 3-8 3s-8-1.343-8-3v-6z" fill="#347584"/><ellipse cx="30" cy="4" fill="#42838e" rx="8" ry="3"/><path d="m17 16v6c0 1.657-3.582 3-8 3s-8-1.343-8-3v-6z" fill="#347584"/><path d="m17 10v6c0 1.657-3.582 3-8 3s-8-1.343-8-3v-6z" fill="#42838e"/><path d="m17 4v6c0 1.657-3.582 3-8 3s-8-1.343-8-3v-6z" fill="#347584"/><ellipse cx="9" cy="4" fill="#42838e" rx="8" ry="3"/><g fill="#484949"><path d="m5 47a1 1 0 0 1 -.707-1.707l2-2a1 1 0 0 1 1.414 1.414l-2 2a1 1 0 0 1 -.707.293z"/><path d="m11 47a1 1 0 0 1 -.707-1.707l2-2a1 1 0 0 1 1.414 1.414l-2 2a1 1 0 0 1 -.707.293z"/><path d="m47 47a1 1 0 0 1 -.707-1.707l2-2a1 1 0 0 1 1.414 1.414l-2 2a1 1 0 0 1 -.707.293z"/><path d="m53 47a1 1 0 0 1 -.707-1.707l2-2a1 1 0 0 1 1.414 1.414l-2 2a1 1 0 0 1 -.707.293z"/><path d="m26 47a1 1 0 0 1 -.707-1.707l2-2a1 1 0 0 1 1.414 1.414l-2 2a1 1 0 0 1 -.707.293z"/><path d="m32 47a1 1 0 0 1 -.707-1.707l2-2a1 1 0 0 1 1.414 1.414l-2 2a1 1 0 0 1 -.707.293z"/></g><path d="m15 60h-12a1 1 0 0 1 0-2h12a1 1 0 0 1 0 2z" fill="#d6dbe3"/><path d="m57 60h-12a1 1 0 0 1 0-2h12a1 1 0 0 1 0 2z" fill="#d6dbe3"/><path d="m36 60h-12a1 1 0 0 1 0-2h12a1 1 0 0 1 0 2z" fill="#d6dbe3"/></svg>