<svg id="Icons" height="512" viewBox="0 0 60 60" width="512" xmlns="http://www.w3.org/2000/svg"><path d="m40 36h-9v-3a1 1 0 0 0 -2 0v3h-9a3 3 0 0 0 -3 3v2a1 1 0 0 0 2 0v-2a1 1 0 0 1 1-1h9v3a1 1 0 0 0 2 0v-3h9a1 1 0 0 1 1 1v2a1 1 0 0 0 2 0v-2a3 3 0 0 0 -3-3z" fill="#31b791"/><path d="m40.96 21.06a.635.635 0 0 0 -.4-.53l-1.78-.71a9.093 9.093 0 0 0 -1.03-2.49l.75-1.75a.612.612 0 0 0 -.09-.66c-.2-.24-.41-.48-.63-.7s-.46-.43-.7-.63a.612.612 0 0 0 -.66-.09l-1.75.75a9.093 9.093 0 0 0 -2.49-1.03l-.71-1.78a.635.635 0 0 0 -.53-.4c-.31-.03-.62-.04-.94-.04s-.63.01-.94.04a.635.635 0 0 0 -.53.4l-.71 1.78a9.093 9.093 0 0 0 -2.49 1.03l-1.75-.75a.612.612 0 0 0 -.66.09c-.24.2-.48.41-.7.63s-.43.46-.63.7a.612.612 0 0 0 -.09.66l.75 1.75a9.093 9.093 0 0 0 -1.03 2.49l-1.78.71a.635.635 0 0 0 -.4.53c-.03.31-.04.62-.04.94s.01.63.04.94a.635.635 0 0 0 .4.53l1.78.71a9.093 9.093 0 0 0 1.03 2.49l-.75 1.75a.612.612 0 0 0 .09.66c.2.24.41.48.63.7s.46.43.7.63a.612.612 0 0 0 .66.09l1.75-.75a9.093 9.093 0 0 0 2.49 1.03l.71 1.78a.635.635 0 0 0 .53.4c.31.03.62.04.94.04s.63-.01.94-.04a.635.635 0 0 0 .53-.4l.71-1.78a9.093 9.093 0 0 0 2.49-1.03l1.75.75a.612.612 0 0 0 .66-.09c.24-.2.48-.41.7-.63s.43-.46.63-.7a.612.612 0 0 0 .09-.66l-.75-1.75a9.093 9.093 0 0 0 1.03-2.49l1.78-.71a.635.635 0 0 0 .4-.53c.03-.31.04-.62.04-.94s-.01-.63-.04-.94zm-10.96 5.94a5 5 0 1 1 5-5 5 5 0 0 1 -5 5z" fill="#347584"/><rect fill="#ccd0da" height="6" rx="1" width="8" x="26" y="41"/><rect fill="#ccd0da" height="6" rx="1" width="8" x="14" y="41"/><rect fill="#ccd0da" height="6" rx="1" width="8" x="38" y="41"/><path d="m30 28a6 6 0 1 1 6-6 6.006 6.006 0 0 1 -6 6zm0-10a4 4 0 1 0 4 4 4 4 0 0 0 -4-4z" fill="#266677"/><g fill="#31b791"><path d="m59.625 37.219a1 1 0 0 0 -1.406.156l-2.219 2.774v-32.149a4 4 0 0 0 -4-4h-3a1 1 0 0 0 0 2h3a2 2 0 0 1 2 2v32.149l-2.219-2.774a1 1 0 0 0 -1.562 1.25l4 5a1 1 0 0 0 1.562 0l4-5a1 1 0 0 0 -.156-1.406z"/><path d="m55 48a1 1 0 0 0 -1 1v3a2 2 0 0 1 -2 2h-32.149l2.774-2.219a1 1 0 0 0 -1.25-1.562l-5 4a1 1 0 0 0 0 1.562l5 4a1 1 0 0 0 1.25-1.562l-2.774-2.219h32.149a4 4 0 0 0 4-4v-3a1 1 0 0 0 -1-1z"/><path d="m11 54h-3a2 2 0 0 1 -2-2v-32.149l2.219 2.774a1 1 0 1 0 1.562-1.25l-4-5a1.034 1.034 0 0 0 -1.562 0l-4 5a1 1 0 0 0 1.562 1.25l2.219-2.774v32.149a4 4 0 0 0 4 4h3a1 1 0 0 0 0-2z"/><path d="m5 12a1 1 0 0 0 1-1v-3a2 2 0 0 1 2-2h32.149l-2.774 2.219a1 1 0 0 0 1.25 1.562l5-4a1 1 0 0 0 0-1.562l-5-4a1 1 0 0 0 -1.25 1.562l2.774 2.219h-32.149a4 4 0 0 0 -4 4v3a1 1 0 0 0 1 1z"/></g></svg>