<svg id="Icons" height="512" viewBox="0 0 60 60" width="512" xmlns="http://www.w3.org/2000/svg"><rect fill="#d84557" height="10" rx="2" width="10" x="1" y="1"/><g fill="#347584"><rect height="10" rx="2" width="10" x="1" y="17"/><rect height="10" rx="2" width="10" x="1" y="33"/><rect height="10" rx="2" width="10" x="1" y="49"/><rect height="10" rx="2" width="10" x="25" y="17"/></g><rect fill="#31b791" height="10" rx="2" width="10" x="49" y="17"/><rect fill="#d84557" height="10" rx="2" width="10" x="25" y="33"/><rect fill="#d84557" height="10" rx="2" width="10" x="25" y="49"/><path d="m53.5 24a1 1 0 0 1 -.707-.293l-.5-.5a1 1 0 0 1 1.039-1.65l.868-1.157a1 1 0 1 1 1.6 1.2l-1.5 2a1 1 0 0 1 -.729.4z" fill="#fff"/><path d="m7.414 6 .293-.293a1 1 0 0 0 -1.414-1.414l-.293.293-.293-.293a1 1 0 0 0 -1.414 1.414l.293.293-.293.293a1 1 0 1 0 1.414 1.414l.293-.293.293.293a1 1 0 0 0 1.414-1.414z" fill="#fff"/><path d="m31.414 38 .293-.293a1 1 0 0 0 -1.414-1.414l-.293.293-.293-.293a1 1 0 0 0 -1.414 1.414l.293.293-.293.293a1 1 0 1 0 1.414 1.414l.293-.293.293.293a1 1 0 0 0 1.414-1.414z" fill="#fff"/><path d="m31.707 52.293a1 1 0 0 0 -1.414 0l-.293.293-.293-.293a1 1 0 0 0 -1.414 1.414l.293.293-.293.293a1 1 0 1 0 1.414 1.414l.293-.293.293.293a1 1 0 0 0 1.414-1.414l-.293-.293.293-.293a1 1 0 0 0 0-1.414z" fill="#fff"/><path d="m21 23h-6a1 1 0 0 1 0-2h6a1 1 0 0 1 0 2z" fill="#ccd0da"/><path d="m45 23h-6a1 1 0 0 1 0-2h6a1 1 0 0 1 0 2z" fill="#ccd0da"/><path d="m21 39h-6a1 1 0 0 1 0-2h6a1 1 0 0 1 0 2z" fill="#ccd0da"/><path d="m21 55h-6a1 1 0 0 1 0-2h6a1 1 0 0 1 0 2z" fill="#ccd0da"/></svg>