<svg id="Icons" height="512" viewBox="0 0 60 60" width="512" xmlns="http://www.w3.org/2000/svg"><path d="m1 54v4a1 1 0 0 0 1 1h56a1 1 0 0 0 1-1v-4l-1-1h-56z" fill="#266677"/><path d="m54.85 48 4.15 6h-58l4.15-6 .85-1h48z" fill="#347584"/><path d="m1 43v4a1 1 0 0 0 1 1h56a1 1 0 0 0 1-1v-4l-1-1h-56z" fill="#266677"/><path d="m12 30h-.952a2 2 0 0 0 -1.644.862l-8.404 12.138h58l-8.4-12.138a2 2 0 0 0 -1.648-.862z" fill="#347584"/><path d="m47 9v24a3 3 0 0 1 -3 3h-28a3 3 0 0 1 -3-3v-24l1-1h32z" fill="#d6dbe3"/><path d="m47 4v5h-34v-5a3 3 0 0 1 3-3h28a3 3 0 0 1 3 3z" fill="#347584"/><path d="m18 6h-1a1 1 0 0 1 0-2h1a1 1 0 0 1 0 2z" fill="#f77c90"/><path d="m23 6h-1a1 1 0 0 1 0-2h1a1 1 0 0 1 0 2z" fill="#fccb55"/><path d="m43 6h-6a1 1 0 0 1 0-2h6a1 1 0 0 1 0 2z" fill="#266677"/><g fill="#2ca37e"><path d="m38 26h-1v-9h1a1 1 0 0 0 0-2h-4a1 1 0 0 0 0 2h1v9h-1a1 1 0 0 0 0 2h4a1 1 0 0 0 0-2z"/><path d="m29 15a1 1 0 0 0 -1 1v7a3 3 0 0 1 -6 0v-7a1 1 0 0 0 -2 0v7a5 5 0 0 0 10 0v-7a1 1 0 0 0 -1-1z"/></g></svg>