<svg id="Icons" height="512" viewBox="0 0 60 60" width="512" xmlns="http://www.w3.org/2000/svg"><g fill="#31b791"><path d="m27 31h-11a1 1 0 0 1 0-2h11a1 1 0 0 1 0 2z"/><path d="m27.74 45.565a1 1 0 0 1 -.669-.256l-12.74-11.461a1 1 0 1 1 1.338-1.487l12.74 11.461a1 1 0 0 1 -.669 1.743z"/><path d="m16 27a1 1 0 0 1 -.669-1.743l11-9.9a1 1 0 0 1 1.338 1.487l-11 9.9a1 1 0 0 1 -.669.256z"/><path d="m44 31h-11a1 1 0 0 1 0-2h11a1 1 0 0 1 0 2z"/><path d="m33 44.889a1 1 0 0 1 -.664-1.747l11-9.778a1 1 0 1 1 1.328 1.494l-11 9.778a.993.993 0 0 1 -.664.253z"/><path d="m44 27.134a1 1 0 0 1 -.675-.262l-11-10.047a1 1 0 0 1 1.35-1.476l11 10.047a1 1 0 0 1 -.675 1.738z"/></g><path d="m55 24a1 1 0 0 1 -1-1v-5a3 3 0 0 0 -6 0 1 1 0 0 1 -2 0 5 5 0 0 1 10 0v5a1 1 0 0 1 -1 1z" fill="#484949"/><path d="m11 35c0 3 3 5 3 5h-10s3-2 3-5v-1h4z" fill="#b9bfcc"/><path d="m17 31v3a1 1 0 0 1 -1 1h-14a1 1 0 0 1 -1-1v-3l1-1h14z" fill="#d6dbe3"/><path d="m17 21v10h-16v-10a1 1 0 0 1 1-1h14a1 1 0 0 1 1 1z" fill="#3f3f3f"/><rect fill="#347584" height="8" rx="1" width="8" x="26" y="26"/><rect fill="#347584" height="8" rx="1" width="8" x="26" y="13"/><rect fill="#347584" height="8" rx="1" width="8" x="26" y="39"/><rect fill="#d6dbe3" height="16" rx="2" width="16" x="43" y="23"/><path d="m5 28a1 1 0 0 1 -.831-1.555l2-3a1 1 0 0 1 1.664 1.11l-2 3a1 1 0 0 1 -.833.445z" fill="#484949"/><path d="m11 28a1 1 0 0 1 -.831-1.555l2-3a1 1 0 0 1 1.664 1.11l-2 3a1 1 0 0 1 -.833.445z" fill="#484949"/><path d="m50 35a1 1 0 0 1 -.707-.293l-2-2a1 1 0 0 1 1.414-1.414l1.138 1.138 3.323-4.986a1 1 0 1 1 1.664 1.11l-4 6a1 1 0 0 1 -.733.44c-.034.005-.067.005-.099.005z" fill="#fff"/><path d="m15 41h-12a1 1 0 0 1 0-2h12a1 1 0 0 1 0 2z" fill="#d6dbe3"/></svg>