<svg id="Icons" height="512" viewBox="0 0 60 60" width="512" xmlns="http://www.w3.org/2000/svg"><path d="m19 48a1 1 0 0 1 -1-1v-6a1 1 0 0 1 2 0v6a1 1 0 0 1 -1 1z" fill="#347584"/><path d="m28 50h-7a1 1 0 0 1 0-2h7a1 1 0 0 1 0 2z" fill="#347584"/><path d="m17 50h-7a1 1 0 0 1 0-2h7a1 1 0 0 1 0 2z" fill="#347584"/><path d="m35 42h-32a2 2 0 0 1 -2-2v-4a2 2 0 0 1 2-2v-1h32z" fill="#ccd0da"/><path d="m35 34h-32a2 2 0 0 1 -2-2v-4a2 2 0 0 1 2-2v-1h18z" fill="#d6dbe3"/><path d="m20 18h-17a2.006 2.006 0 0 0 -2 2v4a2.006 2.006 0 0 0 2 2h18z" fill="#ccd0da"/><path d="m19 18v5.735a4 4 0 0 0 1.942 3.43l12.087 7.252a2 2 0 0 1 .971 1.715v8.868a2 2 0 0 0 2.743 1.857l6-2.4a2 2 0 0 0 1.257-1.857v-6.468a2 2 0 0 1 .971-1.715l12.087-7.252a4 4 0 0 0 1.942-3.43v-5.735z" fill="#347584"/><circle cx="19" cy="49" fill="#51949b" r="3"/><ellipse cx="39" cy="18" fill="#266677" rx="20" ry="3"/><path d="m6 23h-1a1 1 0 0 1 0-2h1a1 1 0 0 1 0 2z" fill="#2ca37e"/><path d="m11 23h-1a1 1 0 0 1 0-2h1a1 1 0 0 1 0 2z" fill="#347584"/><path d="m11 31h-1a1 1 0 0 1 0-2h1a1 1 0 0 1 0 2z" fill="#347584"/><path d="m11 39h-1a1 1 0 0 1 0-2h1a1 1 0 0 1 0 2z" fill="#347584"/><path d="m30 39h-8a1 1 0 0 1 0-2h8a1 1 0 0 1 0 2z" fill="#8991a0"/><path d="m6 31h-1a1 1 0 0 1 0-2h1a1 1 0 0 1 0 2z" fill="#2ca37e"/><path d="m6 39h-1a1 1 0 0 1 0-2h1a1 1 0 0 1 0 2z" fill="#2ca37e"/><path d="m27.33 31h-5.33a1 1 0 0 1 0-2h1.99z" fill="#8991a0"/><path d="m41.707 56.293a1 1 0 0 0 -1.414 0l-.293.293v-6.586a1 1 0 0 0 -2 0v6.586l-.293-.293a1 1 0 0 0 -1.414 1.414l2 2a1 1 0 0 0 1.414 0l2-2a1 1 0 0 0 0-1.414z" fill="#2ca37e"/><g fill="#f5ab01"><path d="m40.293 7.293-.293.293v-6.586a1 1 0 0 0 -2 0v6.586l-.293-.293a1 1 0 1 0 -1.414 1.414l2 2a1 1 0 0 0 1.414 0l2-2a1 1 0 1 0 -1.414-1.414z"/><path d="m24.293 9.293-.293.293v-6.586a1 1 0 0 0 -2 0v6.586l-.293-.293a1 1 0 0 0 -1.414 1.414l2 2a1 1 0 0 0 1.414 0l2-2a1 1 0 0 0 -1.414-1.414z"/><path d="m32.293 8.293-.293.293v-6.586a1 1 0 0 0 -2 0v6.586l-.293-.293a1 1 0 0 0 -1.414 1.414l2 2a1 1 0 0 0 1.414 0l2-2a1 1 0 0 0 -1.414-1.414z"/><path d="m48.293 8.293-.293.293v-6.586a1 1 0 0 0 -2 0v6.586l-.293-.293a1 1 0 0 0 -1.414 1.414l2 2a1 1 0 0 0 1.414 0l2-2a1 1 0 0 0 -1.414-1.414z"/><path d="m57.707 9.293a1 1 0 0 0 -1.414 0l-.293.293v-6.586a1 1 0 0 0 -2 0v6.586l-.293-.293a1 1 0 0 0 -1.414 1.414l2 2a1 1 0 0 0 1.414 0l2-2a1 1 0 0 0 0-1.414z"/></g></svg>