<svg id="Icons" height="512" viewBox="0 0 60 60" width="512" xmlns="http://www.w3.org/2000/svg"><path d="m10 7.444v34.994a11 11 0 0 0 6.081 9.839l13.025 6.512a2 2 0 0 0 1.788 0l13.025-6.512a11 11 0 0 0 6.081-9.839v-34.994a1 1 0 0 0 -.95-1c-2.924-.123-11.95-.844-17.9-5.076a1.98 1.98 0 0 0 -2.3 0c-5.95 4.232-14.976 4.953-17.9 5.078a1 1 0 0 0 -.95.998z" fill="#ccd0da"/><path d="m17.87 48.7a7 7 0 0 1 -3.87-6.264v-31.309a.994.994 0 0 1 .874-.991 39.833 39.833 0 0 0 14.126-4.149 2.057 2.057 0 0 1 2 0 39.838 39.838 0 0 0 14.125 4.149.989.989 0 0 1 .874.987v31.319a6.992 6.992 0 0 1 -3.869 6.258l-12.13 6.064z" fill="#31b791"/><path d="m41.89 31.08a1.029 1.029 0 0 0 -.34-.38l-5.55-3.7v-6.67a.993.993 0 0 0 -.05-.3 1.048 1.048 0 0 0 -.4-.53l-5-3.33a.963.963 0 0 0 -1.1 0l-5 3.33a1.048 1.048 0 0 0 -.4.53.993.993 0 0 0 -.05.3v6.67l-5.55 3.7a1 1 0 0 0 -.45.84v6.13a1.008 1.008 0 0 0 .45.83l5 3.33a.975.975 0 0 0 1.1 0l5.45-3.63 5.45 3.63a.975.975 0 0 0 1.1 0l5-3.33a1.008 1.008 0 0 0 .45-.83v-6.13a1.039 1.039 0 0 0 -.11-.46z" fill="#42838e"/><path d="m42 31.54v6.13a1.008 1.008 0 0 1 -.45.83l-5 3.33a1.016 1.016 0 0 1 -.55.17v-7l5.89-3.92a1.039 1.039 0 0 1 .11.46z" fill="#266677"/><path d="m41.89 31.08-5.89 3.92-6-4 6-4 5.55 3.7a1.029 1.029 0 0 1 .34.38z" fill="#347584"/><path d="m30 31v7.2l-5.45 3.63a1.016 1.016 0 0 1 -.55.17v-7z" fill="#266677"/><path d="m30 31-6 4-5.89-3.92a1.029 1.029 0 0 1 .34-.38l5.55-3.7z" fill="#347584"/><path d="m36 20.33v6.67l-6 4v-7.2l5.95-3.77a.993.993 0 0 1 .05.3z" fill="#266677"/><path d="m35.95 20.03-5.95 3.77-5.95-3.77a1.048 1.048 0 0 1 .4-.53l5-3.33a.963.963 0 0 1 1.1 0l5 3.33a1.048 1.048 0 0 1 .4.53z" fill="#347584"/><path d="m18 20a1 1 0 0 1 -1-1v-4.435a2 2 0 0 1 1.639-1.965 45.269 45.269 0 0 0 7.025-1.854 1 1 0 0 1 .672 1.883 47.153 47.153 0 0 1 -7.336 1.937v4.434a1 1 0 0 1 -1 1z" fill="#37cba1"/><path d="m18 26a1 1 0 0 1 -1-1v-2a1 1 0 0 1 2 0v2a1 1 0 0 1 -1 1z" fill="#37cba1"/><path d="m30 55.882-12.577-6.289a7.956 7.956 0 0 1 -4.423-7.156v-31.31a2 2 0 0 1 1.756-1.984 38.872 38.872 0 0 0 13.758-4.031 3.063 3.063 0 0 1 2.971 0 38.86 38.86 0 0 0 13.758 4.031 1.993 1.993 0 0 1 1.757 1.98v31.318a7.952 7.952 0 0 1 -4.423 7.152zm0-49.153a1.081 1.081 0 0 0 -.519.133 40.855 40.855 0 0 1 -14.49 4.267l.009 31.308a5.967 5.967 0 0 0 3.317 5.363l11.683 5.846 11.683-5.846a5.963 5.963 0 0 0 3.317-5.359v-31.318a40.7 40.7 0 0 1 -14.482-4.261 1.063 1.063 0 0 0 -.518-.133z" fill="#2ca37e"/></svg>