<svg id="Icons" height="512" viewBox="0 0 60 60" width="512" xmlns="http://www.w3.org/2000/svg"><path d="m35 7a1 1 0 0 1 -1-1v-3h-8v3a1 1 0 0 1 -2 0v-3a2 2 0 0 1 2-2h8a2 2 0 0 1 2 2v3a1 1 0 0 1 -1 1z" fill="#484949"/><g fill="#d6dbe3"><path d="m30 27a1 1 0 0 0 1-1v-7a1 1 0 0 0 -2 0v7a1 1 0 0 0 1 1z"/><path d="m36 36h-5v-6a1 1 0 0 0 -2 0v6h-5a1 1 0 0 0 0 2h12a1 1 0 0 0 0-2z"/><path d="m47 36h-8a1 1 0 0 0 0 2h8a1 1 0 0 0 0-2z"/><path d="m13 38h7a1 1 0 0 0 0-2h-7a1 1 0 0 0 0 2z"/><path d="m19 29h8a1 1 0 0 0 0-2h-8a1 1 0 0 0 0 2z"/><path d="m33 29h8a1 1 0 0 0 0-2h-8a1 1 0 0 0 0 2z"/><path d="m12 39a1 1 0 0 0 -2 0v6a1 1 0 0 0 2 0z"/><path d="m21 46h-8a1 1 0 0 0 0 2h8a1 1 0 0 0 0-2z"/><path d="m49 38a1 1 0 0 0 -1 1v6a1 1 0 0 0 2 0v-6a1 1 0 0 0 -1-1z"/><path d="m46 46h-7a1 1 0 0 0 0 2h7a1 1 0 0 0 0-2z"/><path d="m35 46h-10a1 1 0 0 0 0 2h4v7a1 1 0 0 0 2 0v-7h4a1 1 0 0 0 0-2z"/></g><path d="m39 10v9a1 1 0 0 1 -1 1h-16a1 1 0 0 1 -1-1v-9z" fill="#b28364"/><rect fill="#347584" height="6" rx="1" width="8" x="12" y="25"/><rect fill="#347584" height="6" rx="1" width="6" x="8" y="44"/><rect fill="#347584" height="6" rx="1" width="6" x="20" y="44"/><rect fill="#347584" height="6" rx="1" transform="matrix(-1 0 0 -1 98 94)" width="6" x="46" y="44"/><rect fill="#347584" height="6" rx="1" transform="matrix(-1 0 0 -1 74 94)" width="6" x="34" y="44"/><rect fill="#347584" height="6" rx="1" width="8" x="26" y="25"/><rect fill="#31b791" height="5" rx="1" width="24" x="18" y="54"/><rect fill="#347584" height="6" rx="1" width="8" x="40" y="25"/><circle cx="22" cy="37" fill="#8991a0" r="3"/><circle cx="11" cy="37" fill="#8991a0" r="3"/><circle cx="49" cy="37" fill="#8991a0" r="3"/><circle cx="38" cy="37" fill="#8991a0" r="3"/><path d="m24.333 13a1 1 0 0 1 -.6-.2l-3.333-2.5a1 1 0 0 1 -.4-.8v-3.5a1 1 0 0 1 1-1h18a1 1 0 0 1 1 1v3.5a1 1 0 0 1 -.4.8l-3.333 2.5a1 1 0 0 1 -.6.2z" fill="#c89876"/><rect fill="#fcc10a" height="4" rx="1" width="4" x="28" y="11"/></svg>