<svg id="Icons" height="512" viewBox="0 0 60 60" width="512" xmlns="http://www.w3.org/2000/svg"><path d="m1 54v4a1 1 0 0 0 1 1h56a1 1 0 0 0 1-1v-4l-1-1h-56z" fill="#266677"/><path d="m54.85 48 4.15 6h-58l4.15-6 .85-1h48z" fill="#347584"/><path d="m1 43v4a1 1 0 0 0 1 1h56a1 1 0 0 0 1-1v-4l-1-1h-56z" fill="#266677"/><path d="m54.85 37 4.15 6h-58l4.15-6 .85-1h48z" fill="#347584"/><path d="m1 32v4a1 1 0 0 0 1 1h56a1 1 0 0 0 1-1v-4l-1-1h-56z" fill="#266677"/><path d="m12 19h-.952a2 2 0 0 0 -1.644.862l-8.404 12.138h58l-8.4-12.138a2 2 0 0 0 -1.648-.862z" fill="#347584"/><g fill="#37cba1"><path d="m22 6a1 1 0 0 0 1 1h2a1 1 0 0 0 0-2v-4a1 1 0 0 0 -1.707-.707l-1 1a1 1 0 0 0 .707 1.707v2a1 1 0 0 0 -1 1z"/><path d="m36 6a1 1 0 0 0 1 1h2a1 1 0 0 0 0-2v-4a1 1 0 0 0 -1.707-.707l-1 1a1 1 0 0 0 .707 1.707v2a1 1 0 0 0 -1 1z"/><path d="m42 6a1 1 0 0 0 1 1h2a1 1 0 0 0 0-2v-4a1 1 0 0 0 -1.707-.707l-1 1a1 1 0 0 0 .707 1.707v2a1 1 0 0 0 -1 1z"/><path d="m31 7a3 3 0 0 0 3-3v-1a3 3 0 0 0 -6 0v1a3 3 0 0 0 3 3zm-1-4a1 1 0 0 1 2 0v1a1 1 0 0 1 -2 0z"/><path d="m17 7a3 3 0 0 0 3-3v-1a3 3 0 0 0 -6 0v1a3 3 0 0 0 3 3zm-1-4a1 1 0 0 1 2 0v1a1 1 0 0 1 -2 0z"/><path d="m25 23v-4a1 1 0 0 0 -1.707-.707l-1 1a1 1 0 0 0 .707 1.707v2a1 1 0 0 0 0 2h2a1 1 0 0 0 0-2z"/><path d="m39 23v-4a1 1 0 0 0 -1.707-.707l-1 1a1 1 0 0 0 .707 1.707v2a1 1 0 0 0 0 2h2a1 1 0 0 0 0-2z"/><path d="m45 23v-4a1 1 0 0 0 -1.707-.707l-1 1a1 1 0 0 0 .707 1.707v2a1 1 0 0 0 0 2h2a1 1 0 0 0 0-2z"/><path d="m31 18a3 3 0 0 0 -3 3v1a3 3 0 0 0 6 0v-1a3 3 0 0 0 -3-3zm1 4a1 1 0 0 1 -2 0v-1a1 1 0 0 1 2 0z"/><path d="m17 18a3 3 0 0 0 -3 3v1a3 3 0 0 0 6 0v-1a3 3 0 0 0 -3-3zm1 4a1 1 0 0 1 -2 0v-1a1 1 0 0 1 2 0z"/><path d="m37 16a1 1 0 0 0 0-2v-4a1 1 0 0 0 -1.707-.707l-1 1a1 1 0 0 0 .707 1.707v2a1 1 0 0 0 0 2z"/><path d="m14 15a1 1 0 0 0 1 1h2a1 1 0 0 0 0-2v-4a1 1 0 0 0 -1.707-.707l-1 1a1 1 0 0 0 .707 1.707v2a1 1 0 0 0 -1 1z"/><path d="m23 16a1 1 0 0 0 0-2v-4a1 1 0 0 0 -1.707-.707l-1 1a1 1 0 0 0 .707 1.707v2a1 1 0 0 0 0 2z"/><path d="m32 13v-1a3 3 0 0 0 -6 0v1a3 3 0 0 0 6 0zm-4 0v-1a1 1 0 0 1 2 0v1a1 1 0 0 1 -2 0z"/><path d="m43 9a3 3 0 0 0 -3 3v1a3 3 0 0 0 6 0v-1a3 3 0 0 0 -3-3zm1 4a1 1 0 0 1 -2 0v-1a1 1 0 0 1 2 0z"/></g></svg>