<svg id="Icons" height="512" viewBox="0 0 60 60" width="512" xmlns="http://www.w3.org/2000/svg"><path d="m10 16a5 5 0 0 0 -5 5v24a5 5 0 0 0 5 5h3a1 1 0 0 1 1 1v7.03a.978.978 0 0 0 1.57.77l11.16-8.592a1 1 0 0 1 .61-.208h22.66a5 5 0 0 0 5-5v-24a5 5 0 0 0 -5-5z" fill="#ccd0da"/><path d="m34.029 3.217 14.227 22.483a4.757 4.757 0 0 1 -4.029 7.3h-28.454a4.757 4.757 0 0 1 -4.029-7.3l14.227-22.483a4.769 4.769 0 0 1 8.058 0z" fill="#d84557"/><circle cx="30" cy="27" fill="#f0f2f5" r="2"/><path d="m30 21a2.17 2.17 0 0 1 -2.163-1.99l-.585-7.021a2.76 2.76 0 0 1 2.748-2.989 2.76 2.76 0 0 1 2.751 2.989l-.585 7.021a2.17 2.17 0 0 1 -2.166 1.99z" fill="#f0f2f5"/><g fill="#8991a0"><path d="m15 39h-3a1 1 0 0 1 0-2h3a1 1 0 0 1 0 2z"/><path d="m39 44h-3a1 1 0 0 1 0-2h3a1 1 0 0 1 0 2z"/><path d="m43 39h-24a1 1 0 0 1 0-2h24a1 1 0 0 1 0 2z"/><path d="m32 44h-20a1 1 0 0 1 0-2h20a1 1 0 0 1 0 2z"/><path d="m48 39h-1a1 1 0 0 1 0-2h1a1 1 0 0 1 0 2z"/></g></svg>