<svg id="Icons" height="512" viewBox="0 0 60 60" width="512" xmlns="http://www.w3.org/2000/svg"><path d="m49.93 19.29a1.173 1.173 0 0 0 -.74-.96l-2.61-1.05a16.966 16.966 0 0 0 -2.23-5.37l1.11-2.59a1.158 1.158 0 0 0 -.16-1.2 15.318 15.318 0 0 0 -1.16-1.26 15.318 15.318 0 0 0 -1.26-1.16 1.158 1.158 0 0 0 -1.2-.16l-2.59 1.11a16.966 16.966 0 0 0 -5.37-2.23l-1.05-2.61a1.173 1.173 0 0 0 -.96-.74c-.56-.05-1.14-.07-1.71-.07s-1.15.02-1.71.07a1.173 1.173 0 0 0 -.96.74l-1.05 2.61a16.966 16.966 0 0 0 -5.37 2.23l-2.59-1.11a1.158 1.158 0 0 0 -1.2.16 15.318 15.318 0 0 0 -1.26 1.16 15.318 15.318 0 0 0 -1.16 1.26 1.158 1.158 0 0 0 -.16 1.2l1.11 2.59a16.966 16.966 0 0 0 -2.23 5.37l-2.61 1.05a1.173 1.173 0 0 0 -.74.96c-.05.56-.07 1.14-.07 1.71s.02 1.15.07 1.71a1.173 1.173 0 0 0 .74.96l2.61 1.05a16.966 16.966 0 0 0 2.23 5.37l-1.11 2.59a1.158 1.158 0 0 0 .16 1.2c.23.28.47.55.74.82h29.12c.27-.27.51-.54.74-.82a1.158 1.158 0 0 0 .16-1.2l-1.11-2.59a16.966 16.966 0 0 0 2.23-5.37l2.61-1.05a1.173 1.173 0 0 0 .74-.96c.05-.56.07-1.14.07-1.71s-.02-1.15-.07-1.71zm-19.93 14.71a13 13 0 1 1 13-13 13 13 0 0 1 -13 13z" fill="#347584"/><circle cx="7" cy="30" fill="#b9bfcc" r="3"/><circle cx="53" cy="30" fill="#b9bfcc" r="3"/><path d="m50 36a17.274 17.274 0 0 1 -7-2c-5.215-2.608-5-6-13-6s-7.785 3.392-13 6a17.274 17.274 0 0 1 -7 2h-1v20h42v-20z" fill="#5b5b5b"/><path d="m5 33h4a1 1 0 0 1 1 1v22a0 0 0 0 1 0 0h-6a0 0 0 0 1 0 0v-22a1 1 0 0 1 1-1z" fill="#b28364"/><path d="m50 33h6a0 0 0 0 1 0 0v22a1 1 0 0 1 -1 1h-4a1 1 0 0 1 -1-1v-22a0 0 0 0 1 0 0z" fill="#b28364" transform="matrix(-1 0 0 -1 106 89)"/><g fill="#484949"><rect height="4" rx="1" width="58" x="1" y="55"/><path d="m14 52a1 1 0 0 1 -1-1v-12a1 1 0 0 1 2 0v12a1 1 0 0 1 -1 1z"/><path d="m18 52a1 1 0 0 1 -1-1v-13a1 1 0 0 1 2 0v13a1 1 0 0 1 -1 1z"/><path d="m22 52a1 1 0 0 1 -1-1v-15a1 1 0 0 1 2 0v15a1 1 0 0 1 -1 1z"/><path d="m26 52a1 1 0 0 1 -1-1v-18a1 1 0 0 1 2 0v18a1 1 0 0 1 -1 1z"/><path d="m46 52a1 1 0 0 1 -1-1v-12a1 1 0 0 1 2 0v12a1 1 0 0 1 -1 1z"/><path d="m42 52a1 1 0 0 1 -1-1v-13a1 1 0 0 1 2 0v13a1 1 0 0 1 -1 1z"/><path d="m38 52a1 1 0 0 1 -1-1v-15a1 1 0 0 1 2 0v15a1 1 0 0 1 -1 1z"/><path d="m34 52a1 1 0 0 1 -1-1v-18a1 1 0 0 1 2 0v18a1 1 0 0 1 -1 1z"/></g><path d="m29 55v-27a1 1 0 0 1 2 0v27z" fill="#3a3a3a"/><path d="m44 21a13.975 13.975 0 0 1 -4.71 10.47c-.53-.46-1.02-.9-1.55-1.31a12 12 0 1 0 -15.48 0c-.53.41-1.02.85-1.55 1.31a14 14 0 1 1 23.29-10.47z" fill="#266677"/><path d="m24 17a3 3 0 0 0 -3 3v4a1 1 0 0 0 2 0v-1h2v1a1 1 0 0 0 2 0v-4a3 3 0 0 0 -3-3zm-1 4v-1a1 1 0 0 1 2 0v1z" fill="#2ca37e"/><path d="m32 17h-2a1 1 0 0 0 -1 1v6a1 1 0 0 0 2 0v-1h1a3 3 0 0 0 0-6zm0 4h-1v-2h1a1 1 0 0 1 0 2z" fill="#2ca37e"/><path d="m38 17a1 1 0 0 0 -1 1v6a1 1 0 0 0 2 0v-6a1 1 0 0 0 -1-1z" fill="#2ca37e"/></svg>