<svg id="Icons" height="512" viewBox="0 0 60 60" width="512" xmlns="http://www.w3.org/2000/svg"><path d="m34 23v-19a3 3 0 0 0 -3-3h-27a3 3 0 0 0 -3 3v22a3 3 0 0 0 3 3h2a1 1 0 0 1 1 1v6.191a.807.807 0 0 0 1.347.6l8.368-7.534a1 1 0 0 1 .669-.257h8.616z" fill="#347584"/><path d="m59 26v22a3 3 0 0 1 -3 3h-2a1 1 0 0 0 -1 1v6.19a.808.808 0 0 1 -1.35.6l-8.365-7.533a1 1 0 0 0 -.669-.257h-13.616a3 3 0 0 1 -3-3v-22a3 3 0 0 1 3-3h27a3 3 0 0 1 3 3z" fill="#b9bfcc"/><path d="m50.89 13.75-4.04 4.85a1.108 1.108 0 0 1 -1.7 0l-4.04-4.85a.456.456 0 0 1 .35-.75h2.54a10.508 10.508 0 0 0 -2.12-6.39 9.593 9.593 0 0 0 -3.65-2.9.368.368 0 0 1 .14-.71h1.63a8 8 0 0 1 8 8v2h2.54a.456.456 0 0 1 .35.75z" fill="#31b791"/><g fill="#fff"><path d="m15 18v-8a1 1 0 0 0 -1.707-.707l-1 1a1 1 0 0 0 .707 1.707v6a1 1 0 0 0 0 2h2a1 1 0 0 0 0-2z"/><path d="m7 9a3 3 0 0 0 -3 3v5a3 3 0 0 0 6 0v-5a3 3 0 0 0 -3-3zm1 8a1 1 0 0 1 -2 0v-5a1 1 0 0 1 2 0z"/><path d="m20 9a3 3 0 0 0 -3 3v5a3 3 0 0 0 6 0v-5a3 3 0 0 0 -3-3zm1 8a1 1 0 0 1 -2 0v-5a1 1 0 0 1 2 0z"/><path d="m28 9a3 3 0 0 0 -3 3v5a3 3 0 0 0 6 0v-5a3 3 0 0 0 -3-3zm1 8a1 1 0 0 1 -2 0v-5a1 1 0 0 1 2 0z"/><path d="m50.9 42.553-6.285-12.553a1.806 1.806 0 0 0 -3.23 0l-6.285 12.553a1 1 0 1 0 1.79.894l2.229-4.447h7.762l2.224 4.447a1 1 0 0 0 1.79-.894zm-10.781-5.553 2.881-5.76 2.881 5.76z"/></g></svg>