<svg id="Icons" height="512" viewBox="0 0 60 60" width="512" xmlns="http://www.w3.org/2000/svg"><path d="m46 48h-32a4 4 0 0 1 -4-4v-4a4 4 0 0 1 4-4v-1h32v1a4 4 0 0 1 4 4v4a4 4 0 0 1 -4 4z" fill="#ccd0da"/><path d="m46 36h-32a4 4 0 0 1 -4-4v-4a4 4 0 0 1 4-4v-1h32v1a4 4 0 0 1 4 4v4a4 4 0 0 1 -4 4z" fill="#d6dbe3"/><rect fill="#ccd0da" height="12" rx="4" width="40" x="10" y="12"/><circle cx="16" cy="18" fill="#2ca37e" r="2"/><circle cx="24" cy="18" fill="#347584" r="2"/><circle cx="16" cy="30" fill="#2ca37e" r="2"/><circle cx="24" cy="30" fill="#347584" r="2"/><circle cx="24" cy="42" fill="#347584" r="2"/><circle cx="16" cy="42" fill="#2ca37e" r="2"/><g fill="#8991a0"><path d="m40 17h-1a1 1 0 0 1 0-2h1a1 1 0 0 1 0 2z"/><path d="m40 21h-1a1 1 0 0 1 0-2h1a1 1 0 0 1 0 2z"/><path d="m45 17h-1a1 1 0 0 1 0-2h1a1 1 0 0 1 0 2z"/><path d="m45 21h-1a1 1 0 0 1 0-2h1a1 1 0 0 1 0 2z"/><path d="m40 29h-1a1 1 0 0 1 0-2h1a1 1 0 0 1 0 2z"/><path d="m40 33h-1a1 1 0 0 1 0-2h1a1 1 0 0 1 0 2z"/><path d="m45 29h-1a1 1 0 0 1 0-2h1a1 1 0 0 1 0 2z"/><path d="m45 33h-1a1 1 0 0 1 0-2h1a1 1 0 0 1 0 2z"/><path d="m40 41h-1a1 1 0 0 1 0-2h1a1 1 0 0 1 0 2z"/><path d="m40 45h-1a1 1 0 0 1 0-2h1a1 1 0 0 1 0 2z"/><path d="m45 41h-1a1 1 0 0 1 0-2h1a1 1 0 0 1 0 2z"/><path d="m45 45h-1a1 1 0 0 1 0-2h1a1 1 0 0 1 0 2z"/></g><path d="m30 0a30 30 0 1 0 30 30 30.034 30.034 0 0 0 -30-30zm-28 30a27.981 27.981 0 0 1 35.7-26.914l-17.306 53.214a28.048 28.048 0 0 1 -18.394-26.3zm28 28a27.893 27.893 0 0 1 -7.7-1.086l17.306-53.214a28 28 0 0 1 -9.606 54.3z" fill="#d84557"/></svg>