<svg id="Icons" height="512" viewBox="0 0 60 60" width="512" xmlns="http://www.w3.org/2000/svg"><path d="m19 51v6c0 1.1 4.925 2 11 2s11-.9 11-2v-6z" fill="#42838e"/><path d="m19 45v6c0 1.1 4.925 2 11 2s11-.9 11-2v-6z" fill="#347584"/><rect fill="#ccd0da" height="6" rx="2" width="18" x="21" y="5"/><rect fill="#ccd0da" height="6" rx="2" width="18" x="21" y="15"/><rect fill="#ccd0da" height="6" rx="2" width="18" x="21" y="25"/><ellipse cx="30" cy="45" fill="#42838e" rx="11" ry="2"/><path d="m33.707 39.293a1 1 0 0 0 -1.414 0l-1.293 1.293v-5.586a1 1 0 0 0 -2 0v5.586l-1.293-1.293a1 1 0 0 0 -1.414 1.414l3 3a1 1 0 0 0 1.414 0l3-3a1 1 0 0 0 0-1.414z" fill="#2ca37e"/><g fill="#31b791"><path d="m19 36a3 3 0 0 1 -3-3 1 1 0 0 1 2 0 1 1 0 0 0 1 1 1 1 0 0 1 0 2z"/><path d="m17 30a1 1 0 0 1 -1-1v-1a1 1 0 0 1 2 0v1a1 1 0 0 1 -1 1z"/><path d="m17 25a1 1 0 0 1 -1-1v-1a1 1 0 0 1 2 0v1a1 1 0 0 1 -1 1z"/><path d="m17 20a1 1 0 0 1 -1-1v-2a1 1 0 0 1 2 0v2a1 1 0 0 1 -1 1z"/><path d="m17 14a1 1 0 0 1 -1-1v-1a1 1 0 0 1 2 0v1a1 1 0 0 1 -1 1z"/><path d="m17 9a1 1 0 0 1 -1-1v-1a1 1 0 0 1 2 0v1a1 1 0 0 1 -1 1z"/><path d="m17 4a1 1 0 0 1 -1-1 3 3 0 0 1 3-3 1 1 0 0 1 0 2 1 1 0 0 0 -1 1 1 1 0 0 1 -1 1z"/><path d="m41 36a1 1 0 0 1 0-2 1 1 0 0 0 1-1 1 1 0 0 1 2 0 3 3 0 0 1 -3 3z"/><path d="m43 30a1 1 0 0 1 -1-1v-1a1 1 0 0 1 2 0v1a1 1 0 0 1 -1 1z"/><path d="m43 25a1 1 0 0 1 -1-1v-1a1 1 0 0 1 2 0v1a1 1 0 0 1 -1 1z"/><path d="m43 20a1 1 0 0 1 -1-1v-2a1 1 0 0 1 2 0v2a1 1 0 0 1 -1 1z"/><path d="m43 14a1 1 0 0 1 -1-1v-1a1 1 0 0 1 2 0v1a1 1 0 0 1 -1 1z"/><path d="m43 9a1 1 0 0 1 -1-1v-1a1 1 0 0 1 2 0v1a1 1 0 0 1 -1 1z"/><path d="m43 4a1 1 0 0 1 -1-1 1 1 0 0 0 -1-1 1 1 0 0 1 0-2 3 3 0 0 1 3 3 1 1 0 0 1 -1 1z"/><path d="m37 2h-2a1 1 0 0 1 0-2h2a1 1 0 0 1 0 2z"/><path d="m31 2h-2a1 1 0 0 1 0-2h2a1 1 0 0 1 0 2z"/><path d="m25 2h-2a1 1 0 0 1 0-2h2a1 1 0 0 1 0 2z"/><path d="m37 36h-2a1 1 0 0 1 0-2h2a1 1 0 0 1 0 2z"/><path d="m31 36h-2a1 1 0 0 1 0-2h2a1 1 0 0 1 0 2z"/><path d="m25 36h-2a1 1 0 0 1 0-2h2a1 1 0 0 1 0 2z"/></g></svg>