<svg id="Icons" height="512" viewBox="0 0 60 60" width="512" xmlns="http://www.w3.org/2000/svg"><path d="m32.293 39.293-1.293 1.293v-7.586h-2v7.586l-1.293-1.293a1 1 0 0 0 -1.414 1.414l3 3a1 1 0 0 0 1.414 0l3-3a1 1 0 0 0 -1.414-1.414z" fill="#ccd0da"/><path d="m24.167 30.19-7.055 7.621-.112-1.872a1.015 1.015 0 0 0 -1.061-.939 1 1 0 0 0 -.939 1.061l.257 4.234a1 1 0 0 0 1 .939h.061l4.236-.256a1 1 0 0 0 .937-1.059 1.011 1.011 0 0 0 -1.058-.938l-1.776.108 6.978-7.537z" fill="#ccd0da"/><path d="m44.061 35a1.02 1.02 0 0 0 -1.061.939l-.114 1.872-7.053-7.621-1.467 1.36 6.978 7.537-1.776-.108a1 1 0 0 0 -.121 2l4.236.256h.061a1 1 0 0 0 1-.939l.256-4.235a1 1 0 0 0 -.939-1.061z" fill="#ccd0da"/><path d="m16.475 18.203h2v10.384h-2z" fill="#ccd0da" transform="matrix(.305 -.952 .952 .305 -10.139 32.891)"/><path d="m37.384 22.395h10.281v2h-10.281z" fill="#ccd0da" transform="matrix(.952 -.306 .306 .952 -5.116 14.118)"/><path d="m14 21a3.961 3.961 0 0 1 -.78 2.37 6.07 6.07 0 0 0 -1.22 3.62v.01l-2 1-2-1v-.01a6.07 6.07 0 0 0 -1.22-3.62 4 4 0 1 1 7.22-2.37z" fill="#fccb55"/><ellipse cx="30" cy="53" fill="#31b791" rx="7" ry="6"/><ellipse cx="12" cy="49" fill="#d84557" rx="7" ry="6"/><ellipse cx="48" cy="49" fill="#d84557" rx="7" ry="6"/><ellipse cx="30" cy="26" fill="#347584" rx="9" ry="8"/><rect fill="#347584" height="13" rx="5" width="31" x="15" y="1"/><path d="m8 27h4a0 0 0 0 1 0 0v2a2 2 0 0 1 -2 2 2 2 0 0 1 -2-2v-2a0 0 0 0 1 0 0z" fill="#d6dbe3"/><path d="m54 21a3.961 3.961 0 0 1 -.78 2.37 6.07 6.07 0 0 0 -1.22 3.62v.01l-2 1-2-1v-.01a6.07 6.07 0 0 0 -1.22-3.62 4 4 0 1 1 7.22-2.37z" fill="#fccb55"/><path d="m48 27h4a0 0 0 0 1 0 0v2a2 2 0 0 1 -2 2 2 2 0 0 1 -2-2v-2a0 0 0 0 1 0 0z" fill="#d6dbe3"/><g fill="#fff"><path d="m29 56a1 1 0 0 1 -.707-.293l-1-1a1 1 0 0 1 1.414-1.414l.185.185 2.308-3.078a1 1 0 0 1 1.6 1.2l-3 4a1 1 0 0 1 -.729.4z"/><path d="m14.707 46.293a1 1 0 0 0 -1.414 0l-1.293 1.293-1.293-1.293a1 1 0 0 0 -1.414 1.414l1.293 1.293-1.293 1.293a1 1 0 1 0 1.414 1.414l1.293-1.293 1.293 1.293a1 1 0 0 0 1.414-1.414l-1.293-1.293 1.293-1.293a1 1 0 0 0 0-1.414z"/><path d="m49.414 49 1.293-1.293a1 1 0 0 0 -1.414-1.414l-1.293 1.293-1.293-1.293a1 1 0 0 0 -1.414 1.414l1.293 1.293-1.293 1.293a1 1 0 1 0 1.414 1.414l1.293-1.293 1.293 1.293a1 1 0 0 0 1.414-1.414z"/><path d="m30 21a3.01 3.01 0 0 0 -2.6 1.5 1 1 0 0 0 1.731 1 1 1 0 1 1 .869 1.5 1 1 0 0 0 -1 1v1a1 1 0 0 0 2 0v-.171a3 3 0 0 0 -1-5.829z"/><path d="m30 29a1 1 0 0 0 -1 1v.111a1 1 0 1 0 2 0v-.111a1 1 0 0 0 -1-1z"/><path d="m22 4h-2a1 1 0 0 0 -1 1v5a1 1 0 0 0 1 1h2a3 3 0 0 0 3-3v-1a3 3 0 0 0 -3-3zm1 4a1 1 0 0 1 -1 1h-1v-3h1a1 1 0 0 1 1 1z"/><path d="m30 4h-2a1 1 0 0 0 -1 1v5a1 1 0 0 0 1 1h2a3 3 0 0 0 3-3v-1a3 3 0 0 0 -3-3zm1 4a1 1 0 0 1 -1 1h-1v-3h1a1 1 0 0 1 1 1z"/><path d="m38 4h-2a1 1 0 0 0 -1 1v5a1 1 0 0 0 1 1h2a3 3 0 0 0 3-3v-1a3 3 0 0 0 -3-3zm1 4a1 1 0 0 1 -1 1h-1v-3h1a1 1 0 0 1 1 1z"/></g></svg>