<svg id="Icons" height="512" viewBox="0 0 60 60" width="512" xmlns="http://www.w3.org/2000/svg"><path d="m17 3a2.006 2.006 0 0 1 2-2h28.343a4 4 0 0 1 2.829 1.172l7.656 7.656a4 4 0 0 1 1.172 2.829v44.343a2.006 2.006 0 0 1 -2 2h-38a2.006 2.006 0 0 1 -2-2z" fill="#d6dbe3"/><rect fill="#347584" height="20" rx="3" width="38" x="1" y="32"/><path d="m58.64 11h-7.64a2.006 2.006 0 0 1 -2-2v-7.64a4.089 4.089 0 0 1 1.17.81l7.66 7.66a4.089 4.089 0 0 1 .81 1.17z" fill="#b9bfcc"/><path d="m11.929 36.629a1 1 0 0 0 -1.858 0l-4 10a1 1 0 0 0 1.858.742l.948-2.371h4.246l.948 2.371a1 1 0 0 0 .929.629.986.986 0 0 0 .371-.071 1 1 0 0 0 .558-1.3zm-2.252 6.371 1.323-3.308 1.323 3.308z" fill="#fff"/><path d="m21 36h-2a1 1 0 0 0 -1 1v10a1 1 0 0 0 2 0v-3h1a4 4 0 0 0 0-8zm0 6h-1v-4h1a2 2 0 0 1 0 4z" fill="#fff"/><path d="m31 46h-1v-8h1a1 1 0 0 0 0-2h-4a1 1 0 0 0 0 2h1v8h-1a1 1 0 0 0 0 2h4a1 1 0 0 0 0-2z" fill="#fff"/><g fill="#b9bfcc"><path d="m22 12h20a1 1 0 0 0 0-2h-20a1 1 0 0 0 0 2z"/><path d="m22 17h27a1 1 0 0 0 0-2h-27a1 1 0 0 0 0 2z"/><path d="m54 20h-21a1 1 0 0 0 0 2h21a1 1 0 0 0 0-2z"/><path d="m45 26a1 1 0 0 0 -1-1h-22a1 1 0 0 0 0 2h22a1 1 0 0 0 1-1z"/><path d="m54 25h-6a1 1 0 0 0 0 2h6a1 1 0 0 0 0-2z"/><path d="m54 30h-12a1 1 0 0 0 0 2h12a1 1 0 0 0 0-2z"/><path d="m43 37h3a1 1 0 0 0 0-2h-3a1 1 0 0 0 0 2z"/><path d="m54 40h-11a1 1 0 0 0 0 2h11a1 1 0 0 0 0-2z"/><path d="m54 45h-11a1 1 0 0 0 0 2h11a1 1 0 0 0 0-2z"/><path d="m48 50h-5a1 1 0 0 0 0 2h5a1 1 0 0 0 0-2z"/><path d="m22 22h7a1 1 0 0 0 0-2h-7a1 1 0 0 0 0 2z"/><path d="m53 17h1a1 1 0 0 0 0-2h-1a1 1 0 0 0 0 2z"/><path d="m54 35h-4a1 1 0 0 0 0 2h4a1 1 0 0 0 0-2z"/></g></svg>