<svg id="Icons" height="512" viewBox="0 0 60 60" width="512" xmlns="http://www.w3.org/2000/svg"><path d="m11 23a1 1 0 0 1 -1-1v-6a1 1 0 0 1 2 0v6a1 1 0 0 1 -1 1z" fill="#31b791"/><path d="m49 40a1 1 0 0 1 -1-1v-6a1 1 0 0 1 2 0v6a1 1 0 0 1 -1 1z" fill="#31b791"/><path d="m18.94 8.14a.923.923 0 0 0 -.53-.73l-.54-.23a7.113 7.113 0 0 0 -.73-1.75l.22-.55a.9.9 0 0 0 -.13-.89c-.18-.22-.37-.44-.57-.65s-.43-.39-.65-.57a.9.9 0 0 0 -.89-.13l-.55.22a7.113 7.113 0 0 0 -1.75-.73l-.23-.54a.923.923 0 0 0 -.73-.53 6.193 6.193 0 0 0 -1.72 0 .923.923 0 0 0 -.73.53l-.23.54a7.113 7.113 0 0 0 -1.75.73l-.55-.22a.9.9 0 0 0 -.89.13c-.22.18-.44.37-.65.57s-.39.43-.57.65a.9.9 0 0 0 -.13.89l.22.55a7.113 7.113 0 0 0 -.73 1.75l-.54.23a.923.923 0 0 0 -.53.73 6.193 6.193 0 0 0 0 1.72.923.923 0 0 0 .53.73l.54.23a7.113 7.113 0 0 0 .73 1.75l-.22.55a.9.9 0 0 0 .13.89c.18.22.37.44.57.65s.43.39.65.57a.9.9 0 0 0 .89.13l.55-.22a7.113 7.113 0 0 0 1.75.73l.23.54a.923.923 0 0 0 .73.53 6.193 6.193 0 0 0 1.72 0 .923.923 0 0 0 .73-.53l.23-.54a7.113 7.113 0 0 0 1.75-.73l.55.22a.9.9 0 0 0 .89-.13c.22-.18.44-.37.65-.57s.39-.43.57-.65a.9.9 0 0 0 .13-.89l-.22-.55a7.113 7.113 0 0 0 .73-1.75l.54-.23a.923.923 0 0 0 .53-.73 6.193 6.193 0 0 0 0-1.72zm-7.94 3.86a3 3 0 1 1 3-3 3 3 0 0 1 -3 3z" fill="#d6dbe3"/><path d="m20.87 33.08a.914.914 0 0 0 -.36-.37l-4.51-2.71v-5.6a.922.922 0 0 0 -.13-.49.983.983 0 0 0 -.36-.37l-4-2.4a.984.984 0 0 0 -1.02 0l-4 2.4a.983.983 0 0 0 -.36.37.922.922 0 0 0 -.13.49v5.6l-4.51 2.71a1.009 1.009 0 0 0 -.49.86v5.03a.99.99 0 0 0 .49.86l4 2.4a1 1 0 0 0 1.02 0l4.49-2.69 4.49 2.69a1 1 0 0 0 1.02 0l4-2.4a.99.99 0 0 0 .49-.86v-5.03a.922.922 0 0 0 -.13-.49z" fill="#42838e"/><path d="m16 24.4v5.6l-5 3v-6.17l4.87-2.92a.922.922 0 0 1 .13.49z" fill="#266677"/><path d="m15.87 23.91-4.87 2.92-4.87-2.92a.983.983 0 0 1 .36-.37l4-2.4a.984.984 0 0 1 1.02 0l4 2.4a.983.983 0 0 1 .36.37z" fill="#347584"/><path d="m11 33v6.17l-4.49 2.69a.913.913 0 0 1 -.51.14v-6z" fill="#266677"/><path d="m11 33-5 3-4.87-2.92a.914.914 0 0 1 .36-.37l4.51-2.71z" fill="#347584"/><path d="m21 33.57v5.03a.99.99 0 0 1 -.49.86l-4 2.4a.913.913 0 0 1 -.51.14v-6l4.87-2.92a.922.922 0 0 1 .13.49z" fill="#266677"/><path d="m20.87 33.08-4.87 2.92-5-3 5-3 4.51 2.71a.914.914 0 0 1 .36.37z" fill="#347584"/><path d="m56.94 25.14a.923.923 0 0 0 -.53-.73l-.54-.23a7.113 7.113 0 0 0 -.73-1.75l.22-.55a.9.9 0 0 0 -.13-.89c-.18-.22-.37-.44-.57-.65s-.43-.39-.65-.57a.9.9 0 0 0 -.89-.13l-.55.22a7.113 7.113 0 0 0 -1.75-.73l-.23-.54a.923.923 0 0 0 -.73-.53 6.193 6.193 0 0 0 -1.72 0 .923.923 0 0 0 -.73.53l-.23.54a7.113 7.113 0 0 0 -1.75.73l-.55-.22a.9.9 0 0 0 -.89.13c-.22.18-.44.37-.65.57s-.39.43-.57.65a.9.9 0 0 0 -.13.89l.22.55a7.113 7.113 0 0 0 -.73 1.75l-.54.23a.923.923 0 0 0 -.53.73 6.193 6.193 0 0 0 0 1.72.923.923 0 0 0 .53.73l.54.23a7.113 7.113 0 0 0 .73 1.75l-.22.55a.9.9 0 0 0 .13.89c.18.22.37.44.57.65s.43.39.65.57a.9.9 0 0 0 .89.13l.55-.22a7.113 7.113 0 0 0 1.75.73l.23.54a.923.923 0 0 0 .73.53 6.193 6.193 0 0 0 1.72 0 .923.923 0 0 0 .73-.53l.23-.54a7.113 7.113 0 0 0 1.75-.73l.55.22a.9.9 0 0 0 .89-.13c.22-.18.44-.37.65-.57s.39-.43.57-.65a.9.9 0 0 0 .13-.89l-.22-.55a7.113 7.113 0 0 0 .73-1.75l.54-.23a.923.923 0 0 0 .53-.73 6.193 6.193 0 0 0 0-1.72zm-7.94 3.86a3 3 0 1 1 3-3 3 3 0 0 1 -3 3z" fill="#d6dbe3"/><path d="m58.87 50.08a.914.914 0 0 0 -.36-.37l-4.51-2.71v-5.6a.922.922 0 0 0 -.13-.49.983.983 0 0 0 -.36-.37l-4-2.4a.984.984 0 0 0 -1.02 0l-4 2.4a.983.983 0 0 0 -.36.37.922.922 0 0 0 -.13.49v5.6l-4.51 2.71a1.009 1.009 0 0 0 -.49.86v5.03a.99.99 0 0 0 .49.86l4 2.4a1 1 0 0 0 1.02 0l4.49-2.69 4.49 2.69a1 1 0 0 0 1.02 0l4-2.4a.99.99 0 0 0 .49-.86v-5.03a.922.922 0 0 0 -.13-.49z" fill="#42838e"/><path d="m54 41.4v5.6l-5 3v-6.17l4.87-2.92a.922.922 0 0 1 .13.49z" fill="#266677"/><path d="m53.87 40.91-4.87 2.92-4.87-2.92a.983.983 0 0 1 .36-.37l4-2.4a.984.984 0 0 1 1.02 0l4 2.4a.983.983 0 0 1 .36.37z" fill="#347584"/><path d="m49 50v6.17l-4.49 2.69a.913.913 0 0 1 -.51.14v-6z" fill="#266677"/><path d="m49 50-5 3-4.87-2.92a.914.914 0 0 1 .36-.37l4.51-2.71z" fill="#347584"/><path d="m59 50.57v5.03a.99.99 0 0 1 -.49.86l-4 2.4a.913.913 0 0 1 -.51.14v-6l4.87-2.92a.922.922 0 0 1 .13.49z" fill="#266677"/><path d="m58.87 50.08-4.87 2.92-5-3 5-3 4.51 2.71a.914.914 0 0 1 .36.37z" fill="#347584"/><path d="m11 14a5 5 0 1 1 5-5 5.006 5.006 0 0 1 -5 5zm0-8a3 3 0 1 0 3 3 3 3 0 0 0 -3-3z" fill="#c2c6ce"/><path d="m49 31a5 5 0 1 1 5-5 5.006 5.006 0 0 1 -5 5zm0-8a3 3 0 1 0 3 3 3 3 0 0 0 -3-3z" fill="#c2c6ce"/><path d="m40.976 17.207-.618-2.76a1 1 0 1 0 -1.951.436l.087.387-13.947-9.107a1 1 0 1 0 -1.094 1.674l13.99 9.135-.421.094a1 1 0 0 0 .217 1.976 1.02 1.02 0 0 0 .219-.024l2.76-.618a1 1 0 0 0 .758-1.193z" fill="#31b791"/><path d="m35.547 56.163-13.99-9.135.421-.094a1 1 0 0 0 -.436-1.952l-2.76.618a1 1 0 0 0 -.758 1.193l.618 2.76a1 1 0 0 0 .974.782 1.027 1.027 0 0 0 .219-.024 1 1 0 0 0 .758-1.194l-.087-.387 13.947 9.107a1 1 0 1 0 1.094-1.674z" fill="#31b791"/><g fill="#c2c6ce"><path d="m30 26a4 4 0 0 0 -4 4 1 1 0 0 0 2 0 2 2 0 1 1 2 2 1 1 0 0 0 -1 1v2a1 1 0 0 0 2 0v-1.127a4 4 0 0 0 -1-7.873z"/><path d="m30 37.772a1 1 0 0 0 -1 1v.228a1 1 0 0 0 2 0v-.228a1 1 0 0 0 -1-1z"/></g></svg>