<svg id="Icons" height="512" viewBox="0 0 60 60" width="512" xmlns="http://www.w3.org/2000/svg"><path d="m31.293 14.293-.293.293v-5.586a1 1 0 0 0 -2 0v5.586l-.293-.293a1 1 0 0 0 -1.414 1.414l2 2a1 1 0 0 0 1.414 0l2-2a1 1 0 0 0 -1.414-1.414z" fill="#ccd0da"/><path d="m9.293 14.293-.293.293v-5.586a1 1 0 0 0 -2 0v5.586l-.293-.293a1 1 0 0 0 -1.414 1.414l2 2a1 1 0 0 0 1.414 0l2-2a1 1 0 0 0 -1.414-1.414z" fill="#ccd0da"/><path d="m51.293 17.707a1 1 0 0 0 1.414 0l2-2a1 1 0 0 0 -1.414-1.414l-.293.293v-5.586a1 1 0 0 0 -2 0v5.586l-.293-.293a1 1 0 0 0 -1.414 1.414z" fill="#ccd0da"/><path d="m31.293 44.293-.293.293v-5.586a1 1 0 0 0 -2 0v5.586l-.293-.293a1 1 0 0 0 -1.414 1.414l2 2a1 1 0 0 0 1.414 0l2-2a1 1 0 0 0 -1.414-1.414z" fill="#ccd0da"/><path d="m9.293 44.293-.293.293v-5.586a1 1 0 0 0 -2 0v5.586l-.293-.293a1 1 0 0 0 -1.414 1.414l2 2a1 1 0 0 0 1.414 0l2-2a1 1 0 0 0 -1.414-1.414z" fill="#ccd0da"/><path d="m53.293 44.293-.293.293v-5.586a1 1 0 0 0 -2 0v5.586l-.293-.293a1 1 0 0 0 -1.414 1.414l2 2a1 1 0 0 0 1.414 0l2-2a1 1 0 0 0 -1.414-1.414z" fill="#ccd0da"/><g fill="#347584"><rect height="18" rx="5" width="58" x="1" y="21"/><rect height="8" rx="2" width="14" x="23" y="1"/><rect height="8" rx="2" width="14" x="1" y="1"/><rect height="8" rx="2" width="14" x="45" y="1"/><rect height="8" rx="2" width="14" x="23" y="51"/><rect height="8" rx="2" width="14" x="1" y="51"/><rect height="8" rx="2" width="14" x="45" y="51"/></g><path d="m14.707 30.707-2 2a1 1 0 0 1 -.707.293h-5.5a.5.5 0 0 1 -.354-.854l1.44-1.439a1 1 0 0 0 0-1.414l-1.44-1.439a.5.5 0 0 1 .354-.854h5.5a1 1 0 0 1 .707.293l2 2a1 1 0 0 1 0 1.414z" fill="#3fdab1"/><path d="m27.707 30.707-2 2a1 1 0 0 1 -.707.293h-5.5a.5.5 0 0 1 -.354-.854l1.44-1.439a1 1 0 0 0 0-1.414l-1.44-1.439a.5.5 0 0 1 .354-.854h5.5a1 1 0 0 1 .707.293l2 2a1 1 0 0 1 0 1.414z" fill="#3fdab1"/><path d="m40.707 30.707-2 2a1 1 0 0 1 -.707.293h-5.5a.5.5 0 0 1 -.354-.854l1.44-1.439a1 1 0 0 0 0-1.414l-1.44-1.439a.5.5 0 0 1 .354-.854h5.5a1 1 0 0 1 .707.293l2 2a1 1 0 0 1 0 1.414z" fill="#3fdab1"/><path d="m53.707 30.707-2 2a1 1 0 0 1 -.707.293h-5.5a.5.5 0 0 1 -.354-.854l1.44-1.439a1 1 0 0 0 0-1.414l-1.44-1.439a.5.5 0 0 1 .354-.854h5.5a1 1 0 0 1 .707.293l2 2a1 1 0 0 1 0 1.414z" fill="#3fdab1"/><path d="m55 6h-6a1 1 0 0 1 0-2h6a1 1 0 0 1 0 2z" fill="#1e5460"/><path d="m33 6h-6a1 1 0 0 1 0-2h6a1 1 0 0 1 0 2z" fill="#1e5460"/><path d="m11 6h-6a1 1 0 0 1 0-2h6a1 1 0 0 1 0 2z" fill="#1e5460"/><path d="m55 56h-6a1 1 0 0 1 0-2h6a1 1 0 0 1 0 2z" fill="#1e5460"/><path d="m33 56h-6a1 1 0 0 1 0-2h6a1 1 0 0 1 0 2z" fill="#1e5460"/><path d="m11 56h-6a1 1 0 0 1 0-2h6a1 1 0 0 1 0 2z" fill="#1e5460"/></svg>