<svg id="Icons" height="512" viewBox="0 0 60 60" width="512" xmlns="http://www.w3.org/2000/svg"><path d="m59 30a28.954 28.954 0 0 1 -11.95 23.46c-.01 0-.01.01-.02.02h-.01l-4.77-1.48.08-5.02a20.962 20.962 0 0 0 7.64-23.47l4.73 1.62 2.88-4.09a28.543 28.543 0 0 1 1.42 8.96z" fill="#d84557"/><path d="m12.89 48.44.08 5.03c-.01 0-.01-.01-.02-.01v-.01a28.921 28.921 0 0 1 -11.95-23.45 28.543 28.543 0 0 1 1.42-8.96l4.73-1.62 2.88 4.09a20.969 20.969 0 0 0 7.62 23.46z" fill="#fccb55"/><path d="m47.02 53.48a28.993 28.993 0 0 1 -34.05-.01l-.08-5.03 4.76-1.47a20.929 20.929 0 0 0 24.68.01l-.08 5.02z" fill="#faaa47"/><path d="m33 5-3 4a21.032 21.032 0 0 0 -19.97 14.51l-2.88-4.09-4.73 1.62a28.988 28.988 0 0 1 27.58-20.04z" fill="#37cba1"/><path d="m57.58 21.04-2.88 4.09-4.73-1.62a21.032 21.032 0 0 0 -19.97-14.51l3-4-3-4a28.988 28.988 0 0 1 27.58 20.04z" fill="#255e6b"/><path d="m42.86 22.21a.952.952 0 0 0 -.39-.38l-11.96-6.7a1.084 1.084 0 0 0 -1.02 0l-11.96 6.7a.952.952 0 0 0 -.39.38 1.076 1.076 0 0 0 -.14.53v14.52a1.03 1.03 0 0 0 .53.91l11.96 6.7a1.065 1.065 0 0 0 1.02 0l11.96-6.7a1.03 1.03 0 0 0 .53-.91v-14.52a1.076 1.076 0 0 0 -.14-.53z" fill="#d2aa82"/><path d="m43 22.74v14.52a1.03 1.03 0 0 1 -.53.91l-11.96 6.7a1.019 1.019 0 0 1 -.51.13v-15.59l12.86-7.2a1.076 1.076 0 0 1 .14.53z" fill="#b28364"/><path d="m42.86 22.21-12.86 7.2-12.86-7.2a.952.952 0 0 1 .39-.38l11.96-6.7a1.084 1.084 0 0 1 1.02 0l11.96 6.7a.952.952 0 0 1 .39.38z" fill="#c89876"/><path d="m21.01 24.33v6.67a.977.977 0 0 0 .55.89l2 1a1 1 0 0 0 1.45-.89v-5.39z" fill="#fce4bb"/><path d="m21.01 24.33 13.16-7.15h.01l4 2.24h-.01l-13.16 7.19z" fill="#ead1a0"/></svg>