<svg id="Icons" height="512" viewBox="0 0 60 60" width="512" xmlns="http://www.w3.org/2000/svg"><path d="m44 24h-13v-4a1 1 0 0 0 -2 0v4h-12a3 3 0 0 0 -3 3v3a1 1 0 0 0 2 0v-3a1 1 0 0 1 1-1h27a1 1 0 0 1 1 1v3a1 1 0 0 0 2 0v-3a3 3 0 0 0 -3-3z" fill="#266677"/><path d="m51 52a7 7 0 0 1 7 7h-20a7 7 0 0 1 7-7z" fill="#347584"/><g fill="#b9bfcc"><path d="m12 44h8v6h-8z"/><path d="m26 33h3a2 2 0 0 1 2 2v4a2 2 0 0 1 -2 2h-3a0 0 0 0 1 0 0v-8a0 0 0 0 1 0 0z"/><path d="m1 33h3a2 2 0 0 1 2 2v4a2 2 0 0 1 -2 2h-3a0 0 0 0 1 0 0v-8a0 0 0 0 1 0 0z" transform="matrix(-1 0 0 -1 7 74)"/></g><rect fill="#ccd0da" height="16" rx="3" width="22" x="5" y="29"/><rect fill="#31b791" height="4" rx="1" width="4" x="9" y="33"/><rect fill="#31b791" height="4" rx="1" width="4" x="19" y="33"/><path d="m9 49h14a3 3 0 0 1 3 3v7a0 0 0 0 1 0 0h-20a0 0 0 0 1 0 0v-7a3 3 0 0 1 3-3z" fill="#ccd0da"/><path d="m10 59v-5a1 1 0 0 1 1-1h10a1 1 0 0 1 1 1v5z" fill="#31b791"/><path d="m51 49v3.01a3 3 0 0 1 -6 0v-3.01z" fill="#d8a37c"/><path d="m56 37.01a8 8 0 0 0 -16 0v1.09a1.5 1.5 0 0 0 -2 1.415v1.5a2 2 0 0 0 2 2 1.231 1.231 0 0 1 1.2.911c.508 1.9 2.156 6.089 6.8 6.089 4.645 0 6.293-4.193 6.8-6.089a1.231 1.231 0 0 1 1.2-.916 2 2 0 0 0 2-2v-1.5a1.5 1.5 0 0 0 -2-1.41z" fill="#eab386"/><path d="m39.93 9.92a1.11 1.11 0 0 0 -.67-.9l-.68-.3a8.87 8.87 0 0 0 -.9-2.18l.27-.69a1.14 1.14 0 0 0 -.16-1.11 9.228 9.228 0 0 0 -1.53-1.53 1.14 1.14 0 0 0 -1.11-.16l-.69.27a8.87 8.87 0 0 0 -2.18-.9l-.3-.68a1.11 1.11 0 0 0 -.9-.67 8.366 8.366 0 0 0 -2.16 0 1.11 1.11 0 0 0 -.9.67l-.3.68a8.87 8.87 0 0 0 -2.18.9l-.69-.27a1.14 1.14 0 0 0 -1.11.16 9.228 9.228 0 0 0 -1.53 1.53 1.14 1.14 0 0 0 -.16 1.11l.27.69a8.87 8.87 0 0 0 -.9 2.18l-.68.3a1.11 1.11 0 0 0 -.67.9 8.366 8.366 0 0 0 0 2.16 1.11 1.11 0 0 0 .67.9l.68.3a8.87 8.87 0 0 0 .9 2.18l-.27.69a1.14 1.14 0 0 0 .16 1.11 9.228 9.228 0 0 0 1.53 1.53 1.14 1.14 0 0 0 1.11.16l.69-.27a8.87 8.87 0 0 0 2.18.9l.3.68a1.11 1.11 0 0 0 .9.67 8.366 8.366 0 0 0 2.16 0 1.11 1.11 0 0 0 .9-.67l.3-.68a8.87 8.87 0 0 0 2.18-.9l.69.27a1.14 1.14 0 0 0 1.11-.16 9.228 9.228 0 0 0 1.53-1.53 1.14 1.14 0 0 0 .16-1.11l-.27-.69a8.87 8.87 0 0 0 .9-2.18l.68-.3a1.11 1.11 0 0 0 .67-.9 8.366 8.366 0 0 0 0-2.16zm-9.93 6.08a5 5 0 1 1 5-5 5 5 0 0 1 -5 5z" fill="#ccd0da"/><path d="m19 42h-6a1 1 0 0 1 0-2h6a1 1 0 0 1 0 2z" fill="#8991a0"/><path d="m30 17a6 6 0 1 1 6-6 6.006 6.006 0 0 1 -6 6zm0-10a4 4 0 1 0 4 4 4 4 0 0 0 -4-4z" fill="#b9bfcc"/><path d="m27 60h-22a1 1 0 0 1 0-2h22a1 1 0 0 1 0 2z" fill="#484949"/><path d="m59 60h-22a1 1 0 0 1 0-2h22a1 1 0 0 1 0 2z" fill="#484949"/></svg>