<svg id="Icons" height="512" viewBox="0 0 60 60" width="512" xmlns="http://www.w3.org/2000/svg"><path d="m59 9v46a4 4 0 0 1 -4 4h-50a4 4 0 0 1 -4-4v-46l1-1h56z" fill="#d6dbe3"/><path d="m59 5v4h-58v-4a4 4 0 0 1 4-4h50a4 4 0 0 1 4 4z" fill="#347584"/><path d="m6 6h-1a1 1 0 0 1 0-2h1a1 1 0 0 1 0 2z" fill="#f77c90"/><path d="m11 6h-1a1 1 0 0 1 0-2h1a1 1 0 0 1 0 2z" fill="#fccb55"/><path d="m16 6h-1a1 1 0 0 1 0-2h1a1 1 0 0 1 0 2z" fill="#37cba1"/><path d="m55 6h-6a1 1 0 0 1 0-2h6a1 1 0 0 1 0 2z" fill="#266677"/><g fill="#fff"><path d="m9 17a1 1 0 0 0 -1 1v3h-2v-3a1 1 0 0 0 -2 0v8a1 1 0 0 0 2 0v-3h2v3a1 1 0 0 0 2 0v-8a1 1 0 0 0 -1-1z"/><path d="m39 21a1 1 0 1 1 .867-1.5 1 1 0 0 0 1.731-1 3 3 0 1 0 -2.598 4.5 1 1 0 1 1 -.867 1.5 1 1 0 0 0 -1.731 1 3 3 0 1 0 2.598-4.5z"/><path d="m17 17h-4a1 1 0 0 0 0 2h1v7a1 1 0 0 0 2 0v-7h1a1 1 0 0 0 0-2z"/><path d="m25 17h-4a1 1 0 0 0 0 2h1v7a1 1 0 0 0 2 0v-7h1a1 1 0 0 0 0-2z"/><path d="m31 17h-2a1 1 0 0 0 -1 1v8a1 1 0 0 0 2 0v-3h1a3 3 0 0 0 0-6zm0 4h-1v-2h1a1 1 0 0 1 0 2z"/><path d="m45 20.678a1 1 0 0 0 -1 1v.322a1 1 0 0 0 2 0v-.322a1 1 0 0 0 -1-1z"/><path d="m45 24.678a1 1 0 0 0 -1 1v.322a1 1 0 0 0 2 0v-.322a1 1 0 0 0 -1-1z"/><path d="m51.242 17.03a1 1 0 0 0 -1.212.728l-2 8a1 1 0 0 0 .728 1.212 1.017 1.017 0 0 0 .242.03 1 1 0 0 0 .969-.758l2-8a1 1 0 0 0 -.727-1.212z"/><path d="m55.242 17.03a1 1 0 0 0 -1.212.728l-2 8a1 1 0 0 0 .728 1.212 1.017 1.017 0 0 0 .242.03 1 1 0 0 0 .969-.758l2-8a1 1 0 0 0 -.727-1.212z"/></g><path d="m55 31h-50a1 1 0 0 1 0-2h50a1 1 0 0 1 0 2z" fill="#b9bfcc"/><path d="m55 15h-50a1 1 0 0 1 0-2h50a1 1 0 0 1 0 2z" fill="#b9bfcc"/><path d="m30 33a11 11 0 1 0 11 11 11.013 11.013 0 0 0 -11-11zm1 6v-3.665a6.783 6.783 0 0 1 2.286 3.665zm2.757 2a17.67 17.67 0 0 1 .217 2h-2.974v-2zm-4.757-5.665v3.665h-2.286a6.783 6.783 0 0 1 2.286-3.665zm0 5.665v2h-2.974a17.67 17.67 0 0 1 .217-2zm-4.973 2h-2.968a8.869 8.869 0 0 1 .466-2h2.7a19.492 19.492 0 0 0 -.198 2zm-2.968 2h2.968a19.492 19.492 0 0 0 .2 2h-2.7a8.869 8.869 0 0 1 -.468-2zm4.967 0h2.974v2h-2.757a17.67 17.67 0 0 1 -.217-2zm2.974 4v3.665a6.783 6.783 0 0 1 -2.286-3.665zm2 3.665v-3.665h2.286a6.783 6.783 0 0 1 -2.286 3.665zm0-5.665v-2h2.974a17.67 17.67 0 0 1 -.217 2zm4.973-2h2.968a8.869 8.869 0 0 1 -.466 2h-2.7a19.492 19.492 0 0 0 .198-2zm0-2a19.492 19.492 0 0 0 -.2-2h2.7a8.869 8.869 0 0 1 .466 2zm1.505-4h-2.118a12.856 12.856 0 0 0 -1.193-2.97 9.048 9.048 0 0 1 3.311 2.97zm-11.645-2.97a12.856 12.856 0 0 0 -1.193 2.97h-2.118a9.048 9.048 0 0 1 3.311-2.97zm-3.311 12.97h2.118a12.856 12.856 0 0 0 1.193 2.97 9.048 9.048 0 0 1 -3.311-2.97zm11.645 2.97a12.856 12.856 0 0 0 1.193-2.97h2.118a9.048 9.048 0 0 1 -3.311 2.97z" fill="#266677"/></svg>