<svg id="Icons" height="512" viewBox="0 0 60 60" width="512" xmlns="http://www.w3.org/2000/svg"><rect fill="#ccd0da" height="6" rx="2" width="20" x="20" y="16"/><rect fill="#ccd0da" height="6" rx="2" width="20" x="20" y="49"/><rect fill="#ccd0da" height="6" rx="2" width="20" x="20" y="5"/><rect fill="#ccd0da" height="6" rx="2" width="20" x="20" y="27"/><rect fill="#ccd0da" height="6" rx="2" width="20" x="20" y="38"/><g fill="#31b791"><path d="m16 5a1 1 0 0 1 -1-1v-1a3 3 0 0 1 3-3h1a1 1 0 0 1 0 2h-1a1 1 0 0 0 -1 1v1a1 1 0 0 1 -1 1z"/><path d="m25 2h-2a1 1 0 0 1 0-2h2a1 1 0 0 1 0 2z"/><path d="m31 2h-2a1 1 0 0 1 0-2h2a1 1 0 0 1 0 2z"/><path d="m44 5a1 1 0 0 1 -1-1v-1a1 1 0 0 0 -1-1h-1a1 1 0 0 1 0-2h1a3 3 0 0 1 3 3v1a1 1 0 0 1 -1 1z"/><path d="m37 2h-2a1 1 0 0 1 0-2h2a1 1 0 0 1 0 2z"/><path d="m16 11a1 1 0 0 1 -1-1v-2a1 1 0 0 1 2 0v2a1 1 0 0 1 -1 1z"/><path d="m16 17a1 1 0 0 1 -1-1v-2a1 1 0 0 1 2 0v2a1 1 0 0 1 -1 1z"/><path d="m16 23a1 1 0 0 1 -1-1v-2a1 1 0 0 1 2 0v2a1 1 0 0 1 -1 1z"/><path d="m16 29a1 1 0 0 1 -1-1v-2a1 1 0 0 1 2 0v2a1 1 0 0 1 -1 1z"/><path d="m16 35a1 1 0 0 1 -1-1v-2a1 1 0 0 1 2 0v2a1 1 0 0 1 -1 1z"/><path d="m16 41a1 1 0 0 1 -1-1v-2a1 1 0 0 1 2 0v2a1 1 0 0 1 -1 1z"/><path d="m16 47a1 1 0 0 1 -1-1v-2a1 1 0 0 1 2 0v2a1 1 0 0 1 -1 1z"/><path d="m16 53a1 1 0 0 1 -1-1v-2a1 1 0 0 1 2 0v2a1 1 0 0 1 -1 1z"/><path d="m44 11a1 1 0 0 1 -1-1v-2a1 1 0 0 1 2 0v2a1 1 0 0 1 -1 1z"/><path d="m44 17a1 1 0 0 1 -1-1v-2a1 1 0 0 1 2 0v2a1 1 0 0 1 -1 1z"/><path d="m44 23a1 1 0 0 1 -1-1v-2a1 1 0 0 1 2 0v2a1 1 0 0 1 -1 1z"/><path d="m44 29a1 1 0 0 1 -1-1v-2a1 1 0 0 1 2 0v2a1 1 0 0 1 -1 1z"/><path d="m44 35a1 1 0 0 1 -1-1v-2a1 1 0 0 1 2 0v2a1 1 0 0 1 -1 1z"/><path d="m44 41a1 1 0 0 1 -1-1v-2a1 1 0 0 1 2 0v2a1 1 0 0 1 -1 1z"/><path d="m44 47a1 1 0 0 1 -1-1v-2a1 1 0 0 1 2 0v2a1 1 0 0 1 -1 1z"/><path d="m44 53a1 1 0 0 1 -1-1v-2a1 1 0 0 1 2 0v2a1 1 0 0 1 -1 1z"/><path d="m19 60h-1a3 3 0 0 1 -3-3v-1a1 1 0 0 1 2 0v1a1 1 0 0 0 1 1h1a1 1 0 0 1 0 2z"/><path d="m25 60h-2a1 1 0 0 1 0-2h2a1 1 0 0 1 0 2z"/><path d="m31 60h-2a1 1 0 0 1 0-2h2a1 1 0 0 1 0 2z"/><path d="m42 60h-1a1 1 0 0 1 0-2h1a1 1 0 0 0 1-1v-1a1 1 0 0 1 2 0v1a3 3 0 0 1 -3 3z"/><path d="m37 60h-2a1 1 0 0 1 0-2h2a1 1 0 0 1 0 2z"/></g></svg>