<svg id="Icons" height="512" viewBox="0 0 60 60" width="512" xmlns="http://www.w3.org/2000/svg"><path d="m58.98 57.14a1.477 1.477 0 0 1 0 .42 1.606 1.606 0 0 1 -1.42 1.42.915.915 0 0 1 -.17.01l-6.82.01a1.257 1.257 0 0 1 -.89-.37l-2.94-2.93a1.362 1.362 0 0 1 -.34-.65l-.62-3.08a1.263 1.263 0 0 0 -1.24-1.02h-2.02a1.24 1.24 0 0 1 -.89-.37l-1.95-1.95a1.282 1.282 0 0 1 -.37-.89v-1.79a1.27 1.27 0 0 0 -1.26-1.27h-3.07a1.264 1.264 0 0 1 -1.24-1.01l-.62-3.09a1.229 1.229 0 0 0 -.35-.64l-3.3-3.31-2.86 2.85a2.274 2.274 0 0 1 -3.87-1.39l-.5-5.22-1.15 2.86a1.012 1.012 0 0 1 -.85.65c-.5.05-1.01.07-1.52.07s-1.01-.02-1.51-.07a1.026 1.026 0 0 1 -.86-.65l-1.14-2.86a14.6 14.6 0 0 1 -4.01-1.66l-2.83 1.21a1 1 0 0 1 -1.06-.14c-.39-.32-.76-.67-1.12-1.02s-.7-.74-1.02-1.12a1.038 1.038 0 0 1 -.15-1.07l1.21-2.82a14.519 14.519 0 0 1 -1.65-4.01l-2.86-1.15a1.012 1.012 0 0 1 -.65-.85c-.05-.5-.07-1.01-.07-1.52s.02-1.01.07-1.51a1.026 1.026 0 0 1 .65-.86l2.86-1.14a14.273 14.273 0 0 1 1.65-4.01l-1.21-2.83a1.023 1.023 0 0 1 .15-1.06c.32-.39.66-.76 1.02-1.12s.73-.7 1.12-1.02a1.023 1.023 0 0 1 1.06-.15l2.83 1.21a14.273 14.273 0 0 1 4.01-1.65l1.14-2.86a1.026 1.026 0 0 1 .86-.65c.5-.05 1.01-.07 1.51-.07s1.02.02 1.52.07a1.012 1.012 0 0 1 .85.65l1.15 2.86a14.519 14.519 0 0 1 4.01 1.65l2.82-1.21a1.038 1.038 0 0 1 1.07.15c.38.32.76.66 1.12 1.02s.7.73 1.02 1.12a1 1 0 0 1 .14 1.06l-1.21 2.83a14.6 14.6 0 0 1 1.66 4.01l2.86 1.14a1.026 1.026 0 0 1 .65.86c.05.5.07 1.01.07 1.51s-.02 1.02-.07 1.52a1.012 1.012 0 0 1 -.65.85l-2.86 1.15 5.22.5a2.274 2.274 0 0 1 1.39 3.87l-2.85 2.86 20.85 20.85a2.5 2.5 0 0 1 .72 1.51z" fill="#31b791"/><g fill="#2ca37e"><path d="m39.833 40.833a1 1 0 0 1 -.707-.293l-6.787-6.787a1 1 0 0 1 1.414-1.414l6.787 6.787a1 1 0 0 1 -.707 1.707z"/><path d="m46.473 47.473a1 1 0 0 1 -.707-.293l-2.166-2.164a1 1 0 0 1 1.416-1.416l2.164 2.164a1 1 0 0 1 -.707 1.707z"/><path d="m58.98 57.56a1.606 1.606 0 0 1 -1.42 1.42l-7.32-7.32a1 1 0 0 1 1.42-1.42z"/></g><path d="m13 15a3 3 0 0 0 -3 3v4a1 1 0 0 0 2 0v-1h2v1a1 1 0 0 0 2 0v-4a3 3 0 0 0 -3-3zm-1 4v-1a1 1 0 0 1 2 0v1z" fill="#fff"/><path d="m27 15a1 1 0 0 0 -1 1v6a1 1 0 0 0 2 0v-6a1 1 0 0 0 -1-1z" fill="#fff"/><path d="m21 15h-2a1 1 0 0 0 -1 1v6a1 1 0 0 0 2 0v-1h1a3 3 0 0 0 0-6zm0 4h-1v-2h1a1 1 0 0 1 0 2z" fill="#fff"/></svg>